<svg width="1920" height="1017" viewBox="0 0 1920 1017" fill="none" xmlns="http://www.w3.org/2000/svg">
<path d="M1360.44 402.094C1360.44 402.094 1321.55 483.154 1217.62 430.722C1113.68 378.133 1105.28 324.767 905.977 376.266C706.672 427.765 634.324 424.654 591.693 365.531C549.063 306.408 468.625 224.414 298.725 233.127C128.669 241.84 41.2298 39.7337 -81.372 7.06061C-203.974 -25.7681 -292.658 75.363 -292.658 75.363V1115.92H1998.35C1998.35 1115.92 1939.69 956.914 1808.38 908.527C1676.91 860.139 1695.73 827.466 1683.75 746.406C1671.62 665.346 1419.26 610.579 1436.84 491.556C1454.11 372.221 1360.44 402.094 1360.44 402.094Z" fill="#333333"/>
<path d="M-253.139 90.766C-238.981 82.8311 9.6459 30.3986 87.9057 178.05C166.166 325.701 248.782 327.413 374.34 336.437C499.898 345.461 461.935 347.328 601.651 426.521C741.368 505.714 823.361 464.484 925.27 436.167C1027.02 407.851 1189.61 475.686 1319.53 416.719C1449.44 357.752 1454.73 454.526 1454.73 454.526C1454.73 454.526 1418.63 539.01 1523.65 598.132C1628.83 657.255 1577.18 725.402 1606.43 833.379C1635.68 941.511 1920.24 1101.61 1920.24 1101.61L-305.26 999.856L-253.139 90.766Z" fill="#1A1A1A"/>
<path d="M-219.999 120.794C-219.999 120.794 -179.08 287.738 -6.84625 306.408C165.388 325.079 170.677 319.633 236.49 395.715C302.148 471.796 337.777 514.427 454.933 486.888C572.09 459.35 675.088 394.315 771.084 447.058C866.925 499.802 1079.46 589.264 1298.52 381.712C1517.59 174.16 1445.71 486.888 1445.71 486.888C1445.71 486.888 1293.85 602.956 1515.25 707.354C1593.36 746.406 1580.6 862.629 1606.43 938.088C1632.1 1013.55 1842.61 1159.02 1842.61 1159.02C1842.61 1159.02 229.489 1276.64 218.909 1278.2C208.329 1279.76 -394.1 987.876 -394.1 987.876L-219.999 120.794Z" fill="black"/>
<path d="M945.029 557.991L946.585 560.636L949.23 562.037L946.585 563.592L945.029 566.237L943.629 563.592L940.984 562.037L943.629 560.636L945.029 557.991Z" fill="#FEA7AF"/>
<path opacity="0.29" d="M130.536 383.424L133.492 388.869L138.782 391.67L133.492 394.626L130.536 399.916L127.736 394.626L122.446 391.67L127.736 388.869L130.536 383.424Z" fill="white"/>
<path opacity="0.33" d="M293.435 663.478L295.613 667.524L299.503 669.702L295.613 671.88L293.435 675.925L291.257 671.88L287.211 669.702L291.257 667.524L293.435 663.478Z" fill="#FEA7AF"/>
<path d="M374.34 688.839L491.963 796.816C492.585 797.438 492.741 798.372 492.118 799.15C491.496 799.772 490.563 799.928 489.785 799.305L368.427 695.374C366.56 693.818 366.405 691.017 367.961 689.15C369.672 687.439 372.473 687.283 374.34 688.839Z" fill="url(#paint0_linear_102_4)"/>
<path d="M1242.51 669.235L1314.24 735.048C1314.7 735.359 1314.7 735.981 1314.24 736.448C1313.92 736.915 1313.3 736.915 1312.83 736.603L1238.93 673.28C1237.84 672.346 1237.69 670.635 1238.62 669.546C1239.71 668.301 1241.42 668.146 1242.51 669.235Z" fill="url(#paint1_linear_102_4)"/>
<path d="M1269.43 694.284L1313.3 734.581C1313.61 734.737 1313.61 735.203 1313.3 735.359C1313.15 735.67 1312.68 735.67 1312.52 735.359L1267.25 696.618C1266.63 695.996 1266.47 694.907 1267.09 694.284C1267.71 693.817 1268.65 693.817 1269.43 694.284Z" fill="url(#paint2_linear_102_4)"/>
<path d="M558.865 909.149C558.865 920.973 549.219 930.62 537.394 930.62C525.569 930.62 515.923 920.973 515.923 909.149C515.923 897.324 525.569 887.678 537.394 887.678C549.219 887.678 558.865 897.324 558.865 909.149Z" fill="url(#paint3_radial_102_4)"/>
<path d="M723.319 523.14C723.319 534.965 713.673 544.611 701.848 544.611C690.024 544.611 680.377 534.965 680.377 523.14C680.377 511.316 690.024 501.669 701.848 501.669C713.673 501.825 723.319 511.316 723.319 523.14Z" fill="url(#paint4_radial_102_4)"/>
<defs>
<linearGradient id="paint0_linear_102_4" x1="491.989" y1="799.296" x2="368.068" y2="689.217" gradientUnits="userSpaceOnUse">
<stop offset="0.00537634" stop-color="#FEA7AF"/>
<stop offset="0.9946" stop-color="#EA47AC" stop-opacity="0"/>
</linearGradient>
<linearGradient id="paint1_linear_102_4" x1="1314.27" y1="736.438" x2="1238.78" y2="669.378" gradientUnits="userSpaceOnUse">
<stop offset="0.00537634" stop-color="#FEA7AF"/>
<stop offset="0.9946" stop-color="#EA47AC" stop-opacity="0"/>
</linearGradient>
<linearGradient id="paint2_linear_102_4" x1="1313.3" y1="735.574" x2="1267.04" y2="694.48" gradientUnits="userSpaceOnUse">
<stop offset="0.00537634" stop-color="#FEA7AF"/>
<stop offset="0.9946" stop-color="#EA47AC" stop-opacity="0"/>
</linearGradient>
<radialGradient id="paint3_radial_102_4" cx="0" cy="0" r="1" gradientUnits="userSpaceOnUse" gradientTransform="translate(537.457 909.073) scale(21.3957)">
<stop offset="0.00537634" stop-color="#DE3DBF"/>
<stop offset="0.103" stop-color="#B03097"/>
<stop offset="0.2169" stop-color="#822470"/>
<stop offset="0.335" stop-color="#5A194D"/>
<stop offset="0.4556" stop-color="#391031"/>
<stop offset="0.5794" stop-color="#20091C"/>
<stop offset="0.7078" stop-color="#0E040C"/>
<stop offset="0.8438" stop-color="#030103"/>
<stop offset="1"/>
</radialGradient>
<radialGradient id="paint4_radial_102_4" cx="0" cy="0" r="1" gradientUnits="userSpaceOnUse" gradientTransform="translate(701.859 523.162) scale(21.3958)">
<stop offset="0.00537634" stop-color="#DE3DBF"/>
<stop offset="0.103" stop-color="#B03097"/>
<stop offset="0.2169" stop-color="#822470"/>
<stop offset="0.335" stop-color="#5A194D"/>
<stop offset="0.4556" stop-color="#391031"/>
<stop offset="0.5794" stop-color="#20091C"/>
<stop offset="0.7078" stop-color="#0E040C"/>
<stop offset="0.8438" stop-color="#030103"/>
<stop offset="1"/>
</radialGradient>
</defs>
</svg>
