<svg width="421" height="538" viewBox="0 0 421 538" fill="none" xmlns="http://www.w3.org/2000/svg">
<path d="M236.898 156.182L58.441 406.832L23.7454 382.249L202.203 131.6C214.961 113.552 230.519 97.6819 248.101 84.3015L262.881 73.0993C263.348 72.7881 263.659 72.4769 264.126 72.3214C268.793 70.1432 274.239 74.6552 272.528 79.9451L266.771 97.5263C259.77 118.375 249.656 138.134 236.898 156.182Z" fill="#700808"/>
<path d="M228.186 149.959L49.884 400.608L23.9011 382.094L202.358 131.444C215.116 113.396 230.675 97.5266 248.256 84.1462L263.037 72.944C263.504 72.6329 263.815 72.3217 264.282 72.1661C264.282 72.6329 264.126 73.0996 263.97 73.5663L258.214 91.1476C251.057 112.152 241.099 131.911 228.186 149.959Z" fill="#660606"/>
<path d="M230.208 151.048L51.7509 401.697L25.7681 383.182L204.225 132.533C216.983 114.485 232.542 98.6154 250.123 85.235L264.904 74.0328C265.371 73.7217 265.682 73.4105 266.149 73.2549C266.149 73.7217 265.993 74.1884 265.838 74.6551L260.081 92.2363C253.079 113.24 242.966 133.156 230.208 151.048Z" fill="#8C0D0D"/>
<path d="M56.4185 432.659L0.0964355 392.673L37.4371 363.112L72.1329 387.695L56.4185 432.659Z" fill="url(#paint0_radial_2_660)"/>
<path d="M42.7271 423.013L0.0964355 392.673L37.4371 363.112L58.4412 377.893L42.7271 423.013Z" fill="#FF2424"/>
<path d="M45.6832 424.724L0.0964355 392.673L40.3933 364.823L61.3974 379.604L45.6832 424.724Z" fill="#660606"/>
<path d="M47.2161 426.179L8.04858 398.3L6.4245 400.581L45.5921 428.461L47.2161 426.179Z" fill="#8C0D0D"/>
<path d="M72.133 387.694L37.4373 363.112L38.2152 362.022L72.911 386.605L72.133 387.694Z" fill="url(#paint1_radial_2_660)"/>
<path d="M361.523 248.445L183.065 499.094L148.37 474.512L326.827 223.863C339.585 205.815 355.144 189.945 372.725 176.564L387.506 165.362C387.972 165.051 388.284 164.74 388.75 164.584C393.418 162.406 398.863 166.918 397.152 172.208L391.395 189.789C384.394 210.638 374.437 230.397 361.523 248.445Z" fill="#8C0D0D"/>
<path d="M352.966 242.222L174.508 492.871L148.525 474.356L326.983 223.707C339.741 205.659 355.299 189.789 372.881 176.409L387.661 165.206C388.128 164.895 388.439 164.584 388.906 164.428C388.906 164.895 388.75 165.362 388.595 165.829L382.838 183.41C375.681 204.414 365.724 224.329 352.966 242.222Z" fill="#C90505"/>
<path d="M353.744 243.155L175.286 493.805L149.303 475.29L327.761 224.641C340.519 206.593 356.077 190.723 373.659 177.343L388.439 166.14C388.906 165.829 389.217 165.518 389.684 165.362C389.684 165.829 389.528 166.296 389.373 166.763L383.616 184.344C376.615 205.192 366.502 225.107 353.744 243.155Z" fill="#C90505"/>
<path d="M181.043 524.921L124.721 484.936L162.061 455.375L196.757 479.957L181.043 524.921Z" fill="#8C0D0D"/>
<path d="M167.351 515.275L124.721 484.936L162.061 455.375L183.066 470.155L167.351 515.275Z" fill="#CC7DFF"/>
<path d="M169.374 516.831L126.743 486.492L164.24 456.931L185.088 471.711L169.374 516.831Z" fill="#660606"/>
<path d="M171.853 518.424L132.686 490.545L131.062 492.827L170.229 520.706L171.853 518.424Z" fill="#660606"/>
<path d="M196.757 479.958L162.061 455.375L162.839 454.286L197.535 478.869L196.757 479.958Z" fill="url(#paint2_radial_2_660)"/>
<path d="M377.082 163.962L137.479 500.494L34.1697 426.902L273.772 90.3694C299.755 53.9622 335.696 25.8012 377.393 9.46461L398.708 1.21847C409.288 -2.98235 420.801 5.10816 420.334 16.6215L419.401 39.4927C417.689 84.3015 403.064 127.554 377.082 163.962Z" fill="#C90505"/>
<path d="M355.299 148.559L115.697 485.092L34.0142 426.902L273.617 90.3697C299.6 53.9626 335.54 25.8015 377.237 9.46494L398.552 1.2188L397.619 24.09C396.063 68.7432 381.282 111.996 355.299 148.559Z" fill="#C90505"/>
<path d="M356.388 148.87L116.786 485.403L35.103 427.214L274.706 90.6807C300.689 54.2735 336.629 26.1124 378.326 9.7759L399.641 1.52985L398.708 24.401C397.152 69.0543 382.371 112.307 356.388 148.87Z" fill="#FF2424"/>
<path d="M369.147 107.484C368.68 107.173 368.213 106.861 367.591 106.55C367.435 106.395 367.28 106.395 367.124 106.239C366.813 106.083 366.346 105.928 366.035 105.772C365.879 105.617 365.568 105.617 365.413 105.617C365.102 105.461 364.635 105.306 364.323 105.306C364.168 105.306 363.857 105.15 363.701 105.15C363.39 104.994 362.923 104.994 362.612 104.994C362.301 104.994 362.145 104.994 361.834 104.839C361.523 104.839 361.056 104.839 360.745 104.839C360.434 104.839 360.278 104.839 359.967 104.839C359.656 104.839 359.189 104.839 358.878 104.994C358.567 104.994 358.411 104.994 358.1 105.15C357.789 105.15 357.478 105.306 357.011 105.306C356.7 105.306 356.389 105.461 356.078 105.461H355.922C355.455 105.617 354.833 105.772 354.366 106.083C347.209 109.195 340.208 112.618 333.518 116.352C302.089 133.778 274.861 158.049 253.857 187.611L177.153 295.432L63.5756 323.593L14.4103 385.983L15.9662 386.916L12.3877 391.428L68.0874 423.324L70.888 424.879L50.9729 441.216C47.55 444.017 47.7057 449.306 51.2842 451.796L55.485 454.752L52.3733 459.108L83.4905 481.202L86.6022 476.845L96.2487 483.691L83.1794 502.828C82.0903 504.54 82.4014 506.873 84.1129 508.118C84.2685 508.274 84.5797 508.274 84.7352 508.429C84.8908 508.585 85.0463 508.74 85.2019 508.896C86.9133 510.141 89.2472 509.674 90.4919 508.118L104.339 489.603L112.118 495.049L109.007 499.405L140.124 521.498L143.236 517.142L148.214 520.72C151.793 523.21 156.772 521.654 158.327 517.609L167.351 493.337L169.218 495.049L218.072 537.679L221.184 532.856L221.34 533.012L264.126 466.265L253.702 351.754L331.339 242.688C344.097 224.796 354.21 205.347 361.679 184.81C366.502 171.43 370.236 157.738 372.57 143.735C373.814 136.267 374.903 128.643 375.37 121.02C375.992 115.263 373.192 110.44 369.147 107.484Z" fill="#FF2424"/>
<path d="M104.495 436.704L0.0964355 383.494L50.973 315.658L212.16 275.673L104.495 436.704Z" fill="#FF2424"/>
<path d="M106.517 439.038L3.98608 380.382L49.1061 321.104L214.183 278.007L106.517 439.038Z" fill="#660606"/>
<path d="M119.742 447.441L205.626 529.746L251.679 458.332L236.743 293.099L119.742 447.441Z" fill="#FF2424"/>
<path d="M102.627 442.15L55.6404 415.233L0.0961914 383.494L49.1058 321.104L132.344 300.411L210.137 281.118L102.627 442.15Z" fill="#660606"/>
<path d="M55.6404 415.233L0.0961914 383.493L49.1058 321.103L132.344 300.41L55.6404 415.233Z" fill="#8C0D0D"/>
<path d="M205.625 529.745L156.771 487.114L116.475 451.952L233.475 297.61L240.632 376.492L248.412 462.843L205.625 529.745Z" fill="#660606"/>
<path d="M205.626 529.744L156.771 487.114L240.632 376.492L248.412 462.842L205.626 529.744Z" fill="#8C0D0D"/>
<path d="M318.892 234.753L148.214 474.667L70.7324 419.434L241.41 179.52C262.414 150.114 289.642 125.687 321.071 108.262C327.916 104.528 334.762 101.105 341.919 97.993C342.386 97.8374 343.008 97.5263 343.475 97.3707C348.142 95.8148 352.966 96.9039 356.7 99.5488C360.745 102.505 363.39 107.328 362.923 112.929C362.301 120.553 361.367 128.177 360.123 135.645C357.633 149.648 354.055 163.495 349.232 176.72C341.763 197.413 331.65 216.861 318.892 234.753Z" fill="#8C0D0D"/>
<path d="M299.444 220.906L128.766 460.82L70.7324 419.589L241.41 179.676C262.414 150.27 289.642 125.843 321.071 108.417C327.916 104.683 334.762 101.26 341.919 98.1486C342.386 97.993 343.008 97.6818 343.475 97.5262C343.475 98.1486 343.475 98.6153 343.475 99.2376C342.852 106.861 341.919 114.485 340.674 121.953C338.185 135.956 334.606 149.803 329.783 163.028C322.315 183.565 312.202 203.014 299.444 220.906Z" fill="#C90505"/>
<path d="M301.622 222.151L130.789 462.065L72.7549 420.835L243.433 180.921C264.437 151.515 291.665 127.088 323.093 109.662C329.939 105.928 336.785 102.505 343.942 99.3935C344.408 99.238 345.031 98.9268 345.497 98.7712C345.497 99.3935 345.497 99.8603 345.497 100.483C344.875 108.106 343.941 115.73 342.697 123.198C340.207 137.201 336.629 151.048 331.806 164.273C324.493 184.81 314.38 204.259 301.622 222.151Z" fill="url(#paint3_linear_2_660)"/>
<path d="M135.767 512.786L38.8373 443.861C35.2588 441.372 35.1031 436.082 38.526 433.281L106.05 377.737C115.386 369.958 128.766 369.647 138.724 376.648L166.729 396.563C176.687 403.564 180.576 416.322 176.375 427.836L146.036 509.83C144.325 513.875 139.346 515.431 135.767 512.786Z" fill="#FF2424"/>
<path d="M172.641 431.725L142.924 512.163C141.368 516.208 136.39 517.764 132.967 515.275L89.4025 484.313L82.4011 479.335L37.7478 447.595C34.3249 445.106 34.0138 439.971 37.4367 437.171L103.716 382.716C112.896 375.092 126.121 374.625 135.767 381.626L144.636 388.005L155.527 395.785L163.306 401.386C172.952 408.076 176.842 420.679 172.641 431.725Z" fill="#8C0D0D"/>
<path d="M70.8421 470.961L39.7869 448.856L36.629 453.293L67.6842 475.398L70.8421 470.961Z" fill="#C90505"/>
<path d="M127.481 511.255L96.4253 489.15L93.2674 493.587L124.323 515.692L127.481 511.255Z" fill="#C90505"/>
<path d="M322.471 183.41C321.693 182.943 321.226 182.01 321.071 181.076C318.581 166.295 304.423 156.182 289.642 158.672C287.775 158.983 285.908 157.738 285.597 155.716C285.286 153.849 286.53 151.981 288.553 151.67C307.223 148.559 325.116 161.161 328.227 179.987C328.539 181.854 327.294 183.721 325.271 184.032C324.182 184.188 323.249 184.032 322.471 183.41Z" fill="#8C0D0D"/>
<path d="M360.123 135.8C354.677 120.397 342.075 111.062 321.071 108.417C327.916 104.683 334.762 101.26 341.919 98.1487C347.053 95.9705 352.654 96.7484 356.7 99.7046C360.745 102.661 363.39 107.484 362.923 113.085C362.456 120.709 361.523 128.332 360.123 135.8Z" fill="#8C0D0D"/>
<path opacity="0.6" d="M158.172 391.895L155.371 395.629L89.2472 484.313L82.2458 479.335L144.48 387.85L147.125 383.96C153.193 383.96 156.46 387.072 158.172 391.895Z" fill="#660606"/>
<path d="M144.947 381.938C151.015 381.782 154.126 384.894 155.993 389.717L74.622 498.938C73.3773 500.65 71.0435 500.961 69.332 499.716C67.6206 498.472 67.1539 496.138 68.3985 494.426L144.947 381.938Z" fill="#660606"/>
<defs>
<radialGradient id="paint0_radial_2_660" cx="0" cy="0" r="1" gradientUnits="userSpaceOnUse" gradientTransform="translate(29.8036 337.958) rotate(35.4431) scale(86.5247)">
<stop offset="0.00537634" stop-color="#A02CC2"/>
<stop offset="1" stop-color="#371582"/>
</radialGradient>
<radialGradient id="paint1_radial_2_660" cx="0" cy="0" r="1" gradientUnits="userSpaceOnUse" gradientTransform="translate(34.6988 358.962) rotate(35.4441) scale(41.5526 21.0863)">
<stop stop-color="#371582"/>
<stop offset="0.9946" stop-color="#A02CC2"/>
</radialGradient>
<radialGradient id="paint2_radial_2_660" cx="0" cy="0" r="1" gradientUnits="userSpaceOnUse" gradientTransform="translate(159.357 451.234) rotate(35.4441) scale(41.5526 21.0863)">
<stop stop-color="#371582"/>
<stop offset="0.9946" stop-color="#A02CC2"/>
</radialGradient>
<linearGradient id="paint3_linear_2_660" x1="194.79" y1="249.461" x2="252.78" y2="290.739" gradientUnits="userSpaceOnUse">
<stop offset="0.00537634" stop-color="#FF0000"/>
<stop offset="0.2076" stop-color="#EA0202"/>
<stop offset="0.4552" stop-color="#D80404"/>
<stop offset="0.7141" stop-color="#CD0505"/>
<stop offset="1" stop-color="#C90505"/>
</linearGradient>
</defs>
</svg>
