<svg width="256" height="40" viewBox="0 0 256 40" fill="none" xmlns="http://www.w3.org/2000/svg">
<path d="M49.8408 21.5245C49.8408 13.3044 55.2459 8.53516 61.459 8.53516C62.8423 8.54474 64.2096 8.83378 65.4801 9.38515C66.7505 9.93653 67.8983 10.739 68.8555 11.7452L65.931 15.3451C64.8125 14.1406 63.2659 13.4315 61.6297 13.3732C58.2159 13.3732 55.5873 16.3654 55.5873 21.3983C55.5873 26.4313 57.9428 29.4235 61.5386 29.4235C62.4567 29.4084 63.361 29.196 64.1911 28.8006C65.0211 28.4052 65.7579 27.8359 66.3521 27.1306L69.2879 30.6502C68.3151 31.8191 67.0946 32.7534 65.7161 33.3844C64.3376 34.0153 62.8362 34.3268 61.3224 34.2959C55.0525 34.2386 49.8408 29.8706 49.8408 21.5245Z" fill="white"/>
<path d="M70.7325 24.347C70.7325 18.2364 75.068 14.4531 79.5628 14.4531C84.8997 14.4531 87.5283 18.3625 87.5283 23.5101C87.5305 24.3409 87.4543 25.1701 87.3007 25.9864H76.0466C76.2002 27.1478 76.7893 28.206 77.6929 28.9436C78.5964 29.6813 79.746 30.0425 80.9056 29.9531C82.3435 29.9254 83.7457 29.4968 84.9566 28.715L86.7886 32.0855C84.8284 33.4364 82.5177 34.1779 80.1431 34.2179C74.8063 34.2409 70.7325 30.5952 70.7325 24.347ZM82.8059 22.2834C82.8059 20.2083 81.9069 18.7179 79.688 18.7179C77.9356 18.7179 76.4221 19.8644 76.0466 22.2834H82.8059Z" fill="white"/>
<path d="M89.8042 14.9088H94.3559L94.7314 17.3393H94.8679C95.6339 16.4867 96.5606 15.7963 97.5941 15.3082C98.6276 14.82 99.7471 14.544 100.888 14.4961C104.961 14.4961 106.702 17.3966 106.702 22.1085V33.7794H101.149V22.7735C101.149 20.0678 100.432 19.208 98.8734 19.208C97.4738 19.208 96.5976 19.8729 95.4597 21.0423V33.7794H89.8042V14.9088Z" fill="white"/>
<path d="M111.403 26.9118V19.2993H108.842V15.1263L111.71 14.9084L112.358 9.89844H116.91V14.9084H121.462V19.2993H116.91V26.8545C116.91 28.9869 117.877 29.8467 119.334 29.8467C119.944 29.8239 120.547 29.7039 121.12 29.4913L121.997 33.5497C120.654 34.0038 119.248 34.2361 117.832 34.2376C113.235 34.2376 111.403 31.2912 111.403 26.9118Z" fill="white"/>
<path d="M124.352 14.9085H128.904L129.302 18.2103H129.439C130.804 15.6881 132.853 14.4499 134.753 14.4499C135.53 14.4055 136.307 14.5347 137.029 14.8283L136.05 19.6319C135.391 19.4444 134.71 19.3442 134.025 19.3338C132.614 19.3338 130.895 20.251 129.894 22.7732V33.7103H124.352V14.9085Z" fill="white"/>
<path d="M137.46 28.543C137.46 24.5648 140.59 22.421 147.997 21.6643C148.018 21.2784 147.954 20.8926 147.809 20.5348C147.664 20.1771 147.442 19.8561 147.159 19.5952C146.876 19.3342 146.539 19.1397 146.172 19.0257C145.806 18.9117 145.419 18.8809 145.039 18.9358C143.293 19.0631 141.608 19.6394 140.146 20.6096L138.166 16.9409C140.54 15.3832 143.298 14.5218 146.131 14.4531C150.922 14.4531 153.573 17.2046 153.573 22.9942V33.7823H149.022L148.623 31.8448H148.487C147.029 33.2994 145.086 34.1538 143.036 34.2409C142.29 34.2672 141.547 34.1372 140.853 33.8591C140.16 33.5809 139.531 33.1608 139.007 32.6252C138.483 32.0896 138.075 31.4503 137.808 30.7476C137.542 30.0449 137.424 29.2942 137.46 28.543ZM147.997 28.3023V25.0005C144.06 25.5393 142.774 26.6743 142.774 28.0959C142.774 29.3111 143.594 29.9073 144.914 29.9073C145.512 29.8767 146.096 29.7177 146.628 29.4408C147.16 29.164 147.627 28.7758 147.997 28.3023Z" fill="white"/>
<path d="M157.455 27.9104V7.13672H163.008V28.1397C163.008 29.2862 163.554 29.7218 164.009 29.7218C164.24 29.73 164.47 29.703 164.692 29.6416L165.352 33.7688C164.463 34.11 163.515 34.2698 162.564 34.2388C158.763 34.2388 157.455 31.7281 157.455 27.9104Z" fill="white"/>
<path d="M170.074 7.89453H174.011L178.939 21.7322C179.553 23.4977 180.145 25.3206 180.759 27.1205H180.919C181.533 25.3206 182.057 23.4977 182.694 21.7322L187.564 7.89453H191.501V33.7814H188.463V19.531C188.463 17.2381 188.713 14.1656 188.873 11.8727H188.713L186.676 17.7769L181.84 31.1675H179.678L174.819 17.7769L172.782 11.8727H172.623C172.782 14.1656 173.033 17.2725 173.033 19.531V33.7814H170.074V7.89453Z" fill="white"/>
<path d="M196.406 26.7542V14.6133H199.627V26.3415C199.627 29.9069 200.708 31.4317 203.222 31.4317C205.168 31.4317 206.511 30.4687 208.309 28.2102V14.6133H211.529V33.782H208.878L208.605 30.7783H208.491C206.727 32.8648 204.827 34.2176 202.221 34.2176C198.181 34.252 196.406 31.6496 196.406 26.7542Z" fill="white"/>
<path d="M215.067 31.5901L216.648 29.4577C218.184 30.8842 220.182 31.6992 222.27 31.7506C224.762 31.7506 226.002 30.4093 226.002 28.7699C226.002 26.798 223.726 25.9267 221.655 25.1356C218.992 24.1611 215.966 22.8427 215.966 19.5982C215.966 16.5372 218.401 14.1641 222.52 14.1641C224.674 14.1974 226.756 14.9516 228.437 16.3079L226.901 18.3945C225.681 17.3542 224.151 16.7531 222.554 16.6863C220.165 16.6863 219.061 17.9703 219.061 19.4377C219.061 21.2606 221.12 21.9485 223.282 22.7625C226.025 23.8057 229.086 24.9292 229.086 28.575C229.086 31.6819 226.628 34.3072 222.145 34.3072C219.548 34.2369 217.052 33.2787 215.067 31.5901Z" fill="white"/>
<path d="M232.204 8.57097C232.314 8.05865 232.594 7.59967 232.999 7.27047C233.404 6.94127 233.908 6.76172 234.428 6.76172C234.949 6.76172 235.453 6.94127 235.858 7.27047C236.263 7.59967 236.543 8.05865 236.653 8.57097C236.543 9.08328 236.263 9.54226 235.858 9.87146C235.453 10.2007 234.949 10.3802 234.428 10.3802C233.908 10.3802 233.404 10.2007 232.999 9.87146C232.594 9.54226 232.314 9.08328 232.204 8.57097ZM232.796 14.6128H236.005V33.7814H232.796V14.6128Z" fill="white"/>
<path d="M240.284 24.2179C240.284 17.8207 244.574 14.1406 249.387 14.1406C251.468 14.1433 253.465 14.9663 254.952 16.4335L253.29 18.4857C252.301 17.4488 250.95 16.8403 249.524 16.7889C246.11 16.7889 243.55 19.7812 243.55 24.1721C243.55 28.563 245.939 31.4979 249.433 31.4979C251.109 31.4514 252.711 30.7911 253.939 29.6407L255.327 31.8074C253.648 33.3564 251.459 34.226 249.182 34.2494C244.085 34.2494 240.284 30.5693 240.284 24.2179Z" fill="white"/>
<path d="M6.68446e-05 20.0458C-0.0126124 24.9588 1.77887 29.703 5.0297 33.3651C8.28053 37.0273 12.761 39.3485 17.6086 39.8822C22.4563 40.4159 27.3285 39.1242 31.2876 36.2557C35.2467 33.3873 38.0128 29.1449 39.0535 24.345H33.8191C33.6392 24.3817 33.4735 24.4692 33.3411 24.5972C32.9598 24.9871 32.6168 25.4133 32.317 25.8698C32.2333 26.0172 32.1096 26.1375 31.9605 26.2167C31.8114 26.2959 31.643 26.3306 31.475 26.3169C31.0653 26.3169 30.6443 26.3169 30.2005 26.3742V28.0939C30.5191 28.1971 30.8605 28.2888 31.1905 28.4149C31.3613 28.4773 31.5038 28.6 31.5917 28.7602C31.6796 28.9204 31.7068 29.1073 31.6684 29.2862C31.6684 29.7104 31.6684 30.146 31.2132 30.3524C30.1184 30.7986 28.8943 30.7986 27.7995 30.3524C27.6372 30.2929 27.5012 30.1772 27.4157 30.026C27.3303 29.8748 27.3009 29.6979 27.3329 29.527C27.3329 29.0913 27.2419 28.6098 27.7881 28.3805C28.1295 28.2544 28.4708 28.1512 28.8236 28.0366V26.4315L23.2023 26.6952V28.1054L23.3502 28.1741C24.5792 28.541 24.3857 28.7703 24.3402 29.8824C24.3402 30.0772 24.0216 30.3409 23.794 30.4441C22.9896 30.7635 22.0949 30.7635 21.2906 30.4441C20.6078 30.2148 20.7102 29.6531 20.6875 29.1257C20.6759 28.9275 20.7366 28.7319 20.8581 28.5757C20.9797 28.4194 21.1537 28.3133 21.3475 28.2773C21.5113 28.2114 21.6784 28.154 21.8481 28.1054V26.7296L16.3747 26.9818V28.1283L16.7389 28.2315C18.002 28.5639 17.8085 28.8505 17.763 29.848C17.763 30.0429 17.5127 30.2951 17.3192 30.3868C16.8009 30.6081 16.2436 30.7222 15.6806 30.7222C15.1176 30.7222 14.5604 30.6081 14.042 30.3868C13.4844 30.169 13.5982 29.676 13.5755 29.2403C13.5512 29.0685 13.5882 28.8936 13.6799 28.7467C13.7716 28.5998 13.912 28.4903 14.0761 28.4378C14.3834 28.3117 14.6906 28.2315 15.0206 28.1283V27.0965L8.39792 27.4175V12.7544L15.0206 13.0754V12.0436C14.6906 11.9404 14.3834 11.8601 14.0761 11.734C13.912 11.6815 13.7716 11.5721 13.6799 11.4251C13.5882 11.2782 13.5512 11.1033 13.5755 10.9315C13.5755 10.4844 13.4844 9.99141 14.042 9.78505C14.5597 9.56111 15.1172 9.44563 15.6806 9.44563C16.244 9.44563 16.8015 9.56111 17.3192 9.78505C17.5127 9.87677 17.763 10.129 17.763 10.3124C17.763 11.3213 18.002 11.6079 16.7389 11.9404L16.3747 12.0436V13.19L21.8481 13.4422V12.0665L21.3475 11.8945C21.1537 11.8585 20.9797 11.7524 20.8581 11.5962C20.7366 11.4399 20.6759 11.2443 20.6875 11.0461C20.6875 10.5073 20.6078 9.95702 21.2906 9.72773C22.0949 9.40834 22.9896 9.40834 23.794 9.72773C24.0216 9.83091 24.3288 10.0946 24.3402 10.2895C24.3402 11.4359 24.5792 11.6194 23.3502 11.9977L23.2023 12.0665V13.4766L28.8236 13.7403V12.0206C28.4708 11.906 28.1295 11.8028 27.7881 11.6767C27.2419 11.4818 27.3557 11.0003 27.3329 10.5302C27.3009 10.3593 27.3303 10.1824 27.4157 10.0312C27.5012 9.87999 27.6372 9.76431 27.7995 9.7048C28.8943 9.2586 30.1184 9.2586 31.2132 9.7048C31.7253 9.91116 31.657 10.3468 31.6684 10.771C31.7068 10.9499 31.6796 11.1368 31.5917 11.297C31.5038 11.4572 31.3613 11.5799 31.1905 11.6423L30.2005 11.9633V13.683C30.6443 13.683 31.0653 13.7518 31.475 13.683C31.643 13.6693 31.8114 13.704 31.9605 13.7832C32.1096 13.8624 32.2333 13.9827 32.317 14.1301C32.6168 14.5866 32.9598 15.0128 33.3411 15.4027C33.4764 15.5265 33.641 15.6133 33.8191 15.6549H39.0535C38.013 10.856 35.2478 6.61431 31.2899 3.74591C27.332 0.877509 22.4611 -0.414958 17.6143 0.117179C12.7675 0.649317 8.2872 2.96847 5.03546 6.62842C1.78372 10.2884 -0.00977128 15.0306 6.68446e-05 19.9426V20.0458Z" fill="white"/>
</svg>
