<svg width="20" height="20" viewBox="0 0 20 20" fill="none" xmlns="http://www.w3.org/2000/svg">
<path fill-rule="evenodd" clip-rule="evenodd" d="M10 19.6004C15.3019 19.6004 19.6 15.3023 19.6 10.0004C19.6 4.69846 15.3019 0.400391 10 0.400391C4.69809 0.400391 0.400024 4.69846 0.400024 10.0004C0.400024 15.3023 4.69809 19.6004 10 19.6004ZM11.2 6.40039C11.2 5.73765 10.6628 5.20039 10 5.20039C9.33728 5.20039 8.80002 5.73765 8.80002 6.40039V8.80039H6.40002C5.73728 8.80039 5.20002 9.33765 5.20002 10.0004C5.20002 10.6631 5.73728 11.2004 6.40002 11.2004H8.80002V13.6004C8.80002 14.2631 9.33728 14.8004 10 14.8004C10.6628 14.8004 11.2 14.2631 11.2 13.6004V11.2004H13.6C14.2628 11.2004 14.8 10.6631 14.8 10.0004C14.8 9.33765 14.2628 8.80039 13.6 8.80039H11.2V6.40039Z" fill="#6B7280"/>
</svg>
