<svg width="20" height="20" viewBox="0 0 20 20" fill="none" xmlns="http://www.w3.org/2000/svg">
<path d="M10.8486 0.751862C10.3799 0.283233 9.62012 0.283233 9.1515 0.751862L0.751496 9.15186C0.282867 9.62049 0.282867 10.3803 0.751496 10.8489C1.22013 11.3175 1.97992 11.3175 2.44855 10.8489L2.80002 10.4974V18.4004C2.80002 19.0631 3.33728 19.6004 4.00002 19.6004H6.40002C7.06277 19.6004 7.60002 19.0631 7.60002 18.4004V16.0004C7.60002 15.3376 8.13728 14.8004 8.80002 14.8004H11.2C11.8628 14.8004 12.4 15.3376 12.4 16.0004V18.4004C12.4 19.0631 12.9373 19.6004 13.6 19.6004H16C16.6628 19.6004 17.2 19.0631 17.2 18.4004V10.4974L17.5515 10.8489C18.0201 11.3175 18.7799 11.3175 19.2486 10.8489C19.7172 10.3803 19.7172 9.62049 19.2486 9.15186L10.8486 0.751862Z" fill="#10B981"/>
</svg>
