<svg width="150" height="47" viewBox="0 0 150 47" fill="none" xmlns="http://www.w3.org/2000/svg">
<path d="M103.784 25.1962C104.048 26.3413 104.198 27.5562 104.198 28.8625C104.198 32.4965 103.193 35.5016 101.183 37.8776C99.0807 40.3881 96.2261 41.6461 92.6083 41.6461C88.9904 41.6461 86.1305 40.3935 84.0339 37.8776C82.5018 36.066 81.5557 33.8835 81.1955 31.3407C79.5398 31.5934 77.8733 31.7762 76.2014 31.8353C76.6852 35.4962 78.0829 38.6141 80.416 41.173C83.5393 44.5382 87.6088 46.2208 92.6083 46.2208C97.6077 46.2208 101.672 44.5382 104.8 41.173C107.746 37.9422 109.219 33.8404 109.219 28.8625C109.219 26.4273 108.859 24.2071 108.15 22.1912C106.704 23.2018 105.306 24.2985 103.784 25.1962Z" fill="black"/>
<path d="M76.7927 28.8732C76.7927 28.7442 76.7282 16.1057 89.1677 12.7674C89.3989 12.6867 96.7368 10.2999 103.903 16.8422L102.236 18.67C96.1347 13.1007 89.9472 15.1112 89.8827 15.1327C79.2118 17.998 79.2602 28.728 79.2656 28.8355L76.7927 28.8732Z" fill="url(#paint0_linear_92_57)"/>
<path d="M103.064 21.3095C104.665 21.3095 105.962 20.0122 105.962 18.4119C105.962 16.8117 104.665 15.5144 103.064 15.5144C101.464 15.5144 100.167 16.8117 100.167 18.4119C100.167 20.0122 101.464 21.3095 103.064 21.3095Z" fill="#87F2E7"/>
<path d="M0.45166 12.918H5.27372V45.2156H0.45166V12.918Z" fill="black"/>
<path d="M24.8897 45.2156H20.0676V0H24.8897V45.2156Z" fill="black"/>
<path d="M44.5113 45.2156H39.6892V0H44.5113V45.2156Z" fill="black"/>
<path d="M59.3054 12.918H64.1275V45.2156H59.3054V12.918Z" fill="black"/>
<path d="M126.454 12.9179V17.955C127.61 16.4068 129.029 15.0897 130.701 14.0146C132.373 12.9394 134.281 12.4019 136.426 12.4019C138.571 12.4019 140.415 12.7029 141.958 13.305C143.501 13.9071 144.85 14.8102 146.011 16.0197C148.672 18.6485 150 22.1159 150 26.4165V45.2101H145.178V26.5455C145.178 23.5727 144.339 21.2074 142.667 19.4387C140.996 17.6755 138.829 16.7885 136.168 16.7885C133.464 16.7885 131.174 17.6916 129.287 19.5032C127.4 21.3525 126.46 23.7232 126.46 26.61V45.2101H121.637V12.9179H126.454Z" fill="black"/>
<path d="M2.89754 5.79507C4.4978 5.79507 5.79508 4.4978 5.79508 2.89754C5.79508 1.29727 4.4978 0 2.89754 0C1.29727 0 0 1.29727 0 2.89754C0 4.4978 1.29727 5.79507 2.89754 5.79507Z" fill="black"/>
<path d="M61.7137 5.79507C63.314 5.79507 64.6112 4.4978 64.6112 2.89754C64.6112 1.29727 63.314 0 61.7137 0C60.1134 0 58.8162 1.29727 58.8162 2.89754C58.8162 4.4978 60.1134 5.79507 61.7137 5.79507Z" fill="black"/>
<defs>
<linearGradient id="paint0_linear_92_57" x1="99.9885" y1="26.2519" x2="79.9081" y2="18.0079" gradientUnits="userSpaceOnUse">
<stop stop-color="#1DF2DC"/>
<stop offset="1" stop-color="#0045B5"/>
</linearGradient>
</defs>
</svg>
