<svg width="20" height="20" viewBox="0 0 20 20" fill="none" xmlns="http://www.w3.org/2000/svg">
<path d="M1.99998 18V12C1.99998 9.87827 2.84284 7.84344 4.34313 6.34315C5.84342 4.84285 7.87825 4 9.99998 4C12.1217 4 14.1565 4.84285 15.6568 6.34315C17.1571 7.84344 18 9.87827 18 12V18H19V20H0.999983V18H1.99998ZM3.99998 12H5.99998C5.99998 10.9391 6.42141 9.92172 7.17156 9.17157C7.9217 8.42143 8.93912 8 9.99998 8V6C8.40868 6 6.88256 6.63214 5.75734 7.75736C4.63212 8.88258 3.99998 10.4087 3.99998 12ZM8.99998 0H11V3H8.99998V0ZM17.778 2.808L19.192 4.222L17.072 6.343L15.657 4.929L17.778 2.808ZM0.807983 4.222L2.22198 2.808L4.34298 4.928L2.92998 6.344L0.807983 4.222Z" fill="white"/>
</svg>
