<svg width="15" height="23" viewBox="0 0 15 23" fill="none" xmlns="http://www.w3.org/2000/svg">
<path d="M3.5 4.5C3.5 3.43913 3.92143 2.42172 4.67157 1.67157C5.42172 0.921427 6.43913 0.5 7.5 0.5C8.56087 0.5 9.57828 0.921427 10.3284 1.67157C11.0786 2.42172 11.5 3.43913 11.5 4.5V9.755C12.723 10.6066 13.6423 11.8262 14.1241 13.2365C14.6059 14.6467 14.625 16.1739 14.1788 17.5958C13.7325 19.0176 12.8441 20.26 11.6429 21.142C10.4416 22.024 8.99026 22.4996 7.5 22.4996C6.00974 22.4996 4.55837 22.024 3.35714 21.142C2.1559 20.26 1.2675 19.0176 0.82123 17.5958C0.374962 16.1739 0.394123 14.6467 0.875923 13.2365C1.35772 11.8262 2.27702 10.6066 3.5 9.755V4.5ZM4.644 11.395C3.77017 12.0031 3.11325 12.8742 2.76885 13.8816C2.42446 14.8889 2.41058 15.9799 2.72924 16.9957C3.0479 18.0115 3.68245 18.899 4.54053 19.5291C5.39861 20.1593 6.43541 20.4991 7.5 20.4991C8.56459 20.4991 9.60139 20.1593 10.4595 19.5291C11.3175 18.899 11.9521 18.0115 12.2708 16.9957C12.5894 15.9799 12.5755 14.8889 12.2311 13.8816C11.8868 12.8742 11.2298 12.0031 10.356 11.395L9.5 10.798V4.5C9.5 3.96957 9.28929 3.46086 8.91421 3.08579C8.53914 2.71071 8.03043 2.5 7.5 2.5C6.96957 2.5 6.46086 2.71071 6.08579 3.08579C5.71071 3.46086 5.5 3.96957 5.5 4.5V10.798L4.644 11.395ZM6.5 11.626V4.5H8.5V11.626C9.44049 11.8717 10.2594 12.4514 10.8038 13.2567C11.3482 14.062 11.5809 15.0379 11.4584 16.0022C11.336 16.9665 10.8667 17.8533 10.1383 18.497C9.40985 19.1406 8.47206 19.4972 7.5 19.5C6.52573 19.501 5.58461 19.1463 4.85327 18.5026C4.12194 17.8589 3.65067 16.9705 3.52792 16.004C3.40517 15.0375 3.63939 14.0594 4.18661 13.2533C4.73383 12.4472 5.55642 11.8686 6.5 11.626ZM7.5 17.5C8.03043 17.5 8.53914 17.2893 8.91421 16.9142C9.28929 16.5391 9.5 16.0304 9.5 15.5C9.5 14.9696 9.28929 14.4609 8.91421 14.0858C8.53914 13.7107 8.03043 13.5 7.5 13.5C6.96957 13.5 6.46086 13.7107 6.08579 14.0858C5.71071 14.4609 5.5 14.9696 5.5 15.5C5.5 16.0304 5.71071 16.5391 6.08579 16.9142C6.46086 17.2893 6.96957 17.5 7.5 17.5Z" fill="#007C84"/>
</svg>
