<svg width="16" height="17" viewBox="0 0 16 17" fill="none" xmlns="http://www.w3.org/2000/svg">
<path d="M8 1.5C9.32894 1.5 10.4062 2.57731 10.4062 3.90625L10.4063 9.83452C10.9867 10.436 11.3438 11.2544 11.3438 12.1562C11.3438 14.003 9.8467 15.5 8 15.5C6.1533 15.5 4.65625 14.003 4.65625 12.1562C4.65625 11.2544 5.01328 10.4359 5.59372 9.8345L5.59375 3.90625C5.59375 2.57731 6.67106 1.5 8 1.5ZM8 2.5C7.23111 2.5 6.60636 3.11708 6.59394 3.883L6.59375 3.90625L6.59372 10.2383L6.31328 10.5289C5.89384 10.9635 5.65625 11.5399 5.65625 12.1562C5.65625 13.4507 6.70558 14.5 8 14.5C9.29442 14.5 10.3438 13.4507 10.3438 12.1562C10.3438 11.5461 10.1109 10.9751 9.69927 10.542L9.68673 10.529L9.4063 10.2384L9.40625 3.90625C9.40625 3.12959 8.77666 2.5 8 2.5Z" fill="black"/>
<path d="M7.09375 12.1562C7.09375 12.3966 7.18923 12.6271 7.35918 12.7971C7.52914 12.967 7.75965 13.0625 8 13.0625C8.24035 13.0625 8.47086 12.967 8.64082 12.7971C8.81077 12.6271 8.90625 12.3966 8.90625 12.1562C8.90625 11.9159 8.81077 11.6854 8.64082 11.5154C8.47086 11.3455 8.24035 11.25 8 11.25C7.75965 11.25 7.52914 11.3455 7.35918 11.5154C7.18923 11.6854 7.09375 11.9159 7.09375 12.1562Z" fill="black"/>
<path d="M8 5.5C8.33333 5.5 8.5 5.66667 8.5 6V11.6562C8.5 11.9896 8.33333 12.1562 8 12.1562C7.66667 12.1562 7.5 11.9896 7.5 11.6562V6C7.5 5.66667 7.66667 5.5 8 5.5Z" fill="black"/>
<path d="M8 4.81252C8.27614 4.81252 8.5 4.58866 8.5 4.31252C8.5 4.14846 8.36766 3.87419 8.10297 3.48968C8.09148 3.47298 8.0761 3.45933 8.05817 3.4499C8.04023 3.44047 8.02027 3.43555 8 3.43555C7.97973 3.43555 7.95977 3.44047 7.94183 3.4499C7.9239 3.45933 7.90852 3.47298 7.89703 3.48968C7.63234 3.87419 7.5 4.14846 7.5 4.31252C7.5 4.58866 7.72386 4.81252 8 4.81252Z" fill="black"/>
</svg>
