<svg width="14" height="14" viewBox="0 0 14 14" fill="none" xmlns="http://www.w3.org/2000/svg">
<path d="M5.99998 10.3325H1.66665V8.9992H5.99998C6.42581 8.99936 6.84348 9.11604 7.20774 9.3366C7.572 9.55717 7.86895 9.87321 8.06642 10.2505C8.26389 10.6278 8.35436 11.0519 8.32801 11.4769C8.30166 11.9019 8.15951 12.3116 7.91695 12.6616C7.6744 13.0116 7.34068 13.2886 6.95198 13.4625C6.56327 13.6363 6.13438 13.7006 5.71179 13.6481C5.2892 13.5957 4.88902 13.4286 4.55461 13.165C4.22019 12.9013 3.9643 12.5512 3.81465 12.1525L5.06331 11.6839C5.12743 11.8547 5.23709 12.0048 5.3804 12.1178C5.52371 12.2308 5.69521 12.3024 5.87632 12.3249C6.05743 12.3474 6.24124 12.3199 6.40784 12.2454C6.57444 12.1709 6.71747 12.0522 6.82143 11.9022C6.9254 11.7522 6.98634 11.5766 6.99764 11.3945C7.00895 11.2123 6.97019 11.0306 6.88557 10.8689C6.80095 10.7072 6.67369 10.5717 6.51759 10.4772C6.36148 10.3826 6.18248 10.3326 5.99998 10.3325ZM2.33331 6.33254H11.3333C11.7591 6.33269 12.1768 6.44937 12.5411 6.66994C12.9053 6.8905 13.2023 7.20655 13.3998 7.58382C13.5972 7.9611 13.6877 8.38522 13.6613 8.81024C13.635 9.23525 13.4928 9.64496 13.2503 9.99495C13.0077 10.345 12.674 10.6219 12.2853 10.7958C11.8966 10.9697 11.4677 11.0339 11.0451 10.9814C10.6225 10.929 10.2224 10.7619 9.88794 10.4983C9.55352 10.2347 9.29763 9.88454 9.14798 9.48587L10.3966 9.0172C10.4608 9.18807 10.5704 9.33813 10.7137 9.45113C10.857 9.56413 11.0285 9.63575 11.2097 9.65825C11.3908 9.68074 11.5746 9.65324 11.7412 9.57873C11.9078 9.50422 12.0508 9.38554 12.1548 9.23554C12.2587 9.08555 12.3197 8.90997 12.331 8.72782C12.3423 8.54567 12.3035 8.36389 12.2189 8.2022C12.1343 8.0405 12.007 7.90504 11.8509 7.8105C11.6948 7.71596 11.5158 7.66595 11.3333 7.66587H2.33331C1.80288 7.66587 1.29417 7.45516 0.9191 7.08008C0.544027 6.70501 0.333313 6.1963 0.333313 5.66587C0.333313 5.13544 0.544027 4.62673 0.9191 4.25166C1.29417 3.87658 1.80288 3.66587 2.33331 3.66587H7.99998C8.18248 3.66579 8.36148 3.61578 8.51759 3.52124C8.67369 3.4267 8.80095 3.29124 8.88557 3.12954C8.97019 2.96785 9.00895 2.78607 8.99764 2.60392C8.98634 2.42177 8.9254 2.24619 8.82143 2.0962C8.71747 1.9462 8.57444 1.82752 8.40784 1.75301C8.24124 1.6785 8.05743 1.651 7.87632 1.67349C7.69521 1.69599 7.52371 1.76761 7.3804 1.88061C7.23709 1.99361 7.12743 2.14367 7.06331 2.31454L5.81465 1.84654C6.00696 1.33507 6.37263 0.907297 6.84794 0.637743C7.32325 0.36819 7.87807 0.273947 8.41573 0.371436C8.95339 0.468925 9.4398 0.751966 9.79021 1.17124C10.1406 1.59052 10.3328 2.11945 10.3333 2.66587C10.3333 3.28471 10.0875 3.8782 9.6499 4.31579C9.21231 4.75337 8.61882 4.9992 7.99998 4.9992H2.33331C2.1565 4.9992 1.98693 5.06944 1.86191 5.19447C1.73688 5.31949 1.66665 5.48906 1.66665 5.66587C1.66665 5.84268 1.73688 6.01225 1.86191 6.13727C1.98693 6.2623 2.1565 6.33254 2.33331 6.33254Z" fill="white"/>
</svg>
