<svg width="18" height="20" viewBox="0 0 18 20" fill="none" xmlns="http://www.w3.org/2000/svg">
<path fill-rule="evenodd" clip-rule="evenodd" d="M0 6.60329L9 0.25L18 6.60329V19.4105H10.4211V14.6737H7.57895V19.4105H0V6.60329ZM12.3158 17.5158H16.1053V7.58618L9 2.57105L1.89474 7.58618V17.5158H5.68421V12.7789H12.3158V17.5158ZM6.15789 8.51579C6.15789 6.94967 7.43388 5.67368 9 5.67368C10.5661 5.67368 11.8421 6.94671 11.8421 8.51579C11.8421 10.0819 10.5661 11.3579 9 11.3579C7.43388 11.3579 6.15789 10.0819 6.15789 8.51579ZM7.57895 8.51579C7.57895 9.30033 8.21546 9.93684 9 9.93684C9.78454 9.93684 10.4211 9.30033 10.4211 8.51579C10.4211 7.73125 9.78454 7.09474 9 7.09474C8.21546 7.09474 7.57895 7.73125 7.57895 8.51579Z" fill="#007C84"/>
</svg>
