<svg width="24" height="24" viewBox="0 0 24 24" fill="none" xmlns="http://www.w3.org/2000/svg">
<path d="M12 1.52344C17.7861 1.52344 22.4766 6.21396 22.4766 12C22.4802 14.2597 21.7498 16.4595 20.3953 18.2683C18.4808 20.8215 15.4301 22.4766 12 22.4766H11.997C8.58229 22.4756 5.54418 20.8342 3.62882 18.2997C2.25925 16.4853 1.51995 14.2732 1.52345 12C1.52345 6.21396 6.21397 1.52344 12 1.52344ZM12 20.9039C16.9151 20.9039 20.9139 16.906 20.9139 11.9919C20.9139 7.07784 16.9151 3.0799 12 3.0799C7.08491 3.0799 3.08612 7.0778 3.08612 11.9919C3.08612 16.9059 7.08486 20.9039 12 20.9039ZM6.12639 8.32205C6.25994 8.32222 6.39124 8.35638 6.50794 8.42132C6.62463 8.48626 6.72288 8.57984 6.79342 8.69324C6.86395 8.80664 6.90446 8.93613 6.91112 9.06952C6.91779 9.2029 6.89039 9.33578 6.8315 9.45565C6.44238 10.2443 6.24114 11.1124 6.24355 11.9919C6.24355 15.1653 8.82585 17.7471 12 17.7471C15.1741 17.7471 17.7563 15.1653 17.7563 11.9919C17.7587 11.1124 17.5575 10.2443 17.1683 9.45565C17.0774 9.26861 17.0643 9.05319 17.1319 8.85651C17.1994 8.65982 17.342 8.49789 17.5287 8.40612C17.7153 8.31434 17.9306 8.30021 18.1276 8.3668C18.3246 8.43339 18.4872 8.57528 18.5799 8.76145C19.0757 9.76597 19.3322 10.8716 19.3293 11.9919C19.3293 16.0325 16.0414 19.3198 11.9999 19.3198C7.95847 19.3198 4.67057 16.0325 4.67057 11.9919C4.66768 10.8716 4.9242 9.76597 5.42003 8.76145C5.48493 8.62951 5.58552 8.5184 5.71037 8.44073C5.83522 8.36307 5.97935 8.32195 6.12639 8.32205ZM12 14.3509C11.4434 14.351 10.9047 14.1544 10.4792 13.7957C10.0536 13.437 9.76853 12.9394 9.6744 12.3908C9.58027 11.8423 9.68312 11.2781 9.96476 10.7981C10.2464 10.318 10.6887 9.95299 11.2135 9.76755V5.43895C11.2135 5.23036 11.2964 5.0303 11.4439 4.8828C11.5914 4.7353 11.7914 4.65244 12 4.65244C12.2086 4.65244 12.4087 4.7353 12.5562 4.8828C12.7037 5.0303 12.7865 5.23036 12.7865 5.43895V9.76755C13.3113 9.95299 13.7536 10.318 14.0353 10.7981C14.3169 11.2781 14.4198 11.8423 14.3256 12.3908C14.2315 12.9394 13.9464 13.437 13.5209 13.7957C13.0953 14.1544 12.5566 14.351 12 14.3509ZM12 11.2056C11.8445 11.2056 11.6925 11.2518 11.5632 11.3382C11.4339 11.4246 11.3331 11.5475 11.2736 11.6912C11.2141 11.8348 11.1986 11.9929 11.229 12.1455C11.2593 12.298 11.3342 12.4381 11.4442 12.5481C11.5542 12.658 11.6943 12.7329 11.8468 12.7632C11.9994 12.7935 12.1575 12.778 12.3011 12.7184C12.4448 12.6589 12.5676 12.5581 12.654 12.4288C12.7404 12.2995 12.7865 12.1475 12.7865 11.992C12.7863 11.7834 12.7034 11.5835 12.5559 11.4361C12.4085 11.2886 12.2085 11.2057 12 11.2055V11.2056Z" fill="white"/>
</svg>
