<svg width="32" height="32" viewBox="0 0 32 32" fill="none" xmlns="http://www.w3.org/2000/svg">
<rect width="32" height="32" rx="16" fill="#F5FAFA"/>
<path d="M16 8C11.5808 8 8 11.5808 8 16C8 20.4192 11.5808 24 16 24C20.4192 24 24 20.4192 24 16C24 11.5808 20.4192 8 16 8ZM16 23.3346C11.9577 23.3346 8.66538 20.0462 8.66538 16C8.66538 11.9577 11.9538 8.66538 16 8.66538C20.0423 8.66538 23.3346 11.9538 23.3346 16C23.3346 20.0423 20.0423 23.3346 16 23.3346Z" fill="#007C84" stroke="#007C84" stroke-width="0.5"/>
<path d="M16.1385 11.7695C14.4769 11.7695 13.55 12.5503 13.5385 14.1618H14.2615C14.2385 12.9926 14.8577 12.3734 16.1038 12.3734C16.9961 12.3734 17.7423 12.9965 17.7423 13.9041C17.7423 14.4926 17.4231 14.9695 16.9961 15.3695C16.1269 16.1695 15.8808 16.7541 15.8385 17.8503H16.5692C16.6115 16.858 16.5885 16.6695 17.4654 15.8003C18.05 15.2541 18.4615 14.7118 18.4615 13.8695C18.4615 12.5541 17.4077 11.7695 16.1385 11.7695ZM16.1654 18.9349C15.8038 18.9349 15.5115 19.2234 15.5115 19.5811C15.5115 19.9388 15.8038 20.2311 16.1654 20.2311C16.5269 20.2311 16.8192 19.9426 16.8192 19.5811C16.8192 19.2234 16.5269 18.9349 16.1654 18.9349Z" fill="#007C84" stroke="#007C84" stroke-width="0.5"/>
</svg>
