<svg width="24" height="24" viewBox="0 0 24 24" fill="none" xmlns="http://www.w3.org/2000/svg">
<path d="M13.3333 21.3327H1.33331V2.66602H18.6666V11.9993H17.3333V3.99935H2.66665V19.9993H12L13.3333 21.3327Z" fill="#007C84"/>
<path d="M16.6667 12.0007C19.2 12.0007 21.3333 14.134 21.3333 16.6673C21.3333 19.2006 19.2 21.334 16.6667 21.334C14.1333 21.334 12 19.2006 12 16.6673C12 14.134 14.1333 12.0007 16.6667 12.0007ZM16.6667 10.6673C13.3333 10.6673 10.6667 13.334 10.6667 16.6673C10.6667 20.0007 13.3333 22.6673 16.6667 22.6673C20 22.6673 22.6667 20.0007 22.6667 16.6673C22.6667 13.334 20 10.6673 16.6667 10.6673ZM5.33333 1.33398H6.66667V5.33398H5.33333V1.33398ZM13.3333 1.33398H14.6667V5.33398H13.3333V1.33398ZM4 8.00065H16V9.33398H4V8.00065ZM4 12.0007H10.6667V13.334H4V12.0007ZM4 16.0007H9.33333V17.334H4V16.0007Z" fill="#007C84"/>
<path d="M20 18.6673H16V13.334H17.3333V17.334H20V18.6673Z" fill="#007C84"/>
</svg>
