<svg width="24" height="24" viewBox="0 0 24 24" fill="none" xmlns="http://www.w3.org/2000/svg">
<path d="M21.1875 6.09375H17.25V4.78125C17.25 4.05703 16.6617 3.46875 15.9375 3.46875H8.0625C7.33828 3.46875 6.75 4.05703 6.75 4.78125V6.09375H2.8125C2.08828 6.09375 1.5 6.68203 1.5 7.40625V19.2188C1.5 19.943 2.08828 20.5312 2.8125 20.5312H21.1875C21.9117 20.5312 22.5 19.943 22.5 19.2188V7.40625C22.5 6.68203 21.9117 6.09375 21.1875 6.09375ZM8.0625 4.78125H15.9375V6.09375H8.0625V4.78125ZM21.1875 19.2188H2.8125V13.9688H10.0312V14.625C10.0312 15.3492 10.6195 15.9375 11.3438 15.9375H12.6562C13.3805 15.9375 13.9688 15.3492 13.9688 14.625V13.9688H21.1875V19.2188ZM11.3438 14.625V12H12.6562V14.625H11.3438ZM13.9688 12.6562V12C13.9688 11.2758 13.3805 10.6875 12.6562 10.6875H11.3438C10.6195 10.6875 10.0312 11.2758 10.0312 12V12.6562H2.8125V7.40625H21.1875V12.6562H13.9688Z" fill="#007C84"/>
</svg>
