<svg width="25" height="24" viewBox="0 0 25 24" fill="none" xmlns="http://www.w3.org/2000/svg">
<path d="M7.14018 9.23178C6.71591 8.87821 6.08534 8.93554 5.73178 9.35982C5.37821 9.78409 5.43554 10.4147 5.85982 10.7682L7.14018 9.23178ZM12.5 15L11.8598 15.7682C12.2307 16.0773 12.7693 16.0773 13.1402 15.7682L12.5 15ZM19.1402 10.7682C19.5645 10.4147 19.6218 9.78409 19.2682 9.35982C18.9147 8.93554 18.2841 8.87821 17.8598 9.23178L19.1402 10.7682ZM5.85982 10.7682L11.8598 15.7682L13.1402 14.2318L7.14018 9.23178L5.85982 10.7682ZM13.1402 15.7682L19.1402 10.7682L17.8598 9.23178L11.8598 14.2318L13.1402 15.7682Z" fill="#737898"/>
</svg>
