<svg width="24" height="24" viewBox="0 0 24 24" fill="none" xmlns="http://www.w3.org/2000/svg">
<g clip-path="url(#clip0_2661_6070)">
<path fill-rule="evenodd" clip-rule="evenodd" d="M14.9575 7.40969C17.2461 9.80618 17.1586 13.6042 14.7621 15.8927C12.3657 18.1813 8.56767 18.0938 6.27911 15.6973C3.99054 13.3008 4.07803 9.50285 6.47451 7.21429C8.87099 4.92572 12.669 5.01321 14.9575 7.40969ZM16.8239 16.6037C19.338 13.5224 19.2215 8.97881 16.4039 6.02842C13.3525 2.83311 8.28855 2.71646 5.09324 5.76788C1.89793 8.8193 1.78128 13.8833 4.8327 17.0786C7.65023 20.029 12.1836 20.3546 15.3775 17.985L17.4921 20.1994C17.8735 20.5988 18.5065 20.6134 18.906 20.2319C19.3054 19.8505 19.3199 19.2175 18.9385 18.8181L16.8239 16.6037Z" fill="#B2B2B2"/>
</g>
<defs>
<clipPath id="clip0_2661_6070">
<rect width="24" height="24" fill="white"/>
</clipPath>
</defs>
</svg>
