<svg width="86" height="86" viewBox="0 0 86 86" fill="none" xmlns="http://www.w3.org/2000/svg">
<path d="M43.6914 62.2763C43.6914 62.2763 3.22441 74.6321 3.13707 75.5257C3.04972 76.4193 19.336 83.6017 46.5536 83.2254C72.5149 82.8693 82.546 76.2446 82.7207 75.5257C82.8954 74.8068 44.585 62.0949 43.6914 62.2763Z" fill="#88B154"/>
<path d="M41.8309 28.3193L38.9351 24.6777C38.9351 24.6777 34.2588 29.5824 32.9957 30.9195C31.7326 32.2565 30.7584 33.0291 30.1537 34.2855C29.287 36.0794 26.539 51.5662 26.539 51.5662L18.5907 59.7294C18.5907 59.7294 17.0924 58.7955 16.7229 59.0979C16.3534 59.4002 4.17898 73.9127 4.17898 73.9127L3.13086 75.5185C3.13086 75.5185 5.54961 76.056 6.29539 75.9821C6.6582 75.9485 8.44539 75.5387 10.4677 75.3304C12.5976 75.1087 15.3187 75.2901 15.621 75.2565C15.9637 75.2229 17.1462 74.8735 17.1462 74.8735L27.7215 68.5646L36.1199 68.2421L44.3571 69.9755L59.9513 70.7213L68.4909 57.949L49.9269 33.3651L41.8309 28.3193Z" fill="#9EA2A3"/>
<path d="M19.1827 65.689C19.1827 65.689 18.8938 64.8626 18.6788 64.2512C18.4638 63.6398 18.5914 59.7295 18.5914 59.7295C18.5914 59.7295 23.4356 62.5917 23.9731 63.062C24.5106 63.5323 29.3078 66.5221 29.3078 66.5221L32.1969 66.4482L32.7814 67.745C32.7814 67.745 28.6225 69.7203 27.2519 70.157C25.8813 70.587 17.0999 75.055 17.1133 74.887C17.1402 74.5376 19.3977 71.3059 19.3977 71.3059L19.1827 65.689Z" fill="#717A7C"/>
<path d="M54.2411 69.5125L21.1445 74.7397C21.1445 74.7397 19.5455 76.1573 19.7067 76.5336C19.868 76.9098 25.9753 78.0453 28.085 78.3141C30.1947 78.5828 44.6199 79.3958 46.1853 79.2883C47.7508 79.1808 63.7481 78.3678 65.9653 78.0991C68.1825 77.8303 75.6336 77.313 76.1241 77.0912C77.0714 76.6612 81.4185 74.3164 81.4185 74.3164C81.4185 74.3164 76.5541 66.6436 75.5799 64.8027C74.6056 62.9684 72.9864 59.6695 71.851 58.5341C70.7155 57.3986 69.9025 56.9148 69.9025 56.9148C69.9025 56.9148 68.3706 53.3539 66.5835 51.083C64.803 48.812 62.3641 45.1369 61.793 44.5725C59.6497 42.4359 59.5892 42.2344 59.5892 42.2344L60.933 58.4266C60.933 58.4266 58.447 63.3984 57.5803 64.7489C56.727 66.1128 54.2411 69.5125 54.2411 69.5125Z" fill="#798082"/>
<path d="M42.349 18.5576L41.6973 31.7398L49.3634 36.4967C49.3634 36.4967 51.6679 42.4024 51.7754 42.9466C51.8829 43.4841 51.6746 44.9421 51.8896 45.3184C52.1046 45.6946 56.0754 48.4291 56.2299 48.4359C57.1101 48.4829 58.9309 48.1671 58.8234 48.0059C58.7159 47.8446 59.549 44.3374 59.549 44.3374C59.549 44.3374 54.2815 35.7979 53.146 33.4195C52.0105 31.041 47.7441 24.8799 47.2537 23.852C46.7632 22.824 44.4452 19.4176 43.9548 18.8801C43.4643 18.3426 42.6782 18.1813 42.349 18.5576Z" fill="#717A7C"/>
<path d="M45.7015 43.705C45.7015 43.705 49.3229 37.7388 49.4304 36.825C49.5379 35.9113 46.5145 30.3414 45.7553 28.3393C44.9961 26.3371 43.0006 22.2319 42.7856 21.6944C42.5706 21.1569 42.3556 18.5635 42.3556 18.5635C42.3556 18.5635 40.8439 20.1827 40.2996 21.4794C39.7621 22.7761 37.7264 25.9675 37.7264 25.9675C37.7264 25.9675 39.0029 33.3716 39.4934 36.5563C39.9771 39.7477 40.34 43.9335 40.2661 44.088C39.8025 45.0286 36.685 52.6074 36.685 52.6074C36.685 52.6074 36.2818 56.2825 36.6581 56.6588C37.0343 57.035 39.2179 57.5322 39.3859 57.2769C39.7151 56.7864 39.7084 54.9254 39.7084 54.9254C39.7084 54.9254 45.7687 46.7419 45.9636 46.3388C46.0375 46.1843 45.7015 43.705 45.7015 43.705ZM33.3525 44.2896C33.3323 43.4766 32.1431 39.62 31.9281 38.7533C31.7131 37.8866 31.2562 33.6068 30.6582 33.6068C30.067 33.6068 27.3257 41.1452 27.0503 41.8507C26.7815 42.5561 22.9451 50.8202 22.4546 51.7944C21.9709 52.7686 19.7537 56.9813 19.3237 57.6868C18.8937 58.3922 18.3226 59.5882 18.3226 59.5882L29.3011 66.5286L33.2651 66.0785C33.2651 66.0785 30.9471 59.8502 30.4029 58.446C29.8587 57.0418 29.2137 54.7708 29.2137 54.7708C29.2137 54.7708 30.4701 51.7608 31.2898 49.5974C32.1162 47.4205 33.3793 45.0958 33.3525 44.2896ZM17.0125 59.1044C17.0393 59.2052 17.1804 61.7382 17.1065 63.2499C17.0326 64.7683 16.737 66.2868 16.737 66.2868L11.8457 71.393L11.6912 72.5419C11.6912 72.5419 4.26027 75.169 3.77652 75.3168C3.29277 75.4646 3.13824 75.5183 3.13824 75.5183C3.13824 75.5183 2.13043 74.9069 5.14715 71.6147C9.04402 67.3618 14.0293 61.5366 14.6609 60.8043C15.7829 59.5075 16.9386 58.8021 17.0125 59.1044Z" fill="#C0C0C0"/>
<path d="M71.6952 67.0664C71.2921 66.8985 70.2641 71.4471 70.0491 73.0528C69.8341 74.6586 69.263 77.7089 69.4108 78.0113C69.8408 78.8646 74.423 78.3002 74.8665 77.5678C74.9941 77.3596 74.3491 73.9397 73.8855 72.4952C73.254 70.5199 72.7366 67.5032 71.6952 67.0664ZM79.7241 61.3353C79.0926 61.3622 78.4207 66.8783 78.0041 68.081C77.5338 69.4449 75.9616 75.9016 76.6133 76.6407C77.2651 77.3797 79.7577 76.7952 80.6849 76.5264C81.5785 76.2711 82.3512 75.8411 82.5662 75.3641C82.7812 74.8871 82.2705 71.0372 81.6524 68.3497C81.0208 65.6286 80.7185 61.2883 79.7241 61.3353Z" fill="#33632C"/>
<path d="M21.1436 74.7461C21.1436 74.7461 22.8838 75.4045 28.8433 75.7741C34.8028 76.1436 37.7322 76.11 37.7322 76.11L51.3444 74.1212L54.435 69.23C54.435 69.23 50.3232 69.0755 48.1396 69.0016C45.956 68.9277 42.6974 68.9142 42.5496 68.5111C42.4018 68.1012 46.2247 65.3264 47.2997 64.7755C48.3747 64.2178 50.9682 63.9222 51.5594 63.2973C52.1507 62.6658 59.6219 58.4531 60.5424 58.4195C61.4696 58.3792 64.3586 60.1597 64.9096 59.9716C65.4672 59.7834 62.988 53.2259 62.6588 51.9964C62.6319 51.8889 61.3217 45.4994 61.2814 45.3784C60.9724 44.4311 60.025 41.972 59.4271 42.2677C58.8358 42.5633 57.8347 44.8208 57.0957 47.0783C56.3566 49.3358 55.9132 50.525 55.5436 51.0759C55.1741 51.6269 50.8808 54.3748 50.2828 54.9997C49.6916 55.6313 47.9111 56.9616 46.8361 57.405C45.7611 57.8484 44.7264 57.8484 43.9471 58.5539C43.1677 59.2594 42.2069 60.4822 41.1319 61.6244C40.0569 62.7733 37.8733 65.407 37.1544 66.052C36.4355 66.697 35.7905 67.3219 35.7905 67.3219C35.7905 67.3219 30.5969 68.7933 28.85 69.6398C27.1166 70.4931 20.6935 74.6319 21.1436 74.7461Z" fill="#C0C0C0"/>
<path d="M75.1086 34.9513C74.5375 35.5224 74.5174 36.4294 75.1489 36.9468C75.7066 37.4104 76.627 37.108 76.9697 36.6914C77.3124 36.2749 77.272 35.3679 76.8152 34.911C76.3583 34.4541 75.4513 34.6086 75.1086 34.9513Z" fill="white"/>
<path opacity="0.5" d="M75.2974 43.4503C74.686 44.1221 74.8876 45.1232 75.4519 45.4928C76.0163 45.8623 76.8629 45.8287 77.2794 45.3181C77.649 44.8612 77.6893 43.9474 77.1249 43.3831C76.6344 42.8926 75.6938 43.0135 75.2974 43.4503Z" fill="white"/>
<path opacity="0.6" d="M57.7817 21.54C57.607 22.0977 57.9564 22.7292 58.4872 22.8233C59.0449 22.9241 59.616 22.7628 59.7705 22.232C59.925 21.6945 59.7302 21.0227 58.9642 20.8883C58.1983 20.7539 57.8691 21.2377 57.7817 21.54Z" fill="white"/>
<path d="M63.5185 30.9799C63.5185 30.9799 64.0157 29.1524 64.3785 29.092C64.7413 29.0315 65.4669 31.0538 65.4669 31.0538C65.4669 31.0538 67.2743 31.1143 67.3347 31.3965C67.3952 31.6854 66.0582 32.7671 66.0582 32.7671C66.0582 32.7671 66.5554 34.4602 66.3471 34.6752C66.1388 34.8835 64.4793 33.8152 64.4793 33.8152C64.4793 33.8152 62.9944 35.0716 62.6518 34.8432C62.3091 34.6148 62.9407 32.7268 62.9407 32.7268C62.9407 32.7268 61.5297 31.719 61.5096 31.3763C61.4827 31.0337 63.5185 30.9799 63.5185 30.9799ZM22.5341 25.9476C22.5341 25.9476 23.1858 24.0731 23.5823 24.0529C23.9719 24.0327 24.543 25.9274 24.543 25.9274C24.543 25.9274 26.478 25.9476 26.6124 26.2298C26.7804 26.5926 25.3694 27.8221 25.3694 27.8221C25.3694 27.8221 25.8263 29.6496 25.6113 29.8713C25.3694 30.1132 23.6965 29.1524 23.6965 29.1524C23.6965 29.1524 21.9765 30.3484 21.6069 30.0259C21.2844 29.7437 21.9563 27.802 21.9563 27.802C21.9563 27.802 20.3438 26.6262 20.4312 26.297C20.5454 25.8401 22.5341 25.9476 22.5341 25.9476Z" fill="white"/>
<path opacity="0.5" d="M7.96773 30.9802C7.56461 30.9601 7.01367 31.3632 7.01367 32.0552C7.01367 32.5658 7.50414 32.9891 7.92742 32.9891C8.53883 32.9891 8.96211 32.5255 8.94195 31.9947C8.91508 31.3027 8.39102 31.0004 7.96773 30.9802Z" fill="white"/>
<path d="M12.4101 41.0042C12.4504 41.7702 12.8334 42.4219 13.8277 42.395C14.8221 42.3681 15.6418 40.843 14.6945 39.9494C13.7471 39.0558 12.3563 39.9763 12.4101 41.0042ZM5.81227 50.3769C6.28258 50.9009 7.41133 50.6927 7.4382 49.7722C7.46508 48.9323 7.0418 48.5359 6.2557 48.6434C5.47633 48.7509 5.24117 49.7386 5.81227 50.3769ZM19.1221 60.7103L17.8926 59.1516L15.494 60.2534L9.91742 69.27L11.8255 71.42C11.8255 71.42 16.4951 68.8534 16.9923 68.7527C17.7381 68.5981 20.2374 68.6989 20.2374 68.6989L19.1221 60.7103Z" fill="white"/>
<path d="M19.3037 68.6856L23.0797 68.7528C23.0797 68.7528 27.1109 70.0092 28.8578 69.6397C30.6047 69.2702 32.58 67.6577 32.58 67.6577C32.58 67.6577 34.1052 67.0395 33.3459 66.1594C33.1713 65.9578 32.0291 65.642 28.9183 64.8627C25.8075 64.0833 25.4044 63.4786 25.4044 63.4786C25.4044 63.4786 21.783 60.9658 20.4863 59.9916C19.1895 59.0173 17.9062 59.0039 17.9062 59.0039C17.9062 59.0039 18.7394 62.0811 18.9275 63.9288C19.1089 65.7764 19.3037 68.6856 19.3037 68.6856Z" fill="#8CC2EA"/>
<path d="M3.87024 73.1937C3.39993 73.7648 6.81978 72.7369 8.12993 72.4211C9.8029 72.018 11.8387 71.4065 11.8387 71.4065L12.3762 67.3215C12.3762 67.3215 15.8766 61.0328 16.3335 60.5087C16.7904 59.9847 18.5641 59.1045 18.5641 59.1045C18.5641 59.1045 17.5026 58.5737 16.7702 58.5334C15.5273 58.4662 13.1556 61.2276 11.9193 62.8469C10.6898 64.4661 8.54649 67.3887 8.54649 67.3887C8.54649 67.3887 7.5454 67.6575 6.52415 69.0953C4.98556 71.2722 3.87024 73.1937 3.87024 73.1937Z" fill="#C6E4F7"/>
<path d="M26.7406 60.8653C26.2837 60.8183 25.7059 62.3434 25.3968 63.4789C25.1751 64.2784 23.744 68.3298 23.576 69.1159C23.4013 69.9088 22.5145 72.2469 22.7563 72.3544C22.9982 72.4552 23.7843 72.6366 24.2009 72.4686C24.3084 72.4283 25.7663 71.4205 26.8212 70.7889C27.876 70.1573 28.9174 69.5863 28.9174 69.5459C28.9174 69.1361 28.1112 65.3602 28.0238 64.8563C27.7753 63.4117 27.4528 60.9392 26.7406 60.8653Z" fill="#33632C"/>
<path d="M30.8456 62.3833C30.4492 62.5177 29.9587 64.0496 29.4951 65.6352C29.1995 66.6363 28.3395 69.6396 28.5478 69.7874C28.7561 69.9352 30.7919 69.9621 31.6519 69.5321C32.4783 69.1155 33.0695 68.5914 33.177 68.2958C33.2845 68.0002 32.3439 65.3933 31.9811 64.4393C31.6989 63.7204 31.2622 62.2355 30.8456 62.3833Z" fill="#33632C"/>
<path d="M31.3035 47.334L22.9991 50.6463L22.334 52.0774C22.334 52.0774 23.624 53.522 24.5243 54.4962C25.3037 55.336 27.3865 56.4513 27.756 57.2038C28.4816 58.682 31.3237 60.2004 32.7413 60.9126C34.159 61.6248 34.2195 60.7916 34.2195 60.7916L31.3035 47.334ZM34.8443 66.8318L33.1915 68.0345C33.1915 68.0345 34.972 69.2237 36.2888 69.6201C37.6057 70.0165 39.7154 70.8026 41.9527 71.199C44.1901 71.5954 46.2998 71.3334 47.7443 71.461C49.1955 71.5954 52.1518 73.0601 52.1518 73.0601C52.1518 73.0601 52.7766 71.7768 53.4015 70.8899C54.0263 70.0098 54.2346 69.5193 54.2346 69.5193L48.5505 68.283L34.8443 66.8318Z" fill="#9EA2A3"/>
<path d="M51.4117 71.2391C50.928 71.2795 50.2494 74.9076 50.0075 75.7138C49.8731 76.1707 48.7511 79.2949 49.0534 79.819C49.6581 80.894 54.63 80.6051 54.8517 80.0407C55.0667 79.4763 53.4341 75.7004 53.1317 75.0016C52.8227 74.3163 52.1239 71.1787 51.4117 71.2391Z" fill="#33632C"/>
<path d="M30.8595 33.2108L23.5293 51.1768C23.5293 51.1768 23.9862 51.8889 24.6312 52.6683C25.2829 53.4477 27.6815 55.3894 28.4609 55.9739C29.2402 56.5585 29.3074 57.0758 30.2749 57.7275C31.2491 58.3793 34.7496 60.0657 35.9859 60.7107L39.2915 62.4643C39.2915 62.4643 37.2154 64.6075 36.6309 65.4474C36.0463 66.294 35.5491 67.1136 35.5491 67.1136L46.2924 68.753C46.2924 68.753 65.0243 60.368 64.9034 59.9582C64.7824 59.5483 64.1307 50.4646 63.741 50.0077C63.3513 49.5508 59.394 43.1949 59.394 43.1949L55.4366 42.6104L49.2084 30.8055L42.6576 20.1025L38.1829 27.043L35.7843 31.4505L30.8595 33.2108Z" fill="white"/>
<path d="M39.3588 58.567C39.2849 59.0171 40.4607 60.9051 40.978 60.8379C41.4954 60.7707 44.5457 58.1168 45.325 57.5928C46.1044 57.0754 50.6463 54.1528 51.681 53.5078C52.7157 52.856 55.4435 50.4776 55.6383 50.1349C55.8936 49.6714 56.7066 45.499 56.8679 44.9481C56.9418 44.7062 58.4804 43.4968 58.6483 43.7051C58.9843 44.1149 60.4355 48.126 60.758 49.2279C61.0805 50.3298 63.029 58.1168 63.1566 58.6342C63.3515 59.4001 64.7758 60.8379 65.9449 60.1257C67.114 59.4135 70.3188 58.1303 70.695 57.5189C70.8966 57.1964 68.1285 53.1315 66.6436 51.0084C65.1588 48.8853 63.7815 46.6546 62.4108 44.7532C61.2888 43.1945 60.59 42.227 59.8443 41.8306C59.0918 41.4342 58.4535 42.3546 58.4535 42.3546C58.4535 42.3546 52.971 32.8745 51.9968 31.1881C51.0225 29.5017 45.8693 21.4056 44.586 19.5445C43.7461 18.3217 43.2221 17.9656 42.436 18.4157C41.6499 18.8592 42.0732 22.1715 42.0732 22.1715C42.0732 22.1715 49.4168 36.2271 49.0808 37.1543C48.7382 38.0815 46.0305 43.0601 44.539 46.0432C43.0541 49.0331 39.5536 57.4046 39.3588 58.567Z" fill="#8CC2EA"/>
<path d="M31.5318 34.6618C32.0693 33.8556 36.6985 44.2965 37.8676 44.4242C39.0367 44.5518 39.816 36.449 39.6817 34.6282C39.554 32.8142 39.6817 26.7807 40.199 25.484C40.7164 24.1873 42.0803 22.1784 42.0803 22.1784C42.0803 22.1784 42.8395 20.5659 42.9134 20.1359C43.1351 18.8929 42.8395 18.2412 42.8395 18.2412C42.8395 18.2412 42.0803 18.4159 41.3614 19.3901C40.6492 20.3643 37.7131 25.9611 37.7131 25.9611C37.7131 25.9611 34.0312 29.6429 32.9965 30.3551C31.9618 31.0673 30.4635 31.9743 30.141 32.5589C29.8185 33.1434 27.2856 40.1846 26.056 42.9998C24.5242 46.5204 23.046 49.517 22.9923 50.6457C22.9789 50.8675 24.2017 52.1373 24.2017 52.1373C24.2017 52.1373 25.2296 50.162 26.4592 46.9236C27.6887 43.6851 31.001 35.4681 31.5318 34.6618ZM36.3156 65.9242C36.3156 65.9242 35.3414 67.194 35.4556 67.3889C35.7781 67.9398 40.5282 69.3306 41.3681 69.465C42.2079 69.5993 47.0118 70.0495 48.631 69.9218C50.2503 69.7942 54.2345 69.512 54.2345 69.512C54.2345 69.512 56.8682 66.3542 57.5132 65.8301C58.1649 65.3128 61.5982 64.0161 61.5982 64.0161L65.8445 60.1864C65.8445 60.1864 64.6082 60.099 63.9968 59.7362C63.3854 59.3734 63.157 58.6276 63.157 58.6276C63.157 58.6276 60.1739 60.314 58.9376 60.9657C57.7081 61.6175 52.9714 63.1695 51.6074 63.9489C50.2435 64.7282 46.4206 66.67 46.4206 66.67C46.4206 66.67 39.675 67.1873 39.0232 66.9925C38.385 66.8111 36.3156 65.9242 36.3156 65.9242Z" fill="#C6E4F7"/>
<path opacity="0.5" d="M23.8717 13.4912C23.2603 14.163 23.4619 15.1641 24.0262 15.5337C24.5906 15.9032 25.4372 15.8696 25.8537 15.359C26.2233 14.9021 26.2636 13.9884 25.6992 13.424C25.2087 12.9402 24.2614 13.0612 23.8717 13.4912Z" fill="white"/>
</svg>
