<svg width="18" height="18" viewBox="0 0 18 18" fill="none" xmlns="http://www.w3.org/2000/svg">
<path d="M9.00065 0.333008C10.1499 0.333008 11.2521 0.789554 12.0648 1.60221C12.8774 2.41487 13.334 3.51707 13.334 4.66634C13.334 5.81561 12.8774 6.91781 12.0648 7.73047C11.2521 8.54313 10.1499 8.99967 9.00065 8.99967C7.85138 8.99967 6.74918 8.54313 5.93652 7.73047C5.12386 6.91781 4.66732 5.81561 4.66732 4.66634C4.66732 3.51707 5.12386 2.41487 5.93652 1.60221C6.74918 0.789554 7.85138 0.333008 9.00065 0.333008V0.333008ZM9.00065 11.1663C13.789 11.1663 17.6673 13.1055 17.6673 15.4997V17.6663H0.333984V15.4997C0.333984 13.1055 4.21232 11.1663 9.00065 11.1663Z" fill="white"/>
</svg>
