<svg width="71" height="76" viewBox="0 0 71 76" fill="none" xmlns="http://www.w3.org/2000/svg">
<path d="M0.5 10C0.5 4.47715 4.97715 0 10.5 0H60.5C66.0229 0 70.5 4.47715 70.5 10V66C70.5 71.5229 66.0229 76 60.5 76H10.5C4.97715 76 0.5 71.5229 0.5 66V10Z" fill="#B9EAA8"/>
<path d="M35.5 53.0265L23.5 43.6931L25.66 42.0131L35.4867 49.6531L45.3267 42.0011L47.5 43.6931L35.5 53.0265ZM35.5 47.3331L23.5 37.9998L25.66 36.3198L35.4867 43.9598L45.3267 36.3065L47.5 37.9998L35.5 47.3331ZM35.5 41.6398L25.6733 33.9998L23.5 32.3065L35.5 22.9731L47.5 32.3065L45.3133 33.9998L35.5 41.6398Z" fill="#40BB15"/>
</svg>
