<svg width="70" height="76" viewBox="0 0 70 76" fill="none" xmlns="http://www.w3.org/2000/svg">
<path d="M0 10C0 4.47715 4.47715 0 10 0H60C65.5229 0 70 4.47715 70 10V66C70 71.5229 65.5229 76 60 76H10C4.47715 76 0 71.5229 0 66V10Z" fill="#B3E3FF"/>
<path d="M45.6666 48.6668H24.3333C22.8605 48.6668 21.6666 47.4729 21.6666 46.0002V30.0002C21.6666 28.5274 22.8605 27.3335 24.3333 27.3335H45.6666C47.1394 27.3335 48.3333 28.5274 48.3333 30.0002V46.0002C48.3333 47.4729 47.1394 48.6668 45.6666 48.6668ZM24.3333 38.0002V46.0002H45.6666V38.0002H24.3333ZM24.3333 30.0002V32.6668H45.6666V30.0002H24.3333ZM36.3333 43.3335H27V40.6668H36.3333V43.3335Z" fill="#23A6F0"/>
</svg>
