<svg width="131" height="23" viewBox="0 0 131 23" fill="none" xmlns="http://www.w3.org/2000/svg">
<g clip-path="url(#clip0_1_361)">
<path d="M20.5967 8.41964C20.539 8.24983 20.4329 8.10061 20.2914 7.99043C20.1499 7.88024 19.9793 7.81389 19.8005 7.79959L14.5714 7.38408L12.3086 2.37506C12.2365 2.21373 12.1193 2.07671 11.9711 1.98052C11.8228 1.88434 11.65 1.8331 11.4733 1.83301C11.2966 1.83291 11.1236 1.88395 10.9753 1.97998C10.827 2.076 10.7096 2.2129 10.6374 2.37415L8.37455 7.38408L3.14539 7.79959C2.9697 7.8135 2.80174 7.87774 2.6616 7.98462C2.52147 8.0915 2.41509 8.23648 2.35519 8.40224C2.2953 8.56799 2.28442 8.74749 2.32387 8.91926C2.36332 9.09103 2.45142 9.2478 2.57763 9.37081L6.44193 13.1379L5.07526 19.0559C5.03376 19.235 5.04706 19.4225 5.11343 19.594C5.1798 19.7655 5.29618 19.913 5.44747 20.0175C5.59876 20.1221 5.77797 20.1787 5.96184 20.1801C6.14571 20.1815 6.32576 20.1276 6.47862 20.0254L11.473 16.6958L16.4673 20.0254C16.6235 20.1291 16.8078 20.1825 16.9953 20.1784C17.1828 20.1743 17.3645 20.1129 17.5161 20.0024C17.6676 19.8919 17.7817 19.7377 17.8429 19.5604C17.9042 19.3832 17.9097 19.1914 17.8587 19.0109L16.1811 13.1406L20.3417 9.39649C20.6141 9.15067 20.7141 8.76727 20.5967 8.41964Z" fill="#F3CD03"/>
<path d="M47.6116 8.41964C47.554 8.24983 47.4479 8.10061 47.3064 7.99043C47.1649 7.88024 46.9942 7.81389 46.8155 7.79959L41.5863 7.38408L39.3235 2.37506C39.2515 2.21373 39.1342 2.07671 38.986 1.98052C38.8378 1.88434 38.6649 1.8331 38.4882 1.83301C38.3115 1.83291 38.1386 1.88395 37.9902 1.97998C37.8419 2.076 37.7246 2.2129 37.6523 2.37415L35.3895 7.38408L30.1603 7.79959C29.9847 7.8135 29.8167 7.87774 29.6766 7.98462C29.5364 8.0915 29.43 8.23648 29.3701 8.40224C29.3102 8.56799 29.2994 8.74749 29.3388 8.91926C29.3783 9.09103 29.4664 9.2478 29.5926 9.37081L33.4569 13.1379L32.0902 19.0559C32.0487 19.235 32.062 19.4225 32.1284 19.594C32.1948 19.7655 32.3111 19.913 32.4624 20.0175C32.6137 20.1221 32.7929 20.1787 32.9768 20.1801C33.1607 20.1815 33.3407 20.1276 33.4936 20.0254L38.4879 16.6958L43.4823 20.0254C43.6385 20.1291 43.8228 20.1825 44.0102 20.1784C44.1977 20.1743 44.3795 20.1129 44.531 20.0024C44.6826 19.8919 44.7966 19.7377 44.8579 19.5604C44.9192 19.3832 44.9247 19.1914 44.8737 19.0109L43.1961 13.1406L47.3567 9.39649C47.6291 9.15067 47.7291 8.76727 47.6116 8.41964Z" fill="#F3CD03"/>
<path d="M74.6226 8.41964C74.565 8.24983 74.4589 8.10061 74.3174 7.99043C74.1759 7.88024 74.0052 7.81389 73.8265 7.79959L68.5973 7.38408L66.3345 2.37506C66.2624 2.21373 66.1452 2.07671 65.997 1.98052C65.8488 1.88434 65.6759 1.8331 65.4992 1.83301C65.3225 1.83291 65.1496 1.88395 65.0012 1.97998C64.8529 2.076 64.7355 2.2129 64.6633 2.37415L62.4005 7.38408L57.1713 7.79959C56.9956 7.8135 56.8277 7.87774 56.6875 7.98462C56.5474 8.0915 56.441 8.23648 56.3811 8.40224C56.3212 8.56799 56.3104 8.74749 56.3498 8.91926C56.3893 9.09103 56.4774 9.2478 56.6036 9.37081L60.4679 13.1379L59.1012 19.0559C59.0597 19.235 59.073 19.4225 59.1394 19.594C59.2057 19.7655 59.3221 19.913 59.4734 20.0175C59.6247 20.1221 59.8039 20.1787 59.9878 20.1801C60.1717 20.1815 60.3517 20.1276 60.5046 20.0254L65.4989 16.6958L70.4932 20.0254C70.6495 20.1291 70.8337 20.1825 71.0212 20.1784C71.2087 20.1743 71.3905 20.1129 71.542 20.0024C71.6935 19.8919 71.8076 19.7377 71.8689 19.5604C71.9301 19.3832 71.9357 19.1914 71.8847 19.0109L70.2071 13.1406L74.3676 9.39649C74.6401 9.15067 74.74 8.76727 74.6226 8.41964Z" fill="#F3CD03"/>
<path d="M101.637 8.41964C101.579 8.24983 101.473 8.10061 101.331 7.99043C101.19 7.88024 101.019 7.81389 100.841 7.79959L95.6114 7.38408L93.3485 2.37506C93.2765 2.21373 93.1593 2.07671 93.011 1.98052C92.8628 1.88434 92.6899 1.8331 92.5132 1.83301C92.3365 1.83291 92.1636 1.88395 92.0153 1.97998C91.8669 2.076 91.7496 2.2129 91.6773 2.37415L89.4145 7.38408L84.1854 7.79959C84.0097 7.8135 83.8417 7.87774 83.7016 7.98462C83.5614 8.0915 83.4551 8.23648 83.3952 8.40224C83.3353 8.56799 83.3244 8.74749 83.3638 8.91926C83.4033 9.09103 83.4914 9.2478 83.6176 9.37081L87.4819 13.1379L86.1152 19.0559C86.0737 19.235 86.087 19.4225 86.1534 19.594C86.2198 19.7655 86.3362 19.913 86.4874 20.0175C86.6387 20.1221 86.8179 20.1787 87.0018 20.1801C87.1857 20.1815 87.3657 20.1276 87.5186 20.0254L92.5129 16.6958L97.5073 20.0254C97.6635 20.1291 97.8478 20.1825 98.0353 20.1784C98.2228 20.1743 98.4045 20.1129 98.556 20.0024C98.7076 19.8919 98.8217 19.7377 98.8829 19.5604C98.9442 19.3832 98.9497 19.1914 98.8987 19.0109L97.2211 13.1406L101.382 9.39649C101.654 9.15067 101.754 8.76727 101.637 8.41964Z" fill="#F3CD03"/>
<path d="M114.498 13.1374L113.131 19.0554C113.089 19.2346 113.101 19.4224 113.167 19.5943C113.234 19.7662 113.35 19.9141 113.501 20.0188C113.653 20.1235 113.832 20.1801 114.016 20.1812C114.201 20.1823 114.381 20.1278 114.533 20.0249L119.528 16.6954L124.522 20.0249C124.678 20.1287 124.863 20.1821 125.05 20.178C125.238 20.1739 125.419 20.1124 125.571 20.0019C125.722 19.8915 125.837 19.7372 125.898 19.56C125.959 19.3827 125.965 19.191 125.914 19.0105L124.236 13.1402L128.397 9.39603C128.53 9.27605 128.625 9.11963 128.67 8.94614C128.716 8.77264 128.709 8.58967 128.651 8.41986C128.594 8.25004 128.488 8.10083 128.346 7.99067C128.205 7.88051 128.034 7.81423 127.855 7.80004L122.626 7.38362L120.363 2.3746C120.291 2.21331 120.174 2.07635 120.026 1.98025C119.877 1.88415 119.705 1.83301 119.528 1.83301C119.351 1.83301 119.178 1.88415 119.03 1.98025C118.882 2.07635 118.764 2.21331 118.692 2.3746L116.429 7.38362L111.2 7.79913C111.025 7.81305 110.857 7.87729 110.716 7.98416C110.576 8.09104 110.47 8.23602 110.41 8.40178C110.35 8.56753 110.339 8.74703 110.379 8.9188C110.418 9.09057 110.506 9.24734 110.632 9.37035L114.498 13.1374ZM117.115 9.16947C117.278 9.15658 117.436 9.09987 117.57 9.0053C117.704 8.91073 117.81 8.78179 117.878 8.63198L119.528 4.98047L121.178 8.63198C121.245 8.78179 121.352 8.91073 121.486 9.0053C121.62 9.09987 121.777 9.15658 121.941 9.16947L125.584 9.4584L122.584 12.1587C122.324 12.3936 122.22 12.7549 122.315 13.0925L123.465 17.1146L120.038 14.8297C119.887 14.7288 119.71 14.6749 119.529 14.6749C119.348 14.6749 119.171 14.7288 119.021 14.8297L115.44 17.2173L116.403 13.0475C116.438 12.8942 116.433 12.7343 116.389 12.5833C116.345 12.4323 116.262 12.2953 116.15 12.1853L113.363 9.46849L117.115 9.16947Z" fill="#F3CD03"/>
</g>
<defs>
<clipPath id="clip0_1_361">
<rect width="130.068" height="22.0136" fill="white" transform="translate(0.465942)"/>
</clipPath>
</defs>
</svg>
