<svg width="71" height="76" viewBox="0 0 71 76" fill="none" xmlns="http://www.w3.org/2000/svg">
<path d="M0.5 10C0.5 4.47715 4.97715 0 10.5 0H60.5C66.0229 0 70.5 4.47715 70.5 10V66C70.5 71.5229 66.0229 76 60.5 76H10.5C4.97715 76 0.5 71.5229 0.5 66V10Z" fill="#FFDCD1"/>
<path d="M35.0293 46.0135L28.4293 39.4148L30.3133 37.5282L35.0293 42.2441L46.3426 30.9295L48.228 32.8148L35.028 46.0148L35.0293 46.0135ZM29.372 46.0135L22.772 39.4148L24.6573 37.5282L31.2573 44.1281L29.3733 46.0135H29.372ZM35.0293 40.3575L33.1426 38.4721L41.628 29.9868L43.5146 31.8721L35.0293 40.3562V40.3575Z" fill="#E74040"/>
</svg>
