<svg width="25" height="24" viewBox="0 0 25 24" fill="none" xmlns="http://www.w3.org/2000/svg">
<rect width="24" height="24" transform="translate(0.125)" fill="white" style="mix-blend-mode:multiply"/>
<mask id="mask0_1809_813" style="mask-type:alpha" maskUnits="userSpaceOnUse" x="2" y="3" width="21" height="19">
<path d="M16.825 3C14.925 3 13.325 3.9 12.425 5.4C12.325 5.6 12.125 5.6 12.025 5.4C10.925 3.9 9.325 3 7.425 3C4.525 3 2.125 5.4 2.125 8.3C2.125 13 9.325 19 11.525 20.8C11.925 21.1 12.425 21.1 12.725 20.8C14.925 19 22.125 13 22.125 8.3C22.125 5.4 19.725 3 16.825 3Z" fill="#121619"/>
</mask>
<g mask="url(#mask0_1809_813)">
<rect x="0.125" width="24" height="24" fill="white"/>
</g>
</svg>
