<svg width="47" height="46" viewBox="0 0 47 46" fill="none" xmlns="http://www.w3.org/2000/svg">
<path d="M3.125 23C3.125 11.9543 12.0793 3 23.125 3C34.1707 3 43.125 11.9543 43.125 23C43.125 34.0457 34.1707 43 23.125 43C12.0793 43 3.125 34.0457 3.125 23Z" fill="#0055FF"/>
<rect width="24" height="24" transform="translate(11.125 11)" fill="white" style="mix-blend-mode:multiply"/>
<mask id="mask0_1809_811" style="mask-type:alpha" maskUnits="userSpaceOnUse" x="13" y="14" width="21" height="19">
<path d="M27.825 14C25.925 14 24.325 14.9 23.425 16.4C23.325 16.6 23.125 16.6 23.025 16.4C21.925 14.9 20.325 14 18.425 14C15.525 14 13.125 16.4 13.125 19.3C13.125 24 20.325 30 22.525 31.8C22.925 32.1 23.425 32.1 23.725 31.8C25.925 30 33.125 24 33.125 19.3C33.125 16.4 30.725 14 27.825 14Z" fill="#121619"/>
</mask>
<g mask="url(#mask0_1809_811)">
<rect x="11.125" y="11" width="24" height="24" fill="white"/>
</g>
<path d="M23.125 40C13.7362 40 6.125 32.3888 6.125 23H0.125C0.125 35.7025 10.4225 46 23.125 46V40ZM40.125 23C40.125 32.3888 32.5138 40 23.125 40V46C35.8275 46 46.125 35.7025 46.125 23H40.125ZM23.125 6C32.5138 6 40.125 13.6112 40.125 23H46.125C46.125 10.2975 35.8275 0 23.125 0V6ZM23.125 0C10.4225 0 0.125 10.2975 0.125 23H6.125C6.125 13.6112 13.7362 6 23.125 6V0Z" fill="white"/>
</svg>
