<svg width="12" height="12" viewBox="0 0 12 12" fill="none" xmlns="http://www.w3.org/2000/svg">
<path d="M5.70711 0.792893C5.31658 0.402369 4.68342 0.402369 4.29289 0.792893C3.90237 1.18342 3.90237 1.81658 4.29289 2.20711L5.70711 0.792893ZM9.5 6L10.2071 6.70711C10.5976 6.31658 10.5976 5.68342 10.2071 5.29289L9.5 6ZM4.29289 9.79289C3.90237 10.1834 3.90237 10.8166 4.29289 11.2071C4.68342 11.5976 5.31658 11.5976 5.70711 11.2071L4.29289 9.79289ZM4.29289 2.20711L8.79289 6.70711L10.2071 5.29289L5.70711 0.792893L4.29289 2.20711ZM8.79289 5.29289L4.29289 9.79289L5.70711 11.2071L10.2071 6.70711L8.79289 5.29289Z" fill="#007C84"/>
</svg>
