<svg width="19" height="23" viewBox="0 0 19 23" fill="none" xmlns="http://www.w3.org/2000/svg">
<path d="M9.5 3.59948L4.55 8.54948C3.57111 9.52848 2.90449 10.7758 2.63445 12.1336C2.36442 13.4915 2.50308 14.8989 3.03292 16.1779C3.56275 17.457 4.45996 18.5502 5.61109 19.3193C6.76222 20.0885 8.11557 20.499 9.5 20.499C10.8844 20.499 12.2378 20.0885 13.3889 19.3193C14.54 18.5502 15.4373 17.457 15.9671 16.1779C16.4969 14.8989 16.6356 13.4915 16.3656 12.1336C16.0955 10.7758 15.4289 9.52848 14.45 8.54948L9.5 3.59948ZM9.5 0.771484L15.864 7.13548C17.1227 8.39416 17.9798 9.99781 18.3271 11.7436C18.6743 13.4895 18.4961 15.2991 17.8149 16.9436C17.1337 18.5881 15.9802 19.9937 14.5001 20.9826C13.0201 21.9716 11.28 22.4994 9.5 22.4994C7.71998 22.4994 5.97992 21.9716 4.49988 20.9826C3.01984 19.9937 1.86629 18.5881 1.1851 16.9436C0.503907 15.2991 0.32567 13.4895 0.672928 11.7436C1.02019 9.99781 1.87734 8.39416 3.136 7.13548L9.5 0.771484ZM4.5 13.4995H14.5C14.5 14.8256 13.9732 16.0973 13.0355 17.035C12.0979 17.9727 10.8261 18.4995 9.5 18.4995C8.17392 18.4995 6.90215 17.9727 5.96447 17.035C5.02679 16.0973 4.5 14.8256 4.5 13.4995Z" fill="#007C84"/>
</svg>
