<svg width="16" height="17" viewBox="0 0 16 17" fill="none" xmlns="http://www.w3.org/2000/svg">
<path d="M8.23895 12.4427C8.08152 12.4427 7.93054 12.3801 7.81922 12.2688C7.7079 12.1575 7.64536 12.0065 7.64536 11.8491C7.64536 11.6917 7.7079 11.5407 7.81922 11.4294C7.93054 11.318 8.08152 11.2555 8.23895 11.2555C8.34107 11.254 8.44189 11.2323 8.53564 11.1918C8.62939 11.1513 8.71424 11.0927 8.78535 11.0194C8.85646 10.9461 8.91243 10.8595 8.95006 10.7645C8.9877 10.6696 9.00626 10.5681 9.00469 10.466C9.00469 10.3086 9.06723 10.1576 9.17855 10.0463C9.28987 9.93497 9.44085 9.87243 9.59828 9.87243C9.75571 9.87243 9.90669 9.93497 10.018 10.0463C10.1293 10.1576 10.1919 10.3086 10.1919 10.466C10.1934 10.724 10.1442 10.9798 10.0469 11.2188C9.94957 11.4578 9.80615 11.6753 9.6248 11.8588C9.44346 12.0424 9.22773 12.1884 8.98995 12.2886C8.75216 12.3888 8.49697 12.4411 8.23895 12.4427ZM8.22708 3.97211C8.95126 4.85657 9.89508 6.07343 10.6727 7.08254L10.7202 7.14784C11.9074 8.69711 12.3347 11.0952 10.8033 12.6801C10.4744 13.0264 10.0785 13.3022 9.63974 13.4906C9.20094 13.679 8.72838 13.7762 8.25082 13.7762C7.77327 13.7762 7.30071 13.679 6.8619 13.4906C6.4231 13.3022 6.02722 13.0264 5.69837 12.6801C4.3153 11.2436 4.35091 9.01765 5.78741 7.1419L6.28603 6.48301C6.92711 5.64011 7.63942 4.70223 8.22708 3.97805V3.97211ZM8.22708 2.50594C8.12613 2.50622 8.02648 2.52871 7.93518 2.57179C7.84388 2.61487 7.76318 2.6775 7.69878 2.75525C6.90337 3.69906 5.73399 5.26021 4.84953 6.42365C3.12811 8.67931 2.97378 11.5582 4.84953 13.5052C5.28921 13.9673 5.81823 14.3352 6.40445 14.5866C6.99067 14.838 7.62187 14.9677 8.25973 14.9677C8.89758 14.9677 9.52878 14.838 10.115 14.5866C10.7012 14.3352 11.2302 13.9673 11.6699 13.5052C13.5457 11.5582 13.3379 8.57246 11.6699 6.42365C10.7439 5.23646 9.54486 3.68125 8.76131 2.75525C8.69786 2.67748 8.6183 2.6144 8.52813 2.57033C8.43795 2.52627 8.33929 2.50227 8.23895 2.5L8.22708 2.50594Z" fill="black"/>
</svg>
