<svg width="16" height="21" viewBox="0 0 16 21" fill="none" xmlns="http://www.w3.org/2000/svg">
<path d="M3.94101 16.001C3.64401 14.728 2.30401 13.687 1.75401 13.001C0.812197 11.8242 0.221954 10.4054 0.05127 8.90792C-0.119414 7.41042 0.136406 5.89516 0.789259 4.5367C1.44211 3.17823 2.46544 2.03182 3.74136 1.22953C5.01728 0.427245 6.49389 0.00171188 8.00109 0.00195323C9.50828 0.00219457 10.9848 0.428201 12.2604 1.2309C13.5361 2.0336 14.559 3.18033 15.2115 4.539C15.8639 5.89768 16.1192 7.41302 15.9481 8.91046C15.7769 10.4079 15.1862 11.8265 14.244 13.003C13.694 13.688 12.356 14.729 12.059 16.001H3.94001H3.94101ZM12 18.0009V19.0009C12 19.5314 11.7893 20.0401 11.4142 20.4152C11.0391 20.7902 10.5304 21.0009 10 21.0009H6.00001C5.46957 21.0009 4.96087 20.7902 4.58579 20.4152C4.21072 20.0401 4.00001 19.5314 4.00001 19.0009V18.0009H12ZM9.00001 8.00595V4.00095L4.50001 10.006H7.00001V14.0059L11.5 8.00595H9.00001Z" fill="white"/>
</svg>
