<svg width="18" height="22" viewBox="0 0 18 22" fill="none" xmlns="http://www.w3.org/2000/svg">
<path d="M8.99062 0.505859C4.56536 0.505859 0.965149 4.10607 0.965149 8.53133C0.965149 11.4749 2.60008 14.1989 5.1621 15.5951L5.1622 18.9947C5.1622 20.3708 6.41882 21.4903 7.96338 21.4903H10.0178C11.5623 21.4903 12.819 20.3708 12.819 18.9947V15.595C15.3811 14.1988 17.0161 11.4748 17.0161 8.53133C17.0161 4.10607 13.4159 0.505859 8.99062 0.505859ZM10.1627 20.0083H7.81839C7.44252 20.0083 7.13779 19.7036 7.13779 19.3277C7.13779 18.9519 7.44252 18.6471 7.81839 18.6471H10.1627C10.5386 18.6471 10.8433 18.9519 10.8433 19.3277C10.8434 19.7036 10.5386 20.0083 10.1627 20.0083ZM10.1627 17.8149H7.81839C7.44252 17.8149 7.13779 17.5101 7.13779 17.1343C7.13779 16.7584 7.44252 16.4537 7.81839 16.4537H10.1627C10.5386 16.4537 10.8433 16.7584 10.8433 17.1343C10.8433 17.5101 10.5386 17.8149 10.1627 17.8149ZM13.8955 9.14314C13.5197 9.14314 13.2149 8.83841 13.2149 8.46254C13.215 8.2169 13.194 7.9717 13.1521 7.72965C12.9044 6.30275 11.9576 5.11292 10.6196 4.54695C10.2733 4.40052 10.1114 4.00117 10.2578 3.65499C10.4043 3.30882 10.8038 3.14699 11.1498 3.29321C12.9161 4.04028 14.1661 5.61174 14.4933 7.49692C14.5485 7.81583 14.5762 8.13889 14.5761 8.46254C14.5761 8.83839 14.2714 9.14314 13.8955 9.14314Z" fill="white"/>
</svg>
