<svg width="73" height="73" viewBox="0 0 73 73" fill="none" xmlns="http://www.w3.org/2000/svg">
<g filter="url(#filter0_ddd_2302_666)">
<circle cx="37" cy="37" r="20" fill="#007C84"/>
</g>
<path d="M36.9906 26.5059C32.5654 26.5059 28.9651 30.1061 28.9651 34.5313C28.9651 37.4749 30.6001 40.1989 33.1621 41.5951L33.1622 44.9947C33.1622 46.3708 34.4188 47.4903 35.9634 47.4903H38.0178C39.5623 47.4903 40.819 46.3708 40.819 44.9947V41.595C43.3811 40.1988 45.0161 37.4748 45.0161 34.5313C45.0161 30.1061 41.4159 26.5059 36.9906 26.5059V26.5059ZM38.1627 46.0083H35.8184C35.4425 46.0083 35.1378 45.7036 35.1378 45.3277C35.1378 44.9519 35.4425 44.6471 35.8184 44.6471H38.1627C38.5386 44.6471 38.8433 44.9519 38.8433 45.3277C38.8434 45.7036 38.5386 46.0083 38.1627 46.0083ZM38.1627 43.8149H35.8184C35.4425 43.8149 35.1378 43.5101 35.1378 43.1343C35.1378 42.7584 35.4425 42.4537 35.8184 42.4537H38.1627C38.5386 42.4537 38.8433 42.7584 38.8433 43.1343C38.8433 43.5101 38.5386 43.8149 38.1627 43.8149ZM41.8955 35.1431C41.5197 35.1431 41.2149 34.8384 41.2149 34.4625C41.215 34.2169 41.194 33.9717 41.1521 33.7297C40.9044 32.3028 39.9576 31.1129 38.6196 30.547C38.2733 30.4005 38.1114 30.0012 38.2578 29.655C38.4043 29.3088 38.8038 29.147 39.1498 29.2932C40.9161 30.0403 42.1661 31.6117 42.4933 33.4969C42.5485 33.8158 42.5762 34.1389 42.5761 34.4625C42.5761 34.8384 42.2714 35.1431 41.8955 35.1431V35.1431Z" fill="white"/>
<defs>
<filter id="filter0_ddd_2302_666" x="0" y="0" width="73" height="73" filterUnits="userSpaceOnUse" color-interpolation-filters="sRGB">
<feFlood flood-opacity="0" result="BackgroundImageFix"/>
<feColorMatrix in="SourceAlpha" type="matrix" values="0 0 0 0 0 0 0 0 0 0 0 0 0 0 0 0 0 0 127 0" result="hardAlpha"/>
<feOffset dx="6" dy="6"/>
<feGaussianBlur stdDeviation="5"/>
<feColorMatrix type="matrix" values="0 0 0 0 0 0 0 0 0 0 0 0 0 0 0 0 0 0 0.06 0"/>
<feBlend mode="normal" in2="BackgroundImageFix" result="effect1_dropShadow_2302_666"/>
<feColorMatrix in="SourceAlpha" type="matrix" values="0 0 0 0 0 0 0 0 0 0 0 0 0 0 0 0 0 0 127 0" result="hardAlpha"/>
<feOffset dx="-4" dy="-4"/>
<feGaussianBlur stdDeviation="6.5"/>
<feColorMatrix type="matrix" values="0 0 0 0 1 0 0 0 0 1 0 0 0 0 1 0 0 0 0.6 0"/>
<feBlend mode="normal" in2="effect1_dropShadow_2302_666" result="effect2_dropShadow_2302_666"/>
<feColorMatrix in="SourceAlpha" type="matrix" values="0 0 0 0 0 0 0 0 0 0 0 0 0 0 0 0 0 0 127 0" result="hardAlpha"/>
<feOffset dx="1" dy="1"/>
<feGaussianBlur stdDeviation="3"/>
<feColorMatrix type="matrix" values="0 0 0 0 0 0 0 0 0 0 0 0 0 0 0 0 0 0 0.05 0"/>
<feBlend mode="multiply" in2="effect2_dropShadow_2302_666" result="effect3_dropShadow_2302_666"/>
<feBlend mode="normal" in="SourceGraphic" in2="effect3_dropShadow_2302_666" result="shape"/>
</filter>
</defs>
</svg>
