<svg width="14" height="11" viewBox="0 0 14 11" fill="none" xmlns="http://www.w3.org/2000/svg">
<path d="M2.496 5.082C2.02 5.082 1.59533 4.984 1.222 4.788C0.858 4.58267 0.568667 4.30267 0.354 3.948C0.148667 3.59333 0.046 3.18733 0.046 2.73C0.046 2.27267 0.148667 1.86667 0.354 1.512C0.568667 1.15733 0.858 0.877333 1.222 0.672C1.59533 0.466666 2.02 0.363999 2.496 0.363999C2.98133 0.363999 3.406 0.466666 3.77 0.672C4.134 0.867999 4.41867 1.14333 4.624 1.498C4.82933 1.85267 4.932 2.26333 4.932 2.73C4.932 3.18733 4.82933 3.59333 4.624 3.948C4.41867 4.30267 4.134 4.58267 3.77 4.788C3.406 4.984 2.98133 5.082 2.496 5.082ZM2.496 3.78C2.79467 3.78 3.04667 3.68667 3.252 3.5C3.45733 3.304 3.56 3.04733 3.56 2.73C3.56 2.506 3.51333 2.31467 3.42 2.156C3.32667 1.988 3.196 1.862 3.028 1.778C2.86933 1.694 2.692 1.652 2.496 1.652C2.20667 1.652 1.95467 1.75 1.74 1.946C1.53467 2.13267 1.432 2.394 1.432 2.73C1.432 3.04733 1.53467 3.304 1.74 3.5C1.95467 3.68667 2.20667 3.78 2.496 3.78ZM10.252 2.128C9.85067 2.128 9.49133 2.20733 9.174 2.366C8.866 2.52467 8.60467 2.75333 8.39 3.052C8.17533 3.34133 8.012 3.696 7.9 4.116C7.79733 4.536 7.746 5.00733 7.746 5.53C7.746 6.23933 7.83 6.846 7.998 7.35C8.17533 7.84467 8.45067 8.22267 8.824 8.484C9.19733 8.74533 9.67333 8.876 10.252 8.876C10.6627 8.876 11.0687 8.82933 11.47 8.736C11.8807 8.64267 12.324 8.512 12.8 8.344V10.122C12.3613 10.2993 11.9273 10.43 11.498 10.514C11.0687 10.598 10.588 10.64 10.056 10.64C9.02933 10.64 8.18 10.43 7.508 10.01C6.84533 9.58067 6.35533 8.98333 6.038 8.218C5.72067 7.44333 5.562 6.54267 5.562 5.516C5.562 4.76 5.66467 4.06933 5.87 3.444C6.07533 2.80933 6.374 2.26333 6.766 1.806C7.16733 1.34867 7.65733 0.994 8.236 0.742C8.824 0.49 9.496 0.363999 10.252 0.363999C10.7467 0.363999 11.2413 0.429333 11.736 0.559999C12.24 0.681333 12.7207 0.849333 13.178 1.064L12.492 2.786C12.1187 2.60867 11.7407 2.45467 11.358 2.324C10.9847 2.19333 10.616 2.128 10.252 2.128Z" fill="#00495F"/>
</svg>
