<svg width="28" height="28" viewBox="0 0 28 28" fill="none" xmlns="http://www.w3.org/2000/svg">
<path d="M14 27.3332C6.63599 27.3332 0.666656 21.3638 0.666656 13.9998C0.666656 6.63584 6.63599 0.666504 14 0.666504C21.364 0.666504 27.3333 6.63584 27.3333 13.9998C27.3333 21.3638 21.364 27.3332 14 27.3332ZM14 24.6665C16.829 24.6665 19.5421 23.5427 21.5425 21.5423C23.5429 19.5419 24.6667 16.8288 24.6667 13.9998C24.6667 11.1709 23.5429 8.45775 21.5425 6.45737C19.5421 4.45698 16.829 3.33317 14 3.33317C11.171 3.33317 8.45791 4.45698 6.45752 6.45737C4.45713 8.45775 3.33332 11.1709 3.33332 13.9998C3.33332 16.8288 4.45713 19.5419 6.45752 21.5423C8.45791 23.5427 11.171 24.6665 14 24.6665ZM12.1627 9.21984L18.668 13.5558C18.7411 13.6045 18.8011 13.6705 18.8426 13.748C18.8841 13.8254 18.9058 13.912 18.9058 13.9998C18.9058 14.0877 18.8841 14.1742 18.8426 14.2517C18.8011 14.3291 18.7411 14.3952 18.668 14.4438L12.1613 18.7798C12.0811 18.833 11.988 18.8635 11.8918 18.868C11.7957 18.8726 11.7001 18.851 11.6152 18.8056C11.5303 18.7603 11.4593 18.6927 11.4097 18.6103C11.36 18.5278 11.3337 18.4334 11.3333 18.3372V9.6625C11.3335 9.56604 11.3598 9.47143 11.4095 9.38875C11.4592 9.30606 11.5304 9.23841 11.6155 9.19299C11.7006 9.14756 11.7964 9.12607 11.8928 9.1308C11.9891 9.13553 12.0824 9.1663 12.1627 9.21984Z" fill="url(#paint0_linear_864_489)"/>
<defs>
<linearGradient id="paint0_linear_864_489" x1="14" y1="0.666504" x2="14" y2="27.3332" gradientUnits="userSpaceOnUse">
<stop stop-color="#1B18F9"/>
<stop offset="0.463542" stop-color="#1B18F9"/>
<stop offset="1" stop-color="#E146AD"/>
</linearGradient>
</defs>
</svg>
