<svg width="37" height="41" viewBox="0 0 37 41" fill="none" xmlns="http://www.w3.org/2000/svg">
<path d="M14.5833 32.2498C15.1027 32.2498 15.6008 32.0435 15.9681 31.6763C16.3353 31.309 16.5417 30.8109 16.5417 30.2915V18.5415C16.5417 18.0221 16.3353 17.524 15.9681 17.1568C15.6008 16.7895 15.1027 16.5832 14.5833 16.5832C14.064 16.5832 13.5658 16.7895 13.1986 17.1568C12.8313 17.524 12.625 18.0221 12.625 18.5415V30.2915C12.625 30.8109 12.8313 31.309 13.1986 31.6763C13.5658 32.0435 14.064 32.2498 14.5833 32.2498ZM34.1667 8.74984H26.3333V6.7915C26.3333 5.23336 25.7144 3.73903 24.6126 2.63725C23.5108 1.53548 22.0165 0.916504 20.4583 0.916504H16.5417C14.9835 0.916504 13.4892 1.53548 12.3874 2.63725C11.2856 3.73903 10.6667 5.23336 10.6667 6.7915V8.74984H2.83333C2.31395 8.74984 1.81584 8.95616 1.44858 9.32342C1.08132 9.69068 0.875 10.1888 0.875 10.7082C0.875 11.2276 1.08132 11.7257 1.44858 12.0929C1.81584 12.4602 2.31395 12.6665 2.83333 12.6665H4.79167V34.2082C4.79167 35.7663 5.41064 37.2606 6.51241 38.3624C7.61419 39.4642 9.10852 40.0832 10.6667 40.0832H26.3333C27.8915 40.0832 29.3858 39.4642 30.4876 38.3624C31.5894 37.2606 32.2083 35.7663 32.2083 34.2082V12.6665H34.1667C34.6861 12.6665 35.1842 12.4602 35.5514 12.0929C35.9187 11.7257 36.125 11.2276 36.125 10.7082C36.125 10.1888 35.9187 9.69068 35.5514 9.32342C35.1842 8.95616 34.6861 8.74984 34.1667 8.74984ZM14.5833 6.7915C14.5833 6.27212 14.7897 5.77401 15.1569 5.40675C15.5242 5.03949 16.0223 4.83317 16.5417 4.83317H20.4583C20.9777 4.83317 21.4758 5.03949 21.8431 5.40675C22.2103 5.77401 22.4167 6.27212 22.4167 6.7915V8.74984H14.5833V6.7915ZM28.2917 34.2082C28.2917 34.7276 28.0853 35.2257 27.7181 35.5929C27.3508 35.9602 26.8527 36.1665 26.3333 36.1665H10.6667C10.1473 36.1665 9.64918 35.9602 9.28192 35.5929C8.91466 35.2257 8.70833 34.7276 8.70833 34.2082V12.6665H28.2917V34.2082ZM22.4167 32.2498C22.936 32.2498 23.4342 32.0435 23.8014 31.6763C24.1687 31.309 24.375 30.8109 24.375 30.2915V18.5415C24.375 18.0221 24.1687 17.524 23.8014 17.1568C23.4342 16.7895 22.936 16.5832 22.4167 16.5832C21.8973 16.5832 21.3992 16.7895 21.0319 17.1568C20.6647 17.524 20.4583 18.0221 20.4583 18.5415V30.2915C20.4583 30.8109 20.6647 31.309 21.0319 31.6763C21.3992 32.0435 21.8973 32.2498 22.4167 32.2498Z" fill="white"/>
</svg>
