<svg width="19" height="20" viewBox="0 0 19 20" fill="none" xmlns="http://www.w3.org/2000/svg">
<path d="M12.6398 17.3588C11.6699 17.764 10.6141 17.9972 9.49693 17.9972C7.54492 17.9972 5.76479 17.2974 4.36523 16.1557C4.36523 16.1557 4.47573 16.2294 4.54939 16.2907C6.09626 12.9269 10.8719 11.2573 10.8719 11.2573C10.8842 11.2573 10.9088 11.245 10.921 11.245C12.0505 14.1914 12.517 16.6468 12.6398 17.3588ZM10.3686 9.90681C10.2704 9.94364 10.1599 9.96819 10.0494 10.005C10.0494 10.005 5.7034 11.4046 3.50586 15.3209C2.22907 13.8968 1.44336 12.0061 1.44336 9.94364C1.44336 9.8577 1.44336 9.77176 1.45564 9.68583C1.59068 9.68583 5.56836 9.78404 9.71791 8.54408C9.95117 8.99833 10.1722 9.45257 10.3686 9.90681ZM9.05497 7.30413C5.18778 8.3231 1.82394 8.28627 1.61523 8.28627C2.14314 5.79408 3.81278 3.71931 6.05943 2.6635C6.16992 2.81083 7.65541 4.82422 9.05497 7.30413ZM17.4523 11.2204C17.084 13.4671 15.8072 15.4068 14.0025 16.6222C13.9166 16.1434 13.4869 13.774 12.4311 10.8644C15.0338 10.4593 17.2804 11.1713 17.4523 11.2204ZM7.56948 2.12333C7.5572 2.12333 7.54492 2.1356 7.54492 2.1356C7.5572 2.12333 7.5572 2.12333 7.56948 2.12333ZM14.8128 3.90346C14.7882 3.94029 13.6465 5.68359 10.6141 6.81306C9.23912 4.28404 7.7168 2.28292 7.59403 2.12333C8.20787 1.976 8.84626 1.89007 9.49693 1.89007C11.5349 1.89007 13.4009 2.65123 14.8128 3.90346ZM17.5505 9.8577C17.4523 9.84542 14.7146 9.24386 11.94 9.59989C11.8786 9.46484 11.8295 9.31752 11.7681 9.18248C11.5963 8.78962 11.4121 8.39676 11.228 8.01618C14.4076 6.71484 15.6967 4.84877 15.7213 4.82422C16.8507 6.19922 17.5259 7.9548 17.5505 9.8577ZM18.9255 9.94364C18.9255 4.73828 14.7023 0.515066 9.49693 0.515066C4.29157 0.515066 0.0683594 4.73828 0.0683594 9.94364C0.0683594 15.149 4.29157 19.3722 9.49693 19.3722C14.7023 19.3722 18.9255 15.149 18.9255 9.94364Z" fill="#151439" fill-opacity="0.4"/>
</svg>
