<svg width="19" height="20" viewBox="0 0 19 20" fill="none" xmlns="http://www.w3.org/2000/svg">
<path d="M15.3898 0.515066H3.60407C1.65206 0.515066 0.0683594 2.09877 0.0683594 4.05078V15.8365C0.0683594 17.7885 1.65206 19.3722 3.60407 19.3722H10.1353V12.0675H7.67997V9.21931H10.1353V7.11998C10.1353 4.68917 11.6331 3.36328 13.8061 3.36328C14.8373 3.36328 15.7335 3.43694 15.9914 3.47377V6.01507L14.4936 6.02734C13.3027 6.02734 13.0818 6.5798 13.0818 7.40234V9.21931H15.8931L15.5248 12.0675H13.0818V19.3722H15.3898C17.3418 19.3722 18.9255 17.7885 18.9255 15.8365V4.05078C18.9255 2.09877 17.3418 0.515066 15.3898 0.515066Z" fill="#151439" fill-opacity="0.4"/>
</svg>
