<svg width="21" height="16" viewBox="0 0 21 16" fill="none" xmlns="http://www.w3.org/2000/svg">
<path d="M20.1726 1.95257C19.4605 2.25949 18.6871 2.48047 17.8891 2.56641C18.7116 2.07533 19.3378 1.3019 19.6324 0.381138C18.8712 0.835379 18.0119 1.16685 17.1157 1.33873C16.3913 0.56529 15.3601 0.0864952 14.2183 0.0864952C12.0208 0.0864952 10.2529 1.86663 10.2529 4.0519C10.2529 4.35882 10.2898 4.66574 10.3511 4.96038C7.06097 4.7885 4.12681 3.21708 2.1748 0.810826C1.83105 1.40011 1.63463 2.07533 1.63463 2.81194C1.63463 4.18694 2.3344 5.40234 3.40248 6.1144C2.75181 6.08984 2.13797 5.90569 1.61007 5.61105C1.61007 5.62333 1.61007 5.64788 1.61007 5.66016C1.61007 7.58761 2.9728 9.18359 4.78976 9.5519C4.45829 9.63783 4.10226 9.68694 3.74623 9.68694C3.48842 9.68694 3.24289 9.66239 2.99735 9.62556C3.5007 11.197 4.96164 12.3387 6.70494 12.3756C5.34222 13.4436 3.63574 14.0698 1.78195 14.0698C1.45047 14.0698 1.14355 14.0575 0.824358 14.0206C2.57994 15.1501 4.66699 15.8008 6.91364 15.8008C14.2061 15.8008 18.196 9.7606 18.196 4.51841C18.196 4.34654 18.196 4.17466 18.1837 4.00279C18.9572 3.43806 19.6324 2.73828 20.1726 1.95257Z" fill="#151439" fill-opacity="0.4"/>
</svg>
