<svg width="77" height="77" viewBox="0 0 77 77" fill="none" xmlns="http://www.w3.org/2000/svg">
<path d="M51.4251 7.3381C51.2722 8.29396 51.1957 9.24981 51.1957 10.2057C51.1957 18.8084 58.1543 25.7632 66.7188 25.7632C67.6747 25.7632 68.5923 25.6523 69.5482 25.4994V56.3506C69.5482 69.3159 61.9013 77.001 48.9016 77.001H20.6503C7.64686 77.001 0 69.3159 0 56.3506V28.0611C0 15.0614 7.64686 7.3381 20.6503 7.3381H51.4251ZM52.1936 30.5845C51.1575 30.4698 50.129 30.9287 49.5134 31.7698L40.2645 43.7371L29.6698 35.4021C29.0198 34.905 28.2551 34.71 27.4904 34.7903C26.7296 34.905 26.0414 35.3218 25.5787 35.9335L14.2652 50.6575L14.032 51.0017C13.382 52.2213 13.6879 53.7889 14.8349 54.6339C15.3702 54.978 15.9437 55.2074 16.5937 55.2074C17.4769 55.2457 18.3142 54.783 18.8495 54.0604L28.4463 41.7069L39.3431 49.8929L39.6872 50.1184C40.9107 50.7684 42.4401 50.4664 43.3194 49.3155L54.3691 35.058L54.2162 35.1344C54.828 34.2933 54.9427 33.2227 54.5221 32.2669C54.1053 31.311 53.1839 30.661 52.1936 30.5845ZM67.2545 0.53125C72.3396 0.53125 76.4689 4.66055 76.4689 9.74571C76.4689 14.8309 72.3396 18.9602 67.2545 18.9602C62.1693 18.9602 58.04 14.8309 58.04 9.74571C58.04 4.66055 62.1693 0.53125 67.2545 0.53125Z" fill="black"/>
</svg>
