<svg width="77" height="58" viewBox="0 0 77 58" fill="none" xmlns="http://www.w3.org/2000/svg">
<path d="M37.8714 0.332031C47.1319 0.332031 53.5974 6.71347 53.5974 15.8586V42.1568C53.5974 51.302 47.1319 57.6835 37.8714 57.6835H15.7259C6.46548 57.6835 0 51.302 0 42.1568V15.8586C0 6.71347 6.46548 0.332031 15.7259 0.332031H37.8714ZM68.661 9.42791C70.3395 8.57395 72.3086 8.66322 73.9107 9.67245C75.5127 10.6778 76.4686 12.4245 76.4686 14.3343V43.6835C76.4686 45.5972 75.5127 47.34 73.9107 48.3454C73.0351 48.8927 72.0563 49.1722 71.0698 49.1722C70.2478 49.1722 69.4257 48.9781 68.6572 48.586L62.9947 45.7291C60.8994 44.6656 59.5994 42.5306 59.5994 40.159V17.855C59.5994 15.4794 60.8994 13.3445 62.9947 12.2887L68.661 9.42791Z" fill="black"/>
</svg>
