<svg width="75" height="54" viewBox="0 0 75 54" fill="none" xmlns="http://www.w3.org/2000/svg">
<path d="M60.8333 33.6667V7.00004C60.8333 3.33337 57.8333 0.333374 54.1666 0.333374H7.49998C3.83331 0.333374 0.833313 3.33337 0.833313 7.00004V33.6667C0.833313 37.3334 3.83331 40.3334 7.49998 40.3334H54.1666C57.8333 40.3334 60.8333 37.3334 60.8333 33.6667ZM54.1666 33.6667H7.49998V7.00004H54.1666V33.6667ZM30.8333 10.3334C25.3 10.3334 20.8333 14.8 20.8333 20.3334C20.8333 25.8667 25.3 30.3334 30.8333 30.3334C36.3666 30.3334 40.8333 25.8667 40.8333 20.3334C40.8333 14.8 36.3666 10.3334 30.8333 10.3334ZM74.1666 10.3334V47C74.1666 50.6667 71.1666 53.6667 67.5 53.6667H10.8333V47H67.5V10.3334H74.1666Z" fill="#0E204E"/>
</svg>
