<svg width="57" height="65" viewBox="0 0 57 65" fill="none" xmlns="http://www.w3.org/2000/svg">
<path d="M30.98 1.84806C30.2745 1.292 29.4023 0.989624 28.504 0.989624C27.6057 0.989624 26.7335 1.292 26.028 1.84806L12.796 12.2881C9.57599 14.8281 9.96799 19.2601 12.564 21.5441L6.70799 26.3681C2.85599 29.5481 4.41599 35.4561 8.74799 36.7481L2.40399 42.6921C-1.54001 46.3841 1.07599 53.0001 6.47999 53.0001H20.5V60.0001C20.5 62.7601 22.74 65.0001 25.5 65.0001H31.5C34.26 65.0001 36.5 62.7601 36.5 60.0001V53.0001H50.516C55.92 53.0001 58.536 46.3801 54.588 42.6881L48.24 36.7521C52.584 35.4681 54.152 29.5521 50.292 26.3721L44.444 21.5481C47.04 19.2641 47.432 14.8281 44.216 12.2881L30.98 1.84806ZM32.5 53.0001V60.0001C32.5 60.2653 32.3946 60.5196 32.2071 60.7072C32.0196 60.8947 31.7652 61.0001 31.5 61.0001H25.5C25.2348 61.0001 24.9804 60.8947 24.7929 60.7072C24.6054 60.5196 24.5 60.2653 24.5 60.0001V53.0001H32.5ZM28.504 4.98806L41.736 15.4281C42.0585 15.6812 42.2954 16.0273 42.4147 16.4195C42.5339 16.8118 42.5297 17.2312 42.4027 17.621C42.2757 18.0108 42.032 18.3521 41.7045 18.5988C41.3771 18.8455 40.9817 18.9855 40.572 19.0001C40.1659 19.0128 39.7734 19.149 39.4466 19.3903C39.1198 19.6317 38.8743 19.9669 38.7427 20.3512C38.6111 20.7356 38.5997 21.1509 38.71 21.5419C38.8202 21.9329 39.047 22.2811 39.36 22.5401L47.748 29.4601C48.0646 29.7224 48.2926 30.0759 48.4011 30.4725C48.5095 30.8691 48.4931 31.2894 48.3541 31.6764C48.2151 32.0633 47.9602 32.398 47.6241 32.6348C47.288 32.8717 46.8871 32.9992 46.476 33.0001H43.444C43.0427 32.9998 42.6507 33.1203 42.3188 33.3459C41.9869 33.5714 41.7305 33.8915 41.583 34.2647C41.4354 34.6379 41.4036 35.0468 41.4915 35.4383C41.5794 35.8298 41.7831 36.1858 42.076 36.4601L51.852 45.6081C52.1392 45.8765 52.3391 46.225 52.4256 46.6085C52.5122 46.992 52.4814 47.3926 52.3374 47.7583C52.1933 48.1241 51.9426 48.4381 51.6178 48.6595C51.293 48.881 50.9091 48.9996 50.516 49.0001H6.47999C6.08655 49.0004 5.70211 48.8823 5.37668 48.6612C5.05126 48.4401 4.79991 48.1261 4.65536 47.7602C4.5108 47.3943 4.47971 46.9933 4.56615 46.6095C4.65258 46.2256 4.85254 45.8767 5.13999 45.6081L14.9 36.4601C15.1924 36.1863 15.3959 35.831 15.4841 35.4402C15.5722 35.0495 15.541 34.6412 15.3945 34.2684C15.2479 33.8956 14.9928 33.5754 14.6622 33.3492C14.3315 33.1231 13.9406 33.0014 13.54 33.0001H10.524C10.1119 33.0002 9.70982 32.8731 9.37274 32.636C9.03565 32.399 8.78003 32.0636 8.64082 31.6757C8.5016 31.2878 8.4856 30.8664 8.595 30.4691C8.7044 30.0718 8.93386 29.718 9.252 29.4561L17.644 22.5401C17.9568 22.2813 18.1835 21.9335 18.2939 21.5429C18.4043 21.1522 18.3932 20.7372 18.2621 20.353C18.131 19.9688 17.8861 19.6336 17.5599 19.392C17.2337 19.1503 16.8417 19.0136 16.436 19.0001C16.0263 18.9855 15.6309 18.8455 15.3035 18.5988C14.976 18.3521 14.7323 18.0108 14.6053 17.621C14.4782 17.2312 14.4741 16.8118 14.5933 16.4195C14.7126 16.0273 14.9495 15.6812 15.272 15.4281L28.504 4.98806Z" fill="#0E204E"/>
</svg>
