<svg width="55" height="27" viewBox="0 0 55 27" fill="none" xmlns="http://www.w3.org/2000/svg">
<path d="M44.242 14.3536C44.4372 14.1583 44.4372 13.8417 44.242 13.6464L41.06 10.4645C40.8647 10.2692 40.5482 10.2692 40.3529 10.4645C40.1576 10.6597 40.1576 10.9763 40.3529 11.1716L43.1813 14L40.3529 16.8284C40.1576 17.0237 40.1576 17.3403 40.3529 17.5355C40.5482 17.7308 40.8647 17.7308 41.06 17.5355L44.242 14.3536ZM0 14.5H43.8884V13.5H0V14.5Z" fill="#6CB48F"/>
<circle cx="41.5" cy="13.5" r="13.5" fill="#6CB48F"/>
<path d="M44.3536 14.3536C44.5488 14.1583 44.5488 13.8417 44.3536 13.6464L41.1716 10.4645C40.9763 10.2692 40.6597 10.2692 40.4645 10.4645C40.2692 10.6597 40.2692 10.9763 40.4645 11.1716L43.2929 14L40.4645 16.8284C40.2692 17.0237 40.2692 17.3403 40.4645 17.5355C40.6597 17.7308 40.9763 17.7308 41.1716 17.5355L44.3536 14.3536ZM28 14.5L44 14.5V13.5L28 13.5V14.5Z" fill="white"/>
</svg>
