<svg width="240" height="240" viewBox="0 0 240 240" fill="none" xmlns="http://www.w3.org/2000/svg">
<path d="M13.2932 180.964L96.8931 229.547C98.665 230.58 101.519 230.58 103.291 229.563L230.319 156.215C232.09 155.197 232.09 153.54 230.319 152.507L146.719 103.924C144.963 102.907 142.109 102.907 140.337 103.924L13.3096 177.256C11.5378 178.29 11.5213 179.947 13.2932 180.964Z" fill="#AABAFD"/>
<path d="M112.083 185.901C111.084 186.477 111.09 187.417 112.082 187.994L132.69 199.97C133.682 200.547 135.305 200.553 136.304 199.976L176.913 176.53C177.912 175.954 177.906 175.014 176.914 174.437L156.306 162.461C155.314 161.884 153.691 161.878 152.693 162.455L112.083 185.901Z" fill="#2E4277"/>
<path d="M11.9807 179.126L11.9971 184.016C11.9971 184.673 12.44 185.345 13.3095 185.854L96.9095 234.437C98.6813 235.454 101.536 235.454 103.308 234.437L230.335 161.104C231.221 160.596 231.664 159.923 231.664 159.234L231.647 154.36C231.647 155.033 231.204 155.706 230.319 156.214L103.291 229.563C101.519 230.58 98.6649 230.58 96.8931 229.547L13.2931 180.963C12.4073 180.455 11.9807 179.799 11.9807 179.126Z" fill="#798FFE"/>
<path d="M140.09 7.18866C141.86 6.1667 143.299 6.98706 143.305 9.02111L143.532 98.3905C143.537 100.413 142.107 102.902 140.337 103.924L15.1403 176.2C13.3701 177.221 11.9305 176.389 11.9247 174.367L11.6982 84.9977C11.6925 82.9636 13.1228 80.4862 14.8929 79.4643L140.09 7.18866Z" fill="#1B2A4F"/>
<path d="M8.33612 83.0496L8.5658 172.416C8.5658 173.416 8.92676 174.138 9.50094 174.466L12.8587 176.419C12.2845 176.091 11.9236 175.369 11.9236 174.368L11.6939 85.0023C11.6939 82.968 13.1212 80.4908 14.893 79.4573L140.09 7.18989C140.976 6.68133 141.78 6.63218 142.371 6.96021L139.013 5.00752C138.439 4.6794 137.619 4.72855 136.733 5.23711L11.5352 77.521C9.7634 78.5381 8.33612 81.0153 8.33612 83.0496Z" fill="#384E85"/>
<path d="M16.2169 83.9073L16.4348 170.244L139.013 99.48L138.795 13.1436L16.2169 83.9073Z" fill="#384E85"/>
<path d="M16.2169 83.9073L16.2535 98.3884L138.832 27.6247L138.795 13.1436L16.2169 83.9073Z" fill="#AABAFD"/>
<path d="M118.584 30.276C119.766 29.5937 120.727 30.1178 120.73 31.4756C120.734 32.8335 119.78 34.4868 118.598 35.1691C117.437 35.8397 116.476 35.2921 116.472 33.9343C116.468 32.5763 117.423 30.9465 118.584 30.276Z" fill="white"/>
<path d="M125.41 26.3347C126.571 25.6642 127.532 26.1883 127.536 27.5462C127.539 28.904 126.585 30.5574 125.424 31.2279C124.242 31.9101 123.281 31.3626 123.277 30.0047C123.273 28.6469 124.228 27.017 125.41 26.3347Z" fill="white"/>
<path d="M132.215 22.4059C133.397 21.7236 134.357 22.2476 134.361 23.6055C134.365 24.9633 133.411 26.6167 132.229 27.299C131.047 27.9813 130.086 27.4337 130.083 26.0758C130.079 24.718 131.033 23.0881 132.215 22.4059Z" fill="white"/>
<path d="M38.9299 174.966L30.9058 179.63L27.4491 177.634L35.4732 172.971L38.9299 174.966Z" fill="#384E85"/>
<path d="M125.269 124.792L117.234 129.461L113.777 127.465L121.812 122.796L125.269 124.792Z" fill="#384E85"/>
<path d="M146.854 112.248L138.818 116.917L135.362 114.921L143.397 110.252L146.854 112.248Z" fill="#384E85"/>
<path d="M132.452 141.448L124.428 146.112L117.293 141.992L125.317 137.329L132.452 141.448Z" fill="#384E85"/>
<path d="M172.029 139.292L163.994 143.961L156.848 139.836L164.883 135.166L172.029 139.292Z" fill="#384E85"/>
<path d="M182.827 133.017L174.792 137.686L158.65 128.367L166.685 123.697L182.827 133.017Z" fill="#384E85"/>
<path d="M155.85 117.441L141.034 126.051L133.888 121.925L148.704 113.315L155.85 117.441Z" fill="#384E85"/>
<path d="M138.283 127.65L130.248 132.32L123.102 128.194L131.137 123.524L138.283 127.65Z" fill="#384E85"/>
<path d="M164.835 122.629L146.002 133.574L138.867 129.454L157.7 118.51L164.835 122.629Z" fill="#384E85"/>
<path d="M143.25 135.172L135.215 139.842L128.08 135.722L136.115 131.053L143.25 135.172Z" fill="#384E85"/>
<path d="M152.246 140.366L144.211 145.035L137.065 140.91L145.1 136.24L152.246 140.366Z" fill="#384E85"/>
<path d="M127.485 133.925L119.45 138.595L112.304 134.469L120.339 129.8L127.485 133.925Z" fill="#384E85"/>
<path d="M114.471 131.066L106.447 135.729L102.99 133.733L111.014 129.07L114.471 131.066Z" fill="#384E85"/>
<path d="M103.684 137.336L95.6491 142.005L92.1925 140.009L100.228 135.34L103.684 137.336Z" fill="#384E85"/>
<path d="M109.077 165.454L101.042 170.123L93.8959 165.998L101.931 161.328L109.077 165.454Z" fill="#384E85"/>
<path d="M92.8862 143.61L84.8621 148.273L81.4055 146.277L89.4296 141.614L92.8862 143.61Z" fill="#384E85"/>
<path d="M105.9 146.469L97.876 151.133L90.73 147.007L98.7542 142.344L105.9 146.469Z" fill="#384E85"/>
<path d="M82.0993 149.879L74.0642 154.548L70.6075 152.552L78.6427 147.883L82.0993 149.879Z" fill="#384E85"/>
<path d="M95.1132 152.738L87.0781 157.408L79.9321 153.282L87.9672 148.612L95.1132 152.738Z" fill="#384E85"/>
<path d="M110.867 153.991L102.843 158.655L95.7085 154.535L103.733 149.872L110.867 153.991Z" fill="#384E85"/>
<path d="M71.3124 156.147L63.2773 160.817L59.8207 158.821L67.8558 154.151L71.3124 156.147Z" fill="#384E85"/>
<path d="M84.3264 159.007L76.2912 163.676L69.1453 159.55L77.1804 154.881L84.3264 159.007Z" fill="#384E85"/>
<path d="M119.864 159.185L111.84 163.848L104.694 159.723L112.718 155.06L119.864 159.185Z" fill="#384E85"/>
<path d="M100.081 160.26L92.0454 164.929L84.9106 160.81L92.9457 156.141L100.081 160.26Z" fill="#384E85"/>
<path d="M60.5147 162.422L52.4796 167.092L49.023 165.096L57.0581 160.427L60.5147 162.422Z" fill="#384E85"/>
<path d="M73.5285 165.282L65.4933 169.951L58.3474 165.826L66.3825 161.156L73.5285 165.282Z" fill="#384E85"/>
<path d="M89.2937 166.528L81.2586 171.198L74.1237 167.079L82.1588 162.409L89.2937 166.528Z" fill="#384E85"/>
<path d="M62.7416 171.551L54.7065 176.22L47.5605 172.094L55.5956 167.425L62.7416 171.551Z" fill="#384E85"/>
<path d="M98.2899 171.722L90.2548 176.392L83.1088 172.266L91.144 167.597L98.2899 171.722Z" fill="#384E85"/>
<path d="M78.496 172.804L70.4609 177.473L63.326 173.354L71.3611 168.685L78.496 172.804Z" fill="#384E85"/>
<path d="M87.4922 177.998L79.457 182.667L72.3111 178.542L80.3462 173.872L87.4922 177.998Z" fill="#384E85"/>
<path d="M129.322 164.111L88.453 187.862L81.307 183.736L122.176 159.985L129.322 164.111Z" fill="#384E85"/>
<path d="M76.7052 184.266L68.67 188.936L61.524 184.81L69.5591 180.141L76.7052 184.266Z" fill="#384E85"/>
<path d="M67.709 179.072L48.887 190.011L41.7521 185.891L60.5742 174.953L67.709 179.072Z" fill="#384E85"/>
<path d="M65.9073 190.542L57.8832 195.205L50.7372 191.079L58.7613 186.416L65.9073 190.542Z" fill="#384E85"/>
<path d="M85.7013 189.461L66.8793 200.399L59.7334 196.273L78.5554 185.335L85.7013 189.461Z" fill="#384E85"/>
<path d="M49.7277 168.691L41.6926 173.361L38.2359 171.365L46.2711 166.695L49.7277 168.691Z" fill="#384E85"/>
<path d="M136.056 118.523L128.021 123.192L124.564 121.197L132.599 116.527L136.056 118.523Z" fill="#384E85"/>
<path d="M116.698 140.194L108.663 144.864L101.517 140.738L109.552 136.068L116.698 140.194Z" fill="#384E85"/>
<path d="M139.658 158.104L131.623 162.774L124.477 158.648L132.512 153.979L139.658 158.104Z" fill="#384E85"/>
<path d="M130.662 152.911L122.627 157.58L115.481 153.455L123.516 148.785L130.662 152.911Z" fill="#384E85"/>
<path d="M121.666 147.716L113.63 152.385L106.496 148.266L114.531 143.597L121.666 147.716Z" fill="#384E85"/>
<path d="M161.243 145.56L153.208 150.23L146.062 146.104L154.097 141.435L161.243 145.56Z" fill="#384E85"/>
<path d="M150.445 151.836L142.42 156.499L135.275 152.373L143.299 147.71L150.445 151.836Z" fill="#384E85"/>
<path d="M51.9436 177.825L39.9019 184.823L32.756 180.697L44.7976 173.699L51.9436 177.825Z" fill="#384E85"/>
<path d="M27.6114 106.728C29.1672 105.83 30.0858 106.026 30.7432 106.622L29.8601 108.054C29.2953 107.484 28.5703 107.531 27.6846 108.042C25.8823 109.083 24.7393 111.347 24.7455 113.524C24.7516 115.692 25.9038 116.649 27.706 115.609C28.5917 115.098 29.3146 114.281 29.8743 113.08L30.7627 113.498C30.1108 114.859 29.1963 116.114 27.6405 117.012C25.0989 118.479 23.3827 117.218 23.3745 114.316C23.3663 111.413 25.0698 108.195 27.6114 106.728Z" fill="#D9DDF6"/>
<path d="M33.3412 111.443C33.8649 111.141 34.3131 111.396 34.3148 111.998C34.3165 112.608 33.8712 113.371 33.3475 113.673C32.8161 113.98 32.3756 113.729 32.3739 113.118C32.3722 112.516 32.8098 111.75 33.3412 111.443Z" fill="#D9DDF6"/>
<path d="M34.0063 105.043C34.3859 104.39 34.3869 103.682 34.0086 103.462C33.6302 103.242 33.0158 103.594 32.6362 104.247C32.2566 104.9 32.2556 105.608 32.6339 105.828C33.0122 106.048 33.6267 105.696 34.0063 105.043Z" fill="#D9DDF6"/>
<path d="M36.288 97.8184L40.5108 109.741L39.471 110.341L35.2483 98.4187L36.288 97.8184Z" fill="#D9DDF6"/>
<path d="M44.5175 91.6934L51.889 95.903L44.5654 108.597L43.3832 107.923L49.5477 97.2548L43.343 93.7277L44.5175 91.6934Z" fill="#D9DDF6"/>
<path d="M60.1205 95.9199L60.1295 99.0882L52.4199 103.539L52.4109 100.371L60.1205 95.9199Z" fill="#D9DDF6"/>
</svg>
