<svg width="18" height="18" viewBox="0 0 18 18" fill="none" xmlns="http://www.w3.org/2000/svg">
<path d="M12.7498 6.87727C12.6093 6.73759 12.4192 6.65918 12.221 6.65918C12.0229 6.65918 11.8328 6.73759 11.6923 6.87727L8.99978 9.53227L6.34478 6.87727C6.20426 6.73759 6.01417 6.65918 5.81603 6.65918C5.61789 6.65918 5.4278 6.73759 5.28728 6.87727C5.21698 6.947 5.16119 7.02995 5.12311 7.12134C5.08503 7.21274 5.06543 7.31077 5.06543 7.40977C5.06543 7.50878 5.08503 7.60681 5.12311 7.69821C5.16119 7.7896 5.21698 7.87255 5.28728 7.94227L8.46728 11.1223C8.537 11.1926 8.61995 11.2484 8.71135 11.2864C8.80274 11.3245 8.90077 11.3441 8.99978 11.3441C9.09879 11.3441 9.19682 11.3245 9.28821 11.2864C9.37961 11.2484 9.46256 11.1926 9.53228 11.1223L12.7498 7.94227C12.8201 7.87255 12.8759 7.7896 12.9139 7.69821C12.952 7.60681 12.9716 7.50878 12.9716 7.40977C12.9716 7.31077 12.952 7.21274 12.9139 7.12134C12.8759 7.02995 12.8201 6.947 12.7498 6.87727Z" fill="white"/>
<path d="M9 16C5.13401 16 2 12.866 2 9H-2C-2 15.0751 2.92487 20 9 20V16ZM16 9C16 12.866 12.866 16 9 16V20C15.0751 20 20 15.0751 20 9H16ZM9 2C12.866 2 16 5.13401 16 9H20C20 2.92487 15.0751 -2 9 -2V2ZM9 -2C2.92487 -2 -2 2.92487 -2 9H2C2 5.13401 5.13401 2 9 2V-2Z" fill="white"/>
</svg>
