<svg width="19" height="18" viewBox="0 0 19 18" fill="none" xmlns="http://www.w3.org/2000/svg">
<path d="M5.25315 11.1217C5.39367 11.2614 5.58376 11.3398 5.7819 11.3398C5.98004 11.3398 6.17013 11.2614 6.31065 11.1217L9.00315 8.46675L11.6582 11.1217C11.7987 11.2614 11.9888 11.3398 12.1869 11.3398C12.385 11.3398 12.5751 11.2614 12.7157 11.1217C12.7859 11.052 12.8417 10.9691 12.8798 10.8777C12.9179 10.7863 12.9375 10.6883 12.9375 10.5892C12.9375 10.4902 12.9179 10.3922 12.8798 10.3008C12.8417 10.2094 12.7859 10.1265 12.7157 10.0567L9.53565 6.87675C9.46593 6.80645 9.38298 6.75066 9.29158 6.71258C9.20019 6.6745 9.10216 6.6549 9.00315 6.6549C8.90414 6.6549 8.80611 6.6745 8.71472 6.71258C8.62332 6.75066 8.54037 6.80645 8.47065 6.87675L5.25315 10.0567C5.18286 10.1265 5.12706 10.2094 5.08898 10.3008C5.05091 10.3922 5.0313 10.4902 5.0313 10.5892C5.0313 10.6883 5.05091 10.7863 5.08898 10.8777C5.12706 10.9691 5.18286 11.052 5.25315 11.1217Z" fill="white"/>
<path d="M9.00293 1.99902C12.8689 1.99902 16.0029 5.13303 16.0029 8.99902H20.0029C20.0029 2.92389 15.0781 -2.00098 9.00293 -2.00098V1.99902ZM2.00293 8.99902C2.00293 5.13303 5.13694 1.99902 9.00293 1.99902V-2.00098C2.9278 -2.00098 -1.99707 2.92389 -1.99707 8.99902H2.00293ZM9.00293 15.999C5.13694 15.999 2.00293 12.865 2.00293 8.99902H-1.99707C-1.99707 15.0742 2.9278 19.999 9.00293 19.999V15.999ZM9.00293 19.999C15.0781 19.999 20.0029 15.0742 20.0029 8.99902H16.0029C16.0029 12.865 12.8689 15.999 9.00293 15.999V19.999Z" fill="white"/>
</svg>
