<svg width="302" height="302" viewBox="0 0 302 302" fill="none" xmlns="http://www.w3.org/2000/svg">
<circle cx="151" cy="151" r="100.5" stroke="white" stroke-width="15"/>
<path d="M106.196 235.755C103.064 241.679 95.676 243.996 90.1409 240.221C81.0877 234.045 73.0073 226.514 66.1929 217.871C56.8684 206.045 50.1203 192.4 46.3818 177.812C42.6433 163.223 41.9972 148.014 44.4849 133.161C46.303 122.307 49.7654 111.817 54.7327 102.049C57.7697 96.0764 65.3622 94.5551 70.9566 98.2425C76.5511 101.93 78.0065 109.428 75.1655 115.496C71.9501 122.364 69.6745 129.654 68.4157 137.17C66.487 148.685 66.9879 160.477 69.8865 171.788C72.785 183.099 78.0171 193.679 85.2466 202.848C89.9649 208.832 95.466 214.129 101.588 218.604C106.997 222.558 109.327 229.832 106.196 235.755Z" fill="#FF69B4"/>
<path d="M225.391 207.823C231.707 212.647 232.978 221.761 227.357 227.381C210.957 243.776 189.606 254.554 166.401 257.898C143.196 261.241 119.672 256.928 99.3102 245.828C92.3317 242.024 90.9776 232.922 95.675 226.511C100.372 220.1 109.342 218.849 116.496 222.31C130.617 229.143 146.557 231.677 162.297 229.41C178.037 227.142 192.613 220.211 204.231 209.67C210.117 204.33 219.075 202.998 225.391 207.823Z" fill="#2FE6A7"/>
<g filter="url(#filter0_d_2214_5254)">
<path d="M161.396 55.9892C162.142 49.1693 168.302 44.1742 174.991 45.6981C192.705 49.7338 209.186 58.1913 222.85 70.367C239.618 85.3084 251.311 105.106 256.301 127.003C261.291 148.901 259.33 171.81 250.692 192.541C243.652 209.435 232.463 224.198 218.247 235.51C212.878 239.782 205.163 237.949 201.535 232.126C197.908 226.302 199.764 218.706 204.983 214.252C214.883 205.802 222.708 195.106 227.759 182.985C234.41 167.023 235.92 149.384 232.078 132.524C228.235 115.663 219.232 100.42 206.322 88.9158C196.518 80.1799 184.831 73.93 172.247 70.6043C165.614 68.8514 160.65 62.809 161.396 55.9892Z" fill="#605CFF"/>
</g>
<defs>
<filter id="filter0_d_2214_5254" x="157.322" y="45.4238" width="105.679" height="200.428" filterUnits="userSpaceOnUse" color-interpolation-filters="sRGB">
<feFlood flood-opacity="0" result="BackgroundImageFix"/>
<feColorMatrix in="SourceAlpha" type="matrix" values="0 0 0 0 0 0 0 0 0 0 0 0 0 0 0 0 0 0 127 0" result="hardAlpha"/>
<feOffset dy="4"/>
<feGaussianBlur stdDeviation="2"/>
<feColorMatrix type="matrix" values="0 0 0 0 0.356863 0 0 0 0 0.576471 0 0 0 0 1 0 0 0 0.24 0"/>
<feBlend mode="normal" in2="BackgroundImageFix" result="effect1_dropShadow_2214_5254"/>
<feBlend mode="normal" in="SourceGraphic" in2="effect1_dropShadow_2214_5254" result="shape"/>
</filter>
</defs>
</svg>
