<svg width="302" height="302" viewBox="0 0 302 302" fill="none" xmlns="http://www.w3.org/2000/svg">
<circle cx="151" cy="151" r="100.5" stroke="white" stroke-width="15"/>
<path d="M106.196 235.755C103.064 241.679 95.676 243.996 90.1409 240.221C81.0877 234.045 73.0073 226.514 66.1929 217.871C56.8684 206.045 50.1203 192.4 46.3818 177.812C42.6433 163.223 41.9972 148.014 44.4849 133.161C46.303 122.307 49.7654 111.817 54.7327 102.049C57.7697 96.0764 65.3622 94.5551 70.9566 98.2425C76.5511 101.93 78.0065 109.428 75.1655 115.496C71.9501 122.364 69.6745 129.654 68.4157 137.17C66.487 148.685 66.9879 160.477 69.8865 171.788C72.785 183.099 78.0171 193.679 85.2466 202.848C89.9649 208.832 95.466 214.129 101.588 218.604C106.997 222.558 109.327 229.832 106.196 235.755Z" fill="#FF69B4"/>
<path d="M225.391 207.823C231.707 212.647 232.978 221.761 227.357 227.381C210.957 243.776 189.606 254.554 166.401 257.898C143.196 261.241 119.672 256.928 99.3102 245.828C92.3317 242.024 90.9776 232.922 95.675 226.511C100.372 220.1 109.342 218.849 116.496 222.31C130.617 229.143 146.557 231.677 162.297 229.41C178.037 227.142 192.613 220.211 204.231 209.67C210.117 204.33 219.075 202.998 225.391 207.823Z" fill="#2FE6A7"/>
<g filter="url(#filter0_d_2214_5254)">
<path d="M161.396 55.9892C162.142 49.1693 168.302 44.1742 174.991 45.6981C192.705 49.7338 209.186 58.1913 222.85 70.367C239.618 85.3084 251.311 105.106 256.301 127.003C261.291 148.901 259.33 171.81 250.692 192.541C243.652 209.435 232.463 224.198 218.247 235.51C212.878 239.782 205.163 237.949 201.535 232.126C197.908 226.302 199.764 218.706 204.983 214.252C214.883 205.802 222.708 195.106 227.759 182.985C234.41 167.023 235.92 149.384 232.078 132.524C228.235 115.663 219.232 100.42 206.322 88.9158C196.518 80.1799 184.831 73.93 172.247 70.6043C165.614 68.8514 160.65 62.809 161.396 55.9892Z" fill="#605CFF"/>
</g>
<path d="M127.081 151.346C125.698 151.346 124.448 151.106 123.334 150.625C122.219 150.125 121.325 149.424 120.652 148.521C119.999 147.617 119.672 146.57 119.672 145.378C119.672 144.148 119.989 143.072 120.624 142.149C121.277 141.227 122.132 140.564 123.189 140.16C122.267 139.756 121.536 139.18 120.998 138.43C120.46 137.661 120.191 136.806 120.191 135.864C120.191 134.903 120.451 134.019 120.969 133.212C121.488 132.385 122.257 131.722 123.276 131.223C124.314 130.723 125.582 130.473 127.081 130.473C128.581 130.473 129.84 130.723 130.858 131.223C131.877 131.722 132.646 132.385 133.165 133.212C133.684 134.019 133.943 134.903 133.943 135.864C133.943 136.787 133.664 137.642 133.107 138.43C132.569 139.199 131.848 139.776 130.945 140.16C132.021 140.564 132.876 141.227 133.511 142.149C134.145 143.072 134.462 144.148 134.462 145.378C134.462 146.57 134.135 147.617 133.482 148.521C132.828 149.424 131.935 150.125 130.801 150.625C129.686 151.106 128.446 151.346 127.081 151.346ZM127.081 139.064C128.081 139.064 128.869 138.805 129.446 138.286C130.022 137.767 130.31 137.104 130.31 136.297C130.31 135.413 130.022 134.721 129.446 134.221C128.888 133.721 128.1 133.471 127.081 133.471C126.044 133.471 125.246 133.721 124.689 134.221C124.131 134.721 123.852 135.413 123.852 136.297C123.852 137.123 124.131 137.796 124.689 138.315C125.265 138.815 126.063 139.064 127.081 139.064ZM127.081 148.261C128.312 148.261 129.244 147.963 129.878 147.367C130.512 146.752 130.829 145.984 130.829 145.061C130.829 144.042 130.493 143.245 129.82 142.668C129.167 142.092 128.254 141.803 127.081 141.803C125.909 141.803 124.977 142.092 124.285 142.668C123.612 143.245 123.276 144.042 123.276 145.061C123.276 145.984 123.593 146.752 124.227 147.367C124.881 147.963 125.832 148.261 127.081 148.261ZM146.366 151.346C144.502 151.346 142.906 150.914 141.58 150.049C140.254 149.164 139.226 147.944 138.495 146.387C137.784 144.811 137.429 142.985 137.429 140.909C137.429 138.853 137.784 137.037 138.495 135.461C139.226 133.885 140.254 132.664 141.58 131.799C142.906 130.915 144.502 130.473 146.366 130.473C148.23 130.473 149.826 130.915 151.152 131.799C152.478 132.664 153.497 133.885 154.208 135.461C154.938 137.037 155.303 138.853 155.303 140.909C155.303 142.985 154.938 144.811 154.208 146.387C153.497 147.944 152.478 149.164 151.152 150.049C149.826 150.914 148.23 151.346 146.366 151.346ZM146.366 148.031C147.884 148.031 149.124 147.396 150.085 146.128C151.046 144.859 151.527 143.12 151.527 140.909C151.527 138.699 151.046 136.96 150.085 135.691C149.124 134.423 147.884 133.788 146.366 133.788C144.828 133.788 143.579 134.423 142.618 135.691C141.676 136.96 141.205 138.699 141.205 140.909C141.205 143.12 141.676 144.859 142.618 146.128C143.579 147.396 144.828 148.031 146.366 148.031ZM162.712 140.737C161.789 140.737 160.953 140.535 160.203 140.131C159.454 139.708 158.858 139.112 158.416 138.344C157.974 137.575 157.753 136.662 157.753 135.605C157.753 134.548 157.974 133.635 158.416 132.866C158.858 132.097 159.454 131.511 160.203 131.107C160.953 130.684 161.799 130.473 162.74 130.473C163.663 130.473 164.489 130.684 165.22 131.107C165.969 131.511 166.565 132.097 167.007 132.866C167.449 133.635 167.67 134.548 167.67 135.605C167.67 136.662 167.449 137.575 167.007 138.344C166.565 139.112 165.969 139.708 165.22 140.131C164.47 140.535 163.634 140.737 162.712 140.737ZM161.616 151L173.004 130.819H176.608L165.22 151H161.616ZM162.712 138.171C163.269 138.171 163.749 137.959 164.153 137.536C164.557 137.094 164.758 136.45 164.758 135.605C164.758 134.759 164.557 134.115 164.153 133.673C163.769 133.231 163.288 133.01 162.712 133.01C162.135 133.01 161.645 133.231 161.241 133.673C160.857 134.115 160.665 134.759 160.665 135.605C160.665 136.45 160.857 137.094 161.241 137.536C161.645 137.959 162.135 138.171 162.712 138.171ZM175.627 151.346C174.705 151.346 173.869 151.144 173.119 150.741C172.37 150.318 171.774 149.722 171.332 148.953C170.89 148.184 170.669 147.271 170.669 146.214C170.669 145.157 170.89 144.254 171.332 143.504C171.774 142.735 172.37 142.149 173.119 141.746C173.869 141.323 174.714 141.111 175.656 141.111C176.579 141.111 177.405 141.323 178.136 141.746C178.885 142.149 179.481 142.735 179.923 143.504C180.365 144.254 180.586 145.157 180.586 146.214C180.586 147.271 180.365 148.184 179.923 148.953C179.481 149.722 178.885 150.318 178.136 150.741C177.405 151.144 176.569 151.346 175.627 151.346ZM175.627 148.78C176.204 148.78 176.684 148.569 177.069 148.146C177.472 147.704 177.674 147.06 177.674 146.214C177.674 145.369 177.472 144.725 177.069 144.283C176.684 143.841 176.204 143.62 175.627 143.62C175.051 143.62 174.561 143.841 174.157 144.283C173.773 144.725 173.58 145.369 173.58 146.214C173.58 147.06 173.773 147.704 174.157 148.146C174.561 148.569 175.051 148.78 175.627 148.78Z" fill="white"/>
<path opacity="0.7" d="M108.76 173V163.176H105.448V161.8H113.752V163.176H110.456V173H108.76ZM114.431 173V165.064H115.951L116.095 166.568C116.373 166.045 116.757 165.635 117.247 165.336C117.749 165.027 118.351 164.872 119.055 164.872V166.648H118.591C118.122 166.648 117.701 166.728 117.327 166.888C116.965 167.037 116.671 167.299 116.447 167.672C116.234 168.035 116.127 168.541 116.127 169.192V173H114.431ZM123.198 173.192C122.526 173.192 121.971 173.08 121.534 172.856C121.096 172.632 120.771 172.339 120.558 171.976C120.344 171.603 120.238 171.197 120.238 170.76C120.238 169.992 120.536 169.384 121.134 168.936C121.731 168.488 122.584 168.264 123.694 168.264H125.774V168.12C125.774 167.501 125.603 167.037 125.262 166.728C124.931 166.419 124.499 166.264 123.966 166.264C123.496 166.264 123.086 166.381 122.734 166.616C122.392 166.84 122.184 167.176 122.11 167.624H120.414C120.467 167.048 120.659 166.557 120.99 166.152C121.331 165.736 121.758 165.421 122.27 165.208C122.792 164.984 123.363 164.872 123.982 164.872C125.091 164.872 125.95 165.165 126.558 165.752C127.166 166.328 127.47 167.117 127.47 168.12V173H125.998L125.854 171.64C125.63 172.077 125.304 172.445 124.878 172.744C124.451 173.043 123.891 173.192 123.198 173.192ZM123.534 171.816C123.992 171.816 124.376 171.709 124.686 171.496C125.006 171.272 125.251 170.979 125.422 170.616C125.603 170.253 125.715 169.853 125.758 169.416H123.87C123.198 169.416 122.718 169.533 122.43 169.768C122.152 170.003 122.014 170.296 122.014 170.648C122.014 171.011 122.147 171.299 122.414 171.512C122.691 171.715 123.064 171.816 123.534 171.816ZM129.447 173V165.064H130.951L131.079 166.456C131.324 165.965 131.682 165.581 132.151 165.304C132.631 165.016 133.18 164.872 133.799 164.872C134.759 164.872 135.511 165.171 136.055 165.768C136.61 166.365 136.887 167.256 136.887 168.44V173H135.207V168.616C135.207 167.08 134.578 166.312 133.319 166.312C132.69 166.312 132.167 166.536 131.751 166.984C131.346 167.432 131.143 168.072 131.143 168.904V173H129.447ZM142.053 173.192C141.05 173.192 140.223 172.947 139.573 172.456C138.922 171.965 138.549 171.315 138.453 170.504H140.164C140.25 170.867 140.453 171.181 140.773 171.448C141.093 171.704 141.514 171.832 142.036 171.832C142.549 171.832 142.922 171.725 143.157 171.512C143.391 171.299 143.509 171.053 143.509 170.776C143.509 170.371 143.343 170.099 143.013 169.96C142.693 169.811 142.245 169.677 141.669 169.56C141.221 169.464 140.773 169.336 140.325 169.176C139.887 169.016 139.519 168.792 139.221 168.504C138.933 168.205 138.789 167.805 138.789 167.304C138.789 166.611 139.055 166.035 139.589 165.576C140.122 165.107 140.869 164.872 141.829 164.872C142.714 164.872 143.429 165.085 143.973 165.512C144.527 165.939 144.853 166.541 144.949 167.32H143.317C143.263 166.979 143.103 166.712 142.837 166.52C142.581 166.328 142.234 166.232 141.797 166.232C141.37 166.232 141.039 166.323 140.805 166.504C140.57 166.675 140.453 166.899 140.453 167.176C140.453 167.453 140.613 167.672 140.933 167.832C141.263 167.992 141.695 168.136 142.229 168.264C142.762 168.381 143.253 168.52 143.701 168.68C144.159 168.829 144.527 169.053 144.805 169.352C145.082 169.651 145.221 170.088 145.221 170.664C145.231 171.389 144.949 171.992 144.373 172.472C143.807 172.952 143.034 173.192 142.053 173.192ZM149.76 173.192C149.088 173.192 148.533 173.08 148.096 172.856C147.659 172.632 147.333 172.339 147.12 171.976C146.907 171.603 146.8 171.197 146.8 170.76C146.8 169.992 147.099 169.384 147.696 168.936C148.293 168.488 149.147 168.264 150.256 168.264H152.336V168.12C152.336 167.501 152.165 167.037 151.824 166.728C151.493 166.419 151.061 166.264 150.528 166.264C150.059 166.264 149.648 166.381 149.296 166.616C148.955 166.84 148.747 167.176 148.672 167.624H146.976C147.029 167.048 147.221 166.557 147.552 166.152C147.893 165.736 148.32 165.421 148.832 165.208C149.355 164.984 149.925 164.872 150.544 164.872C151.653 164.872 152.512 165.165 153.12 165.752C153.728 166.328 154.032 167.117 154.032 168.12V173H152.56L152.416 171.64C152.192 172.077 151.867 172.445 151.44 172.744C151.013 173.043 150.453 173.192 149.76 173.192ZM150.096 171.816C150.555 171.816 150.939 171.709 151.248 171.496C151.568 171.272 151.813 170.979 151.984 170.616C152.165 170.253 152.277 169.853 152.32 169.416H150.432C149.76 169.416 149.28 169.533 148.992 169.768C148.715 170.003 148.576 170.296 148.576 170.648C148.576 171.011 148.709 171.299 148.976 171.512C149.253 171.715 149.627 171.816 150.096 171.816ZM159.77 173.192C158.991 173.192 158.292 173.016 157.674 172.664C157.066 172.312 156.586 171.827 156.234 171.208C155.892 170.579 155.722 169.853 155.722 169.032C155.722 168.211 155.892 167.491 156.234 166.872C156.586 166.243 157.066 165.752 157.674 165.4C158.292 165.048 158.991 164.872 159.77 164.872C160.751 164.872 161.572 165.128 162.234 165.64C162.906 166.152 163.338 166.845 163.53 167.72H161.754C161.647 167.283 161.412 166.941 161.05 166.696C160.687 166.451 160.26 166.328 159.77 166.328C159.354 166.328 158.97 166.435 158.618 166.648C158.266 166.851 157.983 167.155 157.77 167.56C157.556 167.955 157.45 168.445 157.45 169.032C157.45 169.619 157.556 170.115 157.77 170.52C157.983 170.915 158.266 171.219 158.618 171.432C158.97 171.645 159.354 171.752 159.77 171.752C160.26 171.752 160.687 171.629 161.05 171.384C161.412 171.139 161.647 170.792 161.754 170.344H163.53C163.348 171.197 162.922 171.885 162.25 172.408C161.578 172.931 160.751 173.192 159.77 173.192ZM168.541 173C167.762 173 167.143 172.813 166.685 172.44C166.226 172.056 165.997 171.379 165.997 170.408V166.488H164.637V165.064H165.997L166.205 163.048H167.693V165.064H169.933V166.488H167.693V170.408C167.693 170.845 167.783 171.149 167.965 171.32C168.157 171.48 168.482 171.56 168.941 171.56H169.853V173H168.541ZM172.641 163.56C172.321 163.56 172.055 163.464 171.841 163.272C171.639 163.069 171.537 162.819 171.537 162.52C171.537 162.221 171.639 161.976 171.841 161.784C172.055 161.581 172.321 161.48 172.641 161.48C172.961 161.48 173.223 161.581 173.425 161.784C173.639 161.976 173.745 162.221 173.745 162.52C173.745 162.819 173.639 163.069 173.425 163.272C173.223 163.464 172.961 163.56 172.641 163.56ZM171.793 173V165.064H173.489V173H171.793ZM179.44 173.192C178.683 173.192 178 173.021 177.392 172.68C176.795 172.328 176.32 171.843 175.968 171.224C175.616 170.595 175.44 169.864 175.44 169.032C175.44 168.2 175.616 167.475 175.968 166.856C176.331 166.227 176.816 165.741 177.424 165.4C178.032 165.048 178.71 164.872 179.456 164.872C180.214 164.872 180.891 165.048 181.488 165.4C182.096 165.741 182.576 166.227 182.928 166.856C183.291 167.475 183.472 168.2 183.472 169.032C183.472 169.864 183.291 170.595 182.928 171.224C182.576 171.843 182.096 172.328 181.488 172.68C180.88 173.021 180.198 173.192 179.44 173.192ZM179.44 171.736C179.846 171.736 180.219 171.635 180.56 171.432C180.912 171.229 181.195 170.931 181.408 170.536C181.622 170.131 181.728 169.629 181.728 169.032C181.728 168.435 181.622 167.939 181.408 167.544C181.206 167.139 180.928 166.835 180.576 166.632C180.235 166.429 179.862 166.328 179.456 166.328C179.051 166.328 178.672 166.429 178.32 166.632C177.979 166.835 177.702 167.139 177.488 167.544C177.275 167.939 177.168 168.435 177.168 169.032C177.168 169.629 177.275 170.131 177.488 170.536C177.702 170.931 177.979 171.229 178.32 171.432C178.662 171.635 179.035 171.736 179.44 171.736ZM185.306 173V165.064H186.81L186.938 166.456C187.184 165.965 187.541 165.581 188.01 165.304C188.49 165.016 189.04 164.872 189.658 164.872C190.618 164.872 191.37 165.171 191.914 165.768C192.469 166.365 192.746 167.256 192.746 168.44V173H191.066V168.616C191.066 167.08 190.437 166.312 189.178 166.312C188.549 166.312 188.026 166.536 187.61 166.984C187.205 167.432 187.002 168.072 187.002 168.904V173H185.306ZM197.912 173.192C196.909 173.192 196.083 172.947 195.432 172.456C194.781 171.965 194.408 171.315 194.312 170.504H196.024C196.109 170.867 196.312 171.181 196.632 171.448C196.952 171.704 197.373 171.832 197.896 171.832C198.408 171.832 198.781 171.725 199.016 171.512C199.251 171.299 199.368 171.053 199.368 170.776C199.368 170.371 199.203 170.099 198.872 169.96C198.552 169.811 198.104 169.677 197.528 169.56C197.08 169.464 196.632 169.336 196.184 169.176C195.747 169.016 195.379 168.792 195.08 168.504C194.792 168.205 194.648 167.805 194.648 167.304C194.648 166.611 194.915 166.035 195.448 165.576C195.981 165.107 196.728 164.872 197.688 164.872C198.573 164.872 199.288 165.085 199.832 165.512C200.387 165.939 200.712 166.541 200.808 167.32H199.176C199.123 166.979 198.963 166.712 198.696 166.52C198.44 166.328 198.093 166.232 197.656 166.232C197.229 166.232 196.899 166.323 196.664 166.504C196.429 166.675 196.312 166.899 196.312 167.176C196.312 167.453 196.472 167.672 196.792 167.832C197.123 167.992 197.555 168.136 198.088 168.264C198.621 168.381 199.112 168.52 199.56 168.68C200.019 168.829 200.387 169.053 200.664 169.352C200.941 169.651 201.08 170.088 201.08 170.664C201.091 171.389 200.808 171.992 200.232 172.472C199.667 172.952 198.893 173.192 197.912 173.192Z" fill="white"/>
<defs>
<filter id="filter0_d_2214_5254" x="157.322" y="45.4238" width="105.679" height="200.428" filterUnits="userSpaceOnUse" color-interpolation-filters="sRGB">
<feFlood flood-opacity="0" result="BackgroundImageFix"/>
<feColorMatrix in="SourceAlpha" type="matrix" values="0 0 0 0 0 0 0 0 0 0 0 0 0 0 0 0 0 0 127 0" result="hardAlpha"/>
<feOffset dy="4"/>
<feGaussianBlur stdDeviation="2"/>
<feColorMatrix type="matrix" values="0 0 0 0 0.356863 0 0 0 0 0.576471 0 0 0 0 1 0 0 0 0.24 0"/>
<feBlend mode="normal" in2="BackgroundImageFix" result="effect1_dropShadow_2214_5254"/>
<feBlend mode="normal" in="SourceGraphic" in2="effect1_dropShadow_2214_5254" result="shape"/>
</filter>
</defs>
</svg>
