<svg width="53" height="48" viewBox="0 0 53 48" fill="none" xmlns="http://www.w3.org/2000/svg">
<path fill-rule="evenodd" clip-rule="evenodd" d="M32.54 14H35.92C37.33 14 38.46 15.15 38.46 16.561V19.97C38.46 21.39 37.33 22.53 35.92 22.53H32.54C31.14 22.53 30 21.39 30 19.97V16.561C30 15.15 31.14 14 32.54 14ZM32.54 25.4697H35.92C37.33 25.4697 38.46 26.6107 38.46 28.0307V31.4397C38.46 32.8497 37.33 33.9997 35.92 33.9997H32.54C31.14 33.9997 30 32.8497 30 31.4397V28.0307C30 26.6107 31.14 25.4697 32.54 25.4697ZM47.4601 14H44.0801C42.6701 14 41.5401 15.15 41.5401 16.561V19.97C41.5401 21.39 42.6701 22.53 44.0801 22.53H47.4601C48.8601 22.53 50.0001 21.39 50.0001 19.97V16.561C50.0001 15.15 48.8601 14 47.4601 14ZM44.0801 25.4697H47.4601C48.8601 25.4697 50.0001 26.6107 50.0001 28.0307V31.4397C50.0001 32.8497 48.8601 33.9997 47.4601 33.9997H44.0801C42.6701 33.9997 41.5401 32.8497 41.5401 31.4397V28.0307C41.5401 26.6107 42.6701 25.4697 44.0801 25.4697Z" fill="#605CFF"/>
<path opacity="0.2" d="M0 0H48C50.7614 0 53 2.23858 53 5V43C53 45.7614 50.7614 48 48 48H0V0Z" fill="white"/>
</svg>
