<svg width="24" height="24" viewBox="0 0 24 24" fill="none" xmlns="http://www.w3.org/2000/svg">
<path fill-rule="evenodd" clip-rule="evenodd" d="M15.8498 2.50016C16.4808 2.50016 17.1108 2.58916 17.7098 2.79016C21.4008 3.99016 22.7308 8.04016 21.6198 11.5802C20.9898 13.3892 19.9598 15.0402 18.6108 16.3892C16.6798 18.2592 14.5608 19.9192 12.2798 21.3492L12.0298 21.5002L11.7698 21.3392C9.48077 19.9192 7.34977 18.2592 5.40077 16.3792C4.06077 15.0302 3.02977 13.3892 2.38977 11.5802C1.25977 8.04016 2.58977 3.99016 6.32077 2.76916C6.61077 2.66916 6.90977 2.59916 7.20977 2.56016H7.32977C7.61077 2.51916 7.88977 2.50016 8.16977 2.50016H8.27977C8.90977 2.51916 9.51977 2.62916 10.1108 2.83016H10.1698C10.2098 2.84916 10.2398 2.87016 10.2598 2.88916C10.4808 2.96016 10.6898 3.04016 10.8898 3.15016L11.2698 3.32016C11.3616 3.36913 11.4647 3.44396 11.5537 3.50863C11.6102 3.5496 11.661 3.5865 11.6998 3.61016C11.7161 3.61979 11.7327 3.62947 11.7494 3.63923C11.8351 3.68928 11.9245 3.74142 11.9998 3.79916C13.1108 2.95016 14.4598 2.49016 15.8498 2.50016ZM18.5098 9.70016C18.9198 9.68916 19.2698 9.36016 19.2998 8.93916V8.82016C19.3298 7.41916 18.4808 6.15016 17.1898 5.66016C16.7798 5.51916 16.3298 5.74016 16.1798 6.16016C16.0398 6.58016 16.2598 7.04016 16.6798 7.18916C17.3208 7.42916 17.7498 8.06016 17.7498 8.75916V8.79016C17.7308 9.01916 17.7998 9.24016 17.9398 9.41016C18.0798 9.58016 18.2898 9.67916 18.5098 9.70016Z" fill="#605CFF"/>
</svg>
