<svg width="719" height="408" viewBox="0 0 719 408" fill="none" xmlns="http://www.w3.org/2000/svg">
<rect width="719" height="408" rx="10" fill="#364153"/>
<g opacity="0.3">
<path d="M676.487 36.0126C675.804 35.3292 674.696 35.3292 674.013 36.0126C673.329 36.696 673.329 37.804 674.013 38.4874C674.696 39.1709 675.804 39.1709 676.487 38.4874C677.171 37.8041 677.171 36.696 676.487 36.0126Z" fill="white"/>
<path d="M671.237 36.0126C670.554 35.3292 669.446 35.3292 668.763 36.0126C668.079 36.696 668.079 37.804 668.763 38.4874C669.446 39.1709 670.554 39.1709 671.237 38.4874C671.921 37.8041 671.921 36.696 671.237 36.0126Z" fill="white"/>
<path d="M665.987 36.0126C665.304 35.3292 664.196 35.3292 663.513 36.0126C662.829 36.696 662.829 37.804 663.513 38.4874C664.196 39.1709 665.304 39.1709 665.987 38.4874C666.671 37.8041 666.671 36.696 665.987 36.0126Z" fill="white"/>
</g>
<line opacity="0.05" x1="62" y1="344.5" x2="719" y2="344.5" stroke="white"/>
<line opacity="0.05" x1="62" y1="293.5" x2="719" y2="293.5" stroke="white"/>
<line opacity="0.05" x1="62" y1="242.5" x2="719" y2="242.5" stroke="white"/>
<line opacity="0.05" x1="62" y1="191.5" x2="719" y2="191.5" stroke="white"/>
<line opacity="0.05" x1="62" y1="140.5" x2="719" y2="140.5" stroke="white"/>
<line opacity="0.05" x1="62" y1="89.5" x2="719" y2="89.5" stroke="white"/>
<g opacity="0.7">
<path opacity="0.7" d="M26.4652 94V86.3402L25.0369 86.6562V85.923L26.8191 85.152H27.5396V94H26.4652ZM32.858 94.1517C32.0743 94.1517 31.3959 93.9621 30.8229 93.5829C30.2583 93.1953 29.8244 92.6602 29.521 91.9776C29.2176 91.2866 29.066 90.4861 29.066 89.576C29.066 88.6659 29.2176 87.8696 29.521 87.187C29.8244 86.4961 30.2583 85.961 30.8229 85.5818C31.3959 85.1941 32.0743 85.0003 32.858 85.0003C33.6416 85.0003 34.3158 85.1941 34.8804 85.5818C35.4449 85.961 35.8789 86.4961 36.1823 87.187C36.4856 87.8696 36.6373 88.6659 36.6373 89.576C36.6373 90.4861 36.4856 91.2866 36.1823 91.9776C35.8789 92.6602 35.4449 93.1953 34.8804 93.5829C34.3158 93.9621 33.6416 94.1517 32.858 94.1517ZM32.858 93.2163C33.372 93.2163 33.8312 93.0731 34.2357 92.7866C34.6486 92.4916 34.9688 92.0745 35.1964 91.5352C35.4323 90.9875 35.5503 90.3344 35.5503 89.576C35.5503 88.8176 35.4323 88.1687 35.1964 87.6294C34.9688 87.0901 34.6486 86.6772 34.2357 86.3907C33.8312 86.0958 33.372 85.9483 32.858 85.9483C32.3355 85.9483 31.872 86.0958 31.4676 86.3907C31.0631 86.6772 30.7429 87.0901 30.5069 87.6294C30.271 88.1687 30.153 88.8176 30.153 89.576C30.153 90.3344 30.271 90.9875 30.5069 91.5352C30.7429 92.0745 31.0631 92.4916 31.4676 92.7866C31.872 93.0731 32.3355 93.2163 32.858 93.2163ZM41.622 94.1517C40.8383 94.1517 40.16 93.9621 39.587 93.5829C39.0224 93.1953 38.5884 92.6602 38.2851 91.9776C37.9817 91.2866 37.83 90.4861 37.83 89.576C37.83 88.6659 37.9817 87.8696 38.2851 87.187C38.5884 86.4961 39.0224 85.961 39.587 85.5818C40.16 85.1941 40.8383 85.0003 41.622 85.0003C42.4057 85.0003 43.0798 85.1941 43.6444 85.5818C44.209 85.961 44.643 86.4961 44.9463 87.187C45.2497 87.8696 45.4014 88.6659 45.4014 89.576C45.4014 90.4861 45.2497 91.2866 44.9463 91.9776C44.643 92.6602 44.209 93.1953 43.6444 93.5829C43.0798 93.9621 42.4057 94.1517 41.622 94.1517ZM41.622 93.2163C42.136 93.2163 42.5953 93.0731 42.9998 92.7866C43.4127 92.4916 43.7329 92.0745 43.9604 91.5352C44.1964 90.9875 44.3143 90.3344 44.3143 89.576C44.3143 88.8176 44.1964 88.1687 43.9604 87.6294C43.7329 87.0901 43.4127 86.6772 42.9998 86.3907C42.5953 86.0958 42.136 85.9483 41.622 85.9483C41.0996 85.9483 40.6361 86.0958 40.2316 86.3907C39.8271 86.6772 39.5069 87.0901 39.271 87.6294C39.035 88.1687 38.9171 88.8176 38.9171 89.576C38.9171 90.3344 39.035 90.9875 39.271 91.5352C39.5069 92.0745 39.8271 92.4916 40.2316 92.7866C40.6361 93.0731 41.0996 93.2163 41.622 93.2163Z" fill="white"/>
<path opacity="0.7" d="M33.3763 145.152C32.7949 145.152 32.2724 145.046 31.8089 144.836C31.3455 144.617 30.9789 144.317 30.7093 143.938C30.448 143.551 30.3174 143.104 30.3174 142.598C30.3174 142.059 30.4733 141.575 30.7851 141.145C31.1053 140.715 31.5266 140.429 32.0491 140.285C31.5688 140.125 31.198 139.868 30.9368 139.514C30.6755 139.16 30.5449 138.773 30.5449 138.351C30.5449 137.922 30.6587 137.53 30.8862 137.176C31.1137 136.813 31.4382 136.527 31.8595 136.316C32.2808 136.106 32.7864 136 33.3763 136C33.9662 136 34.4718 136.106 34.8931 136.316C35.3144 136.527 35.6389 136.813 35.8664 137.176C36.0939 137.53 36.2077 137.922 36.2077 138.351C36.2077 138.764 36.077 139.152 35.8158 139.514C35.5546 139.868 35.1838 140.125 34.7035 140.285C35.2259 140.429 35.6431 140.715 35.9549 141.145C36.2751 141.575 36.4352 142.059 36.4352 142.598C36.4352 143.104 36.3003 143.551 36.0307 143.938C35.7695 144.317 35.4071 144.617 34.9437 144.836C34.4802 145.046 33.9577 145.152 33.3763 145.152ZM33.3763 139.906C33.9156 139.906 34.3411 139.771 34.6529 139.502C34.9731 139.224 35.1333 138.861 35.1333 138.415C35.1333 137.917 34.9774 137.542 34.6656 137.29C34.3538 137.037 33.924 136.91 33.3763 136.91C32.8286 136.91 32.3988 137.037 32.087 137.29C31.7837 137.542 31.632 137.917 31.632 138.415C31.632 138.861 31.7879 139.224 32.0997 139.502C32.4114 139.771 32.837 139.906 33.3763 139.906ZM33.3763 144.216C34.042 144.216 34.5392 144.065 34.8678 143.761C35.2049 143.449 35.3734 143.041 35.3734 142.535C35.3734 141.962 35.1922 141.528 34.8299 141.233C34.4675 140.938 33.983 140.791 33.3763 140.791C32.7696 140.791 32.285 140.938 31.9227 141.233C31.5603 141.528 31.3792 141.962 31.3792 142.535C31.3792 143.041 31.5435 143.449 31.8721 143.761C32.2092 144.065 32.7106 144.216 33.3763 144.216ZM41.622 145.152C40.8383 145.152 40.16 144.962 39.587 144.583C39.0224 144.195 38.5884 143.66 38.2851 142.978C37.9817 142.287 37.83 141.486 37.83 140.576C37.83 139.666 37.9817 138.87 38.2851 138.187C38.5884 137.496 39.0224 136.961 39.587 136.582C40.16 136.194 40.8383 136 41.622 136C42.4057 136 43.0798 136.194 43.6444 136.582C44.209 136.961 44.643 137.496 44.9463 138.187C45.2497 138.87 45.4014 139.666 45.4014 140.576C45.4014 141.486 45.2497 142.287 44.9463 142.978C44.643 143.66 44.209 144.195 43.6444 144.583C43.0798 144.962 42.4057 145.152 41.622 145.152ZM41.622 144.216C42.136 144.216 42.5953 144.073 42.9998 143.787C43.4127 143.492 43.7329 143.075 43.9604 142.535C44.1964 141.987 44.3143 141.334 44.3143 140.576C44.3143 139.818 44.1964 139.169 43.9604 138.629C43.7329 138.09 43.4127 137.677 42.9998 137.391C42.5953 137.096 42.136 136.948 41.622 136.948C41.0996 136.948 40.6361 137.096 40.2316 137.391C39.8271 137.677 39.5069 138.09 39.271 138.629C39.035 139.169 38.9171 139.818 38.9171 140.576C38.9171 141.334 39.035 141.987 39.271 142.535C39.5069 143.075 39.8271 143.492 40.2316 143.787C40.6361 144.073 41.0996 144.216 41.622 144.216Z" fill="white"/>
<path opacity="0.7" d="M33.3949 196.152C32.7544 196.152 32.2151 196.034 31.7769 195.798C31.3388 195.553 30.9848 195.229 30.7152 194.824C30.454 194.42 30.2601 193.969 30.1337 193.472C30.0158 192.966 29.9568 192.452 29.9568 191.93C29.9568 190.952 30.0916 190.097 30.3613 189.364C30.6309 188.622 31.0185 188.045 31.5241 187.632C32.0382 187.211 32.6575 187 33.3822 187C33.9384 187 34.4145 187.11 34.8105 187.329C35.2066 187.548 35.5184 187.843 35.7459 188.214C35.9818 188.576 36.1293 188.981 36.1883 189.427H35.2024C35.1097 188.947 34.9032 188.576 34.583 188.315C34.2628 188.054 33.8583 187.923 33.3696 187.923C32.7039 187.923 32.1435 188.239 31.6885 188.871C31.2418 189.495 31.0017 190.472 30.968 191.804C31.1702 191.407 31.4904 191.066 31.9286 190.78C32.3752 190.485 32.9103 190.337 33.5339 190.337C34.0395 190.337 34.5114 190.455 34.9496 190.691C35.3962 190.927 35.7585 191.26 36.0366 191.69C36.3147 192.111 36.4537 192.608 36.4537 193.181C36.4537 193.678 36.3316 194.155 36.0872 194.61C35.8428 195.065 35.4889 195.435 35.0254 195.722C34.5704 196.008 34.0269 196.152 33.3949 196.152ZM33.319 195.216C33.7151 195.216 34.069 195.132 34.3808 194.964C34.6926 194.795 34.9369 194.563 35.1139 194.268C35.2909 193.965 35.3793 193.619 35.3793 193.232C35.3793 192.634 35.1813 192.157 34.7853 191.804C34.3976 191.441 33.9089 191.26 33.319 191.26C32.923 191.26 32.569 191.353 32.2573 191.538C31.9455 191.715 31.6969 191.955 31.5115 192.259C31.3345 192.562 31.2461 192.891 31.2461 193.244C31.2461 193.624 31.3345 193.965 31.5115 194.268C31.6969 194.563 31.9455 194.795 32.2573 194.964C32.569 195.132 32.923 195.216 33.319 195.216ZM41.622 196.152C40.8383 196.152 40.16 195.962 39.587 195.583C39.0224 195.195 38.5884 194.66 38.2851 193.978C37.9817 193.287 37.83 192.486 37.83 191.576C37.83 190.666 37.9817 189.87 38.2851 189.187C38.5884 188.496 39.0224 187.961 39.587 187.582C40.16 187.194 40.8383 187 41.622 187C42.4057 187 43.0798 187.194 43.6444 187.582C44.209 187.961 44.643 188.496 44.9463 189.187C45.2497 189.87 45.4014 190.666 45.4014 191.576C45.4014 192.486 45.2497 193.287 44.9463 193.978C44.643 194.66 44.209 195.195 43.6444 195.583C43.0798 195.962 42.4057 196.152 41.622 196.152ZM41.622 195.216C42.136 195.216 42.5953 195.073 42.9998 194.787C43.4127 194.492 43.7329 194.075 43.9604 193.535C44.1964 192.987 44.3143 192.334 44.3143 191.576C44.3143 190.818 44.1964 190.169 43.9604 189.629C43.7329 189.09 43.4127 188.677 42.9998 188.391C42.5953 188.096 42.136 187.948 41.622 187.948C41.0996 187.948 40.6361 188.096 40.2316 188.391C39.8271 188.677 39.5069 189.09 39.271 189.629C39.035 190.169 38.9171 190.818 38.9171 191.576C38.9171 192.334 39.035 192.987 39.271 193.535C39.5069 194.075 39.8271 194.492 40.2316 194.787C40.6361 195.073 41.0996 195.216 41.622 195.216Z" fill="white"/>
<path opacity="0.7" d="M34.5251 247V245.104H30.0379V244.282L34.3355 238.152H35.5742V244.169H36.8887V245.104H35.5742V247H34.5251ZM31.2134 244.169H34.5756V239.328L31.2134 244.169ZM41.622 247.152C40.8383 247.152 40.16 246.962 39.587 246.583C39.0224 246.195 38.5884 245.66 38.2851 244.978C37.9817 244.287 37.83 243.486 37.83 242.576C37.83 241.666 37.9817 240.87 38.2851 240.187C38.5884 239.496 39.0224 238.961 39.587 238.582C40.16 238.194 40.8383 238 41.622 238C42.4057 238 43.0798 238.194 43.6444 238.582C44.209 238.961 44.643 239.496 44.9463 240.187C45.2497 240.87 45.4014 241.666 45.4014 242.576C45.4014 243.486 45.2497 244.287 44.9463 244.978C44.643 245.66 44.209 246.195 43.6444 246.583C43.0798 246.962 42.4057 247.152 41.622 247.152ZM41.622 246.216C42.136 246.216 42.5953 246.073 42.9998 245.787C43.4127 245.492 43.7329 245.075 43.9604 244.535C44.1964 243.987 44.3143 243.334 44.3143 242.576C44.3143 241.818 44.1964 241.169 43.9604 240.629C43.7329 240.09 43.4127 239.677 42.9998 239.391C42.5953 239.096 42.136 238.948 41.622 238.948C41.0996 238.948 40.6361 239.096 40.2316 239.391C39.8271 239.677 39.5069 240.09 39.271 240.629C39.035 241.169 38.9171 241.818 38.9171 242.576C38.9171 243.334 39.035 243.987 39.271 244.535C39.5069 245.075 39.8271 245.492 40.2316 245.787C40.6361 246.073 41.0996 246.216 41.622 246.216Z" fill="white"/>
<path opacity="0.7" d="M30.9223 298V297.254C31.5205 296.782 32.0851 296.306 32.616 295.826C33.1553 295.337 33.6314 294.857 34.0443 294.385C34.4657 293.913 34.7943 293.45 35.0303 292.995C35.2746 292.54 35.3968 292.101 35.3968 291.68C35.3968 291.368 35.342 291.077 35.2325 290.808C35.1314 290.538 34.9628 290.323 34.7269 290.163C34.491 289.995 34.1707 289.91 33.7663 289.91C33.3786 289.91 33.0542 289.999 32.793 290.176C32.5318 290.344 32.3337 290.572 32.1989 290.858C32.0725 291.145 32.0093 291.452 32.0093 291.781H30.9855C30.9855 291.2 31.1076 290.703 31.352 290.29C31.5964 289.868 31.9292 289.548 32.3506 289.329C32.7719 289.11 33.248 289 33.7789 289C34.5626 289 35.203 289.224 35.7002 289.67C36.2058 290.108 36.4586 290.766 36.4586 291.642C36.4586 292.165 36.328 292.683 36.0667 293.197C35.8055 293.702 35.4727 294.195 35.0682 294.676C34.6637 295.148 34.2297 295.59 33.7663 296.003C33.3112 296.416 32.8857 296.787 32.4896 297.115H36.7619V298H30.9223ZM41.622 298.152C40.8383 298.152 40.16 297.962 39.587 297.583C39.0224 297.195 38.5884 296.66 38.2851 295.978C37.9817 295.287 37.83 294.486 37.83 293.576C37.83 292.666 37.9817 291.87 38.2851 291.187C38.5884 290.496 39.0224 289.961 39.587 289.582C40.16 289.194 40.8383 289 41.622 289C42.4057 289 43.0798 289.194 43.6444 289.582C44.209 289.961 44.643 290.496 44.9463 291.187C45.2497 291.87 45.4014 292.666 45.4014 293.576C45.4014 294.486 45.2497 295.287 44.9463 295.978C44.643 296.66 44.209 297.195 43.6444 297.583C43.0798 297.962 42.4057 298.152 41.622 298.152ZM41.622 297.216C42.136 297.216 42.5953 297.073 42.9998 296.787C43.4127 296.492 43.7329 296.075 43.9604 295.535C44.1964 294.987 44.3143 294.334 44.3143 293.576C44.3143 292.818 44.1964 292.169 43.9604 291.629C43.7329 291.09 43.4127 290.677 42.9998 290.391C42.5953 290.096 42.136 289.948 41.622 289.948C41.0996 289.948 40.6361 290.096 40.2316 290.391C39.8271 290.677 39.5069 291.09 39.271 291.629C39.035 292.169 38.9171 292.818 38.9171 293.576C38.9171 294.334 39.035 294.987 39.271 295.535C39.5069 296.075 39.8271 296.492 40.2316 296.787C40.6361 297.073 41.0996 297.216 41.622 297.216Z" fill="white"/>
<path opacity="0.7" d="M41.622 349.152C40.8383 349.152 40.16 348.962 39.587 348.583C39.0224 348.195 38.5884 347.66 38.2851 346.978C37.9817 346.287 37.83 345.486 37.83 344.576C37.83 343.666 37.9817 342.87 38.2851 342.187C38.5884 341.496 39.0224 340.961 39.587 340.582C40.16 340.194 40.8383 340 41.622 340C42.4057 340 43.0798 340.194 43.6444 340.582C44.209 340.961 44.643 341.496 44.9463 342.187C45.2497 342.87 45.4014 343.666 45.4014 344.576C45.4014 345.486 45.2497 346.287 44.9463 346.978C44.643 347.66 44.209 348.195 43.6444 348.583C43.0798 348.962 42.4057 349.152 41.622 349.152ZM41.622 348.216C42.136 348.216 42.5953 348.073 42.9998 347.787C43.4127 347.492 43.7329 347.075 43.9604 346.535C44.1964 345.987 44.3143 345.334 44.3143 344.576C44.3143 343.818 44.1964 343.169 43.9604 342.629C43.7329 342.09 43.4127 341.677 42.9998 341.391C42.5953 341.096 42.136 340.948 41.622 340.948C41.0996 340.948 40.6361 341.096 40.2316 341.391C39.8271 341.677 39.5069 342.09 39.271 342.629C39.035 343.169 38.9171 343.818 38.9171 344.576C38.9171 345.334 39.035 345.987 39.271 346.535C39.5069 347.075 39.8271 347.492 40.2316 347.787C40.6361 348.073 41.0996 348.216 41.622 348.216Z" fill="white"/>
</g>
<g opacity="0.7">
<path opacity="0.7" d="M64.8075 372V364.34L63.3792 364.656V363.923L65.1614 363.152H65.8819V372H64.8075ZM71.2003 372.152C70.4166 372.152 69.7383 371.962 69.1653 371.583C68.6007 371.195 68.1667 370.66 67.8633 369.978C67.56 369.287 67.4083 368.486 67.4083 367.576C67.4083 366.666 67.56 365.87 67.8633 365.187C68.1667 364.496 68.6007 363.961 69.1653 363.582C69.7383 363.194 70.4166 363 71.2003 363C71.984 363 72.6581 363.194 73.2227 363.582C73.7873 363.961 74.2213 364.496 74.5246 365.187C74.828 365.87 74.9797 366.666 74.9797 367.576C74.9797 368.486 74.828 369.287 74.5246 369.978C74.2213 370.66 73.7873 371.195 73.2227 371.583C72.6581 371.962 71.984 372.152 71.2003 372.152ZM71.2003 371.216C71.7143 371.216 72.1736 371.073 72.5781 370.787C72.991 370.492 73.3112 370.075 73.5387 369.535C73.7746 368.987 73.8926 368.334 73.8926 367.576C73.8926 366.818 73.7746 366.169 73.5387 365.629C73.3112 365.09 72.991 364.677 72.5781 364.391C72.1736 364.096 71.7143 363.948 71.2003 363.948C70.6778 363.948 70.2144 364.096 69.8099 364.391C69.4054 364.677 69.0852 365.09 68.8493 365.629C68.6133 366.169 68.4953 366.818 68.4953 367.576C68.4953 368.334 68.6133 368.987 68.8493 369.535C69.0852 370.075 69.4054 370.492 69.8099 370.787C70.2144 371.073 70.6778 371.216 71.2003 371.216ZM78.536 372.152C78.0136 372.152 77.5796 372.063 77.2341 371.886C76.8886 371.709 76.6316 371.473 76.4631 371.178C76.2945 370.883 76.2103 370.563 76.2103 370.218C76.2103 369.577 76.4547 369.084 76.9434 368.739C77.4321 368.393 78.0979 368.221 78.9405 368.221H80.6343V368.145C80.6343 367.597 80.491 367.184 80.2045 366.906C79.918 366.62 79.5346 366.476 79.0543 366.476C78.6414 366.476 78.2832 366.582 77.9799 366.792C77.6849 366.995 77.4996 367.294 77.4237 367.69H76.3367C76.3788 367.235 76.5305 366.851 76.7917 366.54C77.0614 366.228 77.3942 365.992 77.7903 365.832C78.1863 365.663 78.6077 365.579 79.0543 365.579C79.9307 365.579 80.5879 365.815 81.0261 366.287C81.4727 366.75 81.696 367.37 81.696 368.145V372H80.748L80.6848 370.875C80.5079 371.229 80.2467 371.532 79.9012 371.785C79.5641 372.029 79.1091 372.152 78.536 372.152ZM78.7004 371.254C79.1048 371.254 79.4503 371.149 79.7368 370.938C80.0318 370.728 80.2551 370.454 80.4068 370.117C80.5584 369.78 80.6343 369.426 80.6343 369.055V369.042H79.029C78.4054 369.042 77.963 369.152 77.7018 369.371C77.449 369.582 77.3226 369.847 77.3226 370.167C77.3226 370.496 77.4406 370.761 77.6765 370.964C77.9209 371.157 78.2622 371.254 78.7004 371.254ZM83.2889 372V365.731H84.2495L84.3254 366.641C84.5276 366.304 84.7973 366.042 85.1343 365.857C85.4714 365.672 85.8506 365.579 86.2719 365.579C86.7691 365.579 87.1946 365.68 87.5486 365.882C87.9109 366.084 88.189 366.392 88.3828 366.805C88.6019 366.426 88.901 366.127 89.2802 365.908C89.6679 365.688 90.085 365.579 90.5316 365.579C91.2816 365.579 91.8799 365.806 92.3265 366.261C92.7731 366.708 92.9964 367.399 92.9964 368.334V372H91.9473V368.448C91.9473 367.799 91.8167 367.311 91.5554 366.982C91.2942 366.653 90.9192 366.489 90.4305 366.489C89.9249 366.489 89.5035 366.687 89.1665 367.083C88.8378 367.471 88.6735 368.027 88.6735 368.752V372H87.6118V368.448C87.6118 367.799 87.4811 367.311 87.2199 366.982C86.9587 366.653 86.5837 366.489 86.095 366.489C85.5978 366.489 85.1807 366.687 84.8436 367.083C84.515 367.471 84.3506 368.027 84.3506 368.752V372H83.2889Z" fill="white"/>
<path opacity="0.7" d="M132.808 372V364.34L131.379 364.656V363.923L133.161 363.152H133.882V372H132.808ZM136.622 372V364.34L135.193 364.656V363.923L136.976 363.152H137.696V372H136.622ZM141.586 372.152C141.064 372.152 140.63 372.063 140.284 371.886C139.939 371.709 139.682 371.473 139.513 371.178C139.345 370.883 139.26 370.563 139.26 370.218C139.26 369.577 139.505 369.084 139.994 368.739C140.482 368.393 141.148 368.221 141.991 368.221H143.684V368.145C143.684 367.597 143.541 367.184 143.255 366.906C142.968 366.62 142.585 366.476 142.104 366.476C141.692 366.476 141.333 366.582 141.03 366.792C140.735 366.995 140.55 367.294 140.474 367.69H139.387C139.429 367.235 139.581 366.851 139.842 366.54C140.112 366.228 140.444 365.992 140.84 365.832C141.236 365.663 141.658 365.579 142.104 365.579C142.981 365.579 143.638 365.815 144.076 366.287C144.523 366.75 144.746 367.37 144.746 368.145V372H143.798L143.735 370.875C143.558 371.229 143.297 371.532 142.951 371.785C142.614 372.029 142.159 372.152 141.586 372.152ZM141.751 371.254C142.155 371.254 142.5 371.149 142.787 370.938C143.082 370.728 143.305 370.454 143.457 370.117C143.609 369.78 143.684 369.426 143.684 369.055V369.042H142.079C141.456 369.042 141.013 369.152 140.752 369.371C140.499 369.582 140.373 369.847 140.373 370.167C140.373 370.496 140.491 370.761 140.727 370.964C140.971 371.157 141.312 371.254 141.751 371.254ZM146.339 372V365.731H147.3L147.376 366.641C147.578 366.304 147.847 366.042 148.184 365.857C148.522 365.672 148.901 365.579 149.322 365.579C149.819 365.579 150.245 365.68 150.599 365.882C150.961 366.084 151.239 366.392 151.433 366.805C151.652 366.426 151.951 366.127 152.33 365.908C152.718 365.688 153.135 365.579 153.582 365.579C154.332 365.579 154.93 365.806 155.377 366.261C155.823 366.708 156.047 367.399 156.047 368.334V372H154.997V368.448C154.997 367.799 154.867 367.311 154.606 366.982C154.344 366.653 153.969 366.489 153.481 366.489C152.975 366.489 152.554 366.687 152.217 367.083C151.888 367.471 151.724 368.027 151.724 368.752V372H150.662V368.448C150.662 367.799 150.531 367.311 150.27 366.982C150.009 366.653 149.634 366.489 149.145 366.489C148.648 366.489 148.231 366.687 147.894 367.083C147.565 367.471 147.401 368.027 147.401 368.752V372H146.339Z" fill="white"/>
<path opacity="0.7" d="M200.808 372V364.34L199.379 364.656V363.923L201.161 363.152H201.882V372H200.808ZM203.611 372V371.254C204.209 370.782 204.773 370.306 205.304 369.826C205.844 369.337 206.32 368.857 206.733 368.385C207.154 367.913 207.483 367.45 207.719 366.995C207.963 366.54 208.085 366.101 208.085 365.68C208.085 365.368 208.03 365.077 207.921 364.808C207.82 364.538 207.651 364.323 207.415 364.163C207.179 363.995 206.859 363.91 206.455 363.91C206.067 363.91 205.742 363.999 205.481 364.176C205.22 364.344 205.022 364.572 204.887 364.858C204.761 365.145 204.698 365.452 204.698 365.781H203.674C203.674 365.2 203.796 364.703 204.04 364.29C204.285 363.868 204.618 363.548 205.039 363.329C205.46 363.11 205.936 363 206.467 363C207.251 363 207.891 363.224 208.388 363.67C208.894 364.108 209.147 364.766 209.147 365.642C209.147 366.165 209.016 366.683 208.755 367.197C208.494 367.702 208.161 368.195 207.756 368.676C207.352 369.148 206.918 369.59 206.455 370.003C205.999 370.416 205.574 370.787 205.178 371.115H209.45V372H203.611ZM213.005 372.152C212.483 372.152 212.049 372.063 211.703 371.886C211.358 371.709 211.101 371.473 210.932 371.178C210.764 370.883 210.68 370.563 210.68 370.218C210.68 369.577 210.924 369.084 211.413 368.739C211.902 368.393 212.567 368.221 213.41 368.221H215.104V368.145C215.104 367.597 214.96 367.184 214.674 366.906C214.387 366.62 214.004 366.476 213.524 366.476C213.111 366.476 212.753 366.582 212.449 366.792C212.154 366.995 211.969 367.294 211.893 367.69H210.806C210.848 367.235 211 366.851 211.261 366.54C211.531 366.228 211.864 365.992 212.26 365.832C212.656 365.663 213.077 365.579 213.524 365.579C214.4 365.579 215.057 365.815 215.495 366.287C215.942 366.75 216.165 367.37 216.165 368.145V372H215.217L215.154 370.875C214.977 371.229 214.716 371.532 214.371 371.785C214.033 372.029 213.578 372.152 213.005 372.152ZM213.17 371.254C213.574 371.254 213.92 371.149 214.206 370.938C214.501 370.728 214.724 370.454 214.876 370.117C215.028 369.78 215.104 369.426 215.104 369.055V369.042H213.498C212.875 369.042 212.432 369.152 212.171 369.371C211.918 369.582 211.792 369.847 211.792 370.167C211.792 370.496 211.91 370.761 212.146 370.964C212.39 371.157 212.732 371.254 213.17 371.254ZM217.758 372V365.731H218.719L218.795 366.641C218.997 366.304 219.267 366.042 219.604 365.857C219.941 365.672 220.32 365.579 220.741 365.579C221.238 365.579 221.664 365.68 222.018 365.882C222.38 366.084 222.658 366.392 222.852 366.805C223.071 366.426 223.37 366.127 223.75 365.908C224.137 365.688 224.554 365.579 225.001 365.579C225.751 365.579 226.349 365.806 226.796 366.261C227.242 366.708 227.466 367.399 227.466 368.334V372H226.417V368.448C226.417 367.799 226.286 367.311 226.025 366.982C225.764 366.653 225.389 366.489 224.9 366.489C224.394 366.489 223.973 366.687 223.636 367.083C223.307 367.471 223.143 368.027 223.143 368.752V372H222.081V368.448C222.081 367.799 221.951 367.311 221.689 366.982C221.428 366.653 221.053 366.489 220.564 366.489C220.067 366.489 219.65 366.687 219.313 367.083C218.984 367.471 218.82 368.027 218.82 368.752V372H217.758Z" fill="white"/>
<path opacity="0.7" d="M271.386 372.152C270.602 372.152 269.924 371.962 269.351 371.583C268.786 371.195 268.352 370.66 268.049 369.978C267.746 369.287 267.594 368.486 267.594 367.576C267.594 366.666 267.746 365.87 268.049 365.187C268.352 364.496 268.786 363.961 269.351 363.582C269.924 363.194 270.602 363 271.386 363C272.17 363 272.844 363.194 273.408 363.582C273.973 363.961 274.407 364.496 274.71 365.187C275.014 365.87 275.165 366.666 275.165 367.576C275.165 368.486 275.014 369.287 274.71 369.978C274.407 370.66 273.973 371.195 273.408 371.583C272.844 371.962 272.17 372.152 271.386 372.152ZM271.386 371.216C271.9 371.216 272.359 371.073 272.764 370.787C273.177 370.492 273.497 370.075 273.724 369.535C273.96 368.987 274.078 368.334 274.078 367.576C274.078 366.818 273.96 366.169 273.724 365.629C273.497 365.09 273.177 364.677 272.764 364.391C272.359 364.096 271.9 363.948 271.386 363.948C270.864 363.948 270.4 364.096 269.996 364.391C269.591 364.677 269.271 365.09 269.035 365.629C268.799 366.169 268.681 366.818 268.681 367.576C268.681 368.334 268.799 368.987 269.035 369.535C269.271 370.075 269.591 370.492 269.996 370.787C270.4 371.073 270.864 371.216 271.386 371.216ZM277.572 372V364.34L276.143 364.656V363.923L277.926 363.152H278.646V372H277.572ZM282.536 372.152C282.014 372.152 281.58 372.063 281.234 371.886C280.889 371.709 280.632 371.473 280.463 371.178C280.295 370.883 280.21 370.563 280.21 370.218C280.21 369.577 280.455 369.084 280.943 368.739C281.432 368.393 282.098 368.221 282.941 368.221H284.634V368.145C284.634 367.597 284.491 367.184 284.205 366.906C283.918 366.62 283.535 366.476 283.054 366.476C282.641 366.476 282.283 366.582 281.98 366.792C281.685 366.995 281.5 367.294 281.424 367.69H280.337C280.379 367.235 280.53 366.851 280.792 366.54C281.061 366.228 281.394 365.992 281.79 365.832C282.186 365.663 282.608 365.579 283.054 365.579C283.931 365.579 284.588 365.815 285.026 366.287C285.473 366.75 285.696 367.37 285.696 368.145V372H284.748L284.685 370.875C284.508 371.229 284.247 371.532 283.901 371.785C283.564 372.029 283.109 372.152 282.536 372.152ZM282.7 371.254C283.105 371.254 283.45 371.149 283.737 370.938C284.032 370.728 284.255 370.454 284.407 370.117C284.558 369.78 284.634 369.426 284.634 369.055V369.042H283.029C282.405 369.042 281.963 369.152 281.702 369.371C281.449 369.582 281.323 369.847 281.323 370.167C281.323 370.496 281.441 370.761 281.677 370.964C281.921 371.157 282.262 371.254 282.7 371.254ZM287.289 372V365.731H288.25L288.325 366.641C288.528 366.304 288.797 366.042 289.134 365.857C289.471 365.672 289.851 365.579 290.272 365.579C290.769 365.579 291.195 365.68 291.549 365.882C291.911 366.084 292.189 366.392 292.383 366.805C292.602 366.426 292.901 366.127 293.28 365.908C293.668 365.688 294.085 365.579 294.532 365.579C295.282 365.579 295.88 365.806 296.326 366.261C296.773 366.708 296.996 367.399 296.996 368.334V372H295.947V368.448C295.947 367.799 295.817 367.311 295.555 366.982C295.294 366.653 294.919 366.489 294.43 366.489C293.925 366.489 293.504 366.687 293.166 367.083C292.838 367.471 292.674 368.027 292.674 368.752V372H291.612V368.448C291.612 367.799 291.481 367.311 291.22 366.982C290.959 366.653 290.584 366.489 290.095 366.489C289.598 366.489 289.181 366.687 288.844 367.083C288.515 367.471 288.351 368.027 288.351 368.752V372H287.289Z" fill="white"/>
<path opacity="0.7" d="M339.386 372.152C338.602 372.152 337.924 371.962 337.351 371.583C336.786 371.195 336.352 370.66 336.049 369.978C335.746 369.287 335.594 368.486 335.594 367.576C335.594 366.666 335.746 365.87 336.049 365.187C336.352 364.496 336.786 363.961 337.351 363.582C337.924 363.194 338.602 363 339.386 363C340.17 363 340.844 363.194 341.408 363.582C341.973 363.961 342.407 364.496 342.71 365.187C343.014 365.87 343.165 366.666 343.165 367.576C343.165 368.486 343.014 369.287 342.71 369.978C342.407 370.66 341.973 371.195 341.408 371.583C340.844 371.962 340.17 372.152 339.386 372.152ZM339.386 371.216C339.9 371.216 340.359 371.073 340.764 370.787C341.177 370.492 341.497 370.075 341.724 369.535C341.96 368.987 342.078 368.334 342.078 367.576C342.078 366.818 341.96 366.169 341.724 365.629C341.497 365.09 341.177 364.677 340.764 364.391C340.359 364.096 339.9 363.948 339.386 363.948C338.864 363.948 338.4 364.096 337.996 364.391C337.591 364.677 337.271 365.09 337.035 365.629C336.799 366.169 336.681 366.818 336.681 367.576C336.681 368.334 336.799 368.987 337.035 369.535C337.271 370.075 337.591 370.492 337.996 370.787C338.4 371.073 338.864 371.216 339.386 371.216ZM344.437 372V371.254C345.035 370.782 345.6 370.306 346.131 369.826C346.67 369.337 347.146 368.857 347.559 368.385C347.98 367.913 348.309 367.45 348.545 366.995C348.789 366.54 348.912 366.101 348.912 365.68C348.912 365.368 348.857 365.077 348.747 364.808C348.646 364.538 348.478 364.323 348.242 364.163C348.006 363.995 347.685 363.91 347.281 363.91C346.893 363.91 346.569 363.999 346.308 364.176C346.046 364.344 345.848 364.572 345.714 364.858C345.587 365.145 345.524 365.452 345.524 365.781H344.5C344.5 365.2 344.622 364.703 344.867 364.29C345.111 363.868 345.444 363.548 345.865 363.329C346.287 363.11 346.763 363 347.294 363C348.077 363 348.718 363.224 349.215 363.67C349.72 364.108 349.973 364.766 349.973 365.642C349.973 366.165 349.843 366.683 349.581 367.197C349.32 367.702 348.987 368.195 348.583 368.676C348.178 369.148 347.744 369.59 347.281 370.003C346.826 370.416 346.4 370.787 346.004 371.115H350.277V372H344.437ZM353.832 372.152C353.309 372.152 352.875 372.063 352.53 371.886C352.184 371.709 351.927 371.473 351.759 371.178C351.59 370.883 351.506 370.563 351.506 370.218C351.506 369.577 351.75 369.084 352.239 368.739C352.728 368.393 353.394 368.221 354.236 368.221H355.93V368.145C355.93 367.597 355.787 367.184 355.5 366.906C355.214 366.62 354.83 366.476 354.35 366.476C353.937 366.476 353.579 366.582 353.276 366.792C352.981 366.995 352.795 367.294 352.72 367.69H351.632C351.675 367.235 351.826 366.851 352.088 366.54C352.357 366.228 352.69 365.992 353.086 365.832C353.482 365.663 353.903 365.579 354.35 365.579C355.226 365.579 355.884 365.815 356.322 366.287C356.769 366.75 356.992 367.37 356.992 368.145V372H356.044L355.981 370.875C355.804 371.229 355.542 371.532 355.197 371.785C354.86 372.029 354.405 372.152 353.832 372.152ZM353.996 371.254C354.401 371.254 354.746 371.149 355.033 370.938C355.328 370.728 355.551 370.454 355.703 370.117C355.854 369.78 355.93 369.426 355.93 369.055V369.042H354.325C353.701 369.042 353.259 369.152 352.998 369.371C352.745 369.582 352.618 369.847 352.618 370.167C352.618 370.496 352.736 370.761 352.972 370.964C353.217 371.157 353.558 371.254 353.996 371.254ZM358.585 372V365.731H359.545L359.621 366.641C359.823 366.304 360.093 366.042 360.43 365.857C360.767 365.672 361.146 365.579 361.568 365.579C362.065 365.579 362.49 365.68 362.844 365.882C363.207 366.084 363.485 366.392 363.679 366.805C363.898 366.426 364.197 366.127 364.576 365.908C364.964 365.688 365.381 365.579 365.827 365.579C366.577 365.579 367.176 365.806 367.622 366.261C368.069 366.708 368.292 367.399 368.292 368.334V372H367.243V368.448C367.243 367.799 367.112 367.311 366.851 366.982C366.59 366.653 366.215 366.489 365.726 366.489C365.221 366.489 364.799 366.687 364.462 367.083C364.134 367.471 363.969 368.027 363.969 368.752V372H362.908V368.448C362.908 367.799 362.777 367.311 362.516 366.982C362.254 366.653 361.879 366.489 361.391 366.489C360.894 366.489 360.476 366.687 360.139 367.083C359.811 367.471 359.646 368.027 359.646 368.752V372H358.585Z" fill="white"/>
<path opacity="0.7" d="M407.386 372.152C406.602 372.152 405.924 371.962 405.351 371.583C404.786 371.195 404.352 370.66 404.049 369.978C403.746 369.287 403.594 368.486 403.594 367.576C403.594 366.666 403.746 365.87 404.049 365.187C404.352 364.496 404.786 363.961 405.351 363.582C405.924 363.194 406.602 363 407.386 363C408.17 363 408.844 363.194 409.408 363.582C409.973 363.961 410.407 364.496 410.71 365.187C411.014 365.87 411.165 366.666 411.165 367.576C411.165 368.486 411.014 369.287 410.71 369.978C410.407 370.66 409.973 371.195 409.408 371.583C408.844 371.962 408.17 372.152 407.386 372.152ZM407.386 371.216C407.9 371.216 408.359 371.073 408.764 370.787C409.177 370.492 409.497 370.075 409.724 369.535C409.96 368.987 410.078 368.334 410.078 367.576C410.078 366.818 409.96 366.169 409.724 365.629C409.497 365.09 409.177 364.677 408.764 364.391C408.359 364.096 407.9 363.948 407.386 363.948C406.864 363.948 406.4 364.096 405.996 364.391C405.591 364.677 405.271 365.09 405.035 365.629C404.799 366.169 404.681 366.818 404.681 367.576C404.681 368.334 404.799 368.987 405.035 369.535C405.271 370.075 405.591 370.492 405.996 370.787C406.4 371.073 406.864 371.216 407.386 371.216ZM415.455 372.152C414.89 372.152 414.381 372.051 413.926 371.848C413.47 371.638 413.104 371.326 412.826 370.913C412.556 370.5 412.413 369.986 412.396 369.371H413.47C413.479 369.876 413.656 370.315 414.001 370.685C414.347 371.048 414.831 371.229 415.455 371.229C416.079 371.229 416.546 371.056 416.858 370.711C417.178 370.365 417.338 369.948 417.338 369.459C417.338 369.046 417.237 368.709 417.035 368.448C416.841 368.187 416.576 367.993 416.239 367.867C415.91 367.74 415.548 367.677 415.152 367.677H414.494V366.78H415.152C415.725 366.78 416.171 366.649 416.491 366.388C416.82 366.127 416.984 365.76 416.984 365.288C416.984 364.892 416.854 364.568 416.593 364.315C416.34 364.054 415.961 363.923 415.455 363.923C414.966 363.923 414.574 364.071 414.279 364.365C413.984 364.652 413.82 365.014 413.786 365.452H412.712C412.737 364.972 412.864 364.547 413.091 364.176C413.327 363.805 413.647 363.519 414.052 363.316C414.456 363.106 414.924 363 415.455 363C416.028 363 416.504 363.101 416.883 363.304C417.271 363.506 417.562 363.776 417.755 364.113C417.958 364.45 418.059 364.82 418.059 365.225C418.059 365.672 417.937 366.08 417.692 366.451C417.448 366.813 417.081 367.058 416.593 367.184C417.115 367.294 417.549 367.542 417.894 367.93C418.24 368.318 418.413 368.827 418.413 369.459C418.413 369.948 418.299 370.399 418.071 370.812C417.852 371.216 417.524 371.541 417.086 371.785C416.647 372.029 416.104 372.152 415.455 372.152ZM422.153 372.152C421.63 372.152 421.196 372.063 420.851 371.886C420.505 371.709 420.248 371.473 420.08 371.178C419.911 370.883 419.827 370.563 419.827 370.218C419.827 369.577 420.071 369.084 420.56 368.739C421.049 368.393 421.715 368.221 422.557 368.221H424.251V368.145C424.251 367.597 424.108 367.184 423.821 366.906C423.535 366.62 423.151 366.476 422.671 366.476C422.258 366.476 421.9 366.582 421.597 366.792C421.302 366.995 421.116 367.294 421.04 367.69H419.953C419.996 367.235 420.147 366.851 420.408 366.54C420.678 366.228 421.011 365.992 421.407 365.832C421.803 365.663 422.224 365.579 422.671 365.579C423.547 365.579 424.205 365.815 424.643 366.287C425.089 366.75 425.313 367.37 425.313 368.145V372H424.365L424.302 370.875C424.125 371.229 423.863 371.532 423.518 371.785C423.181 372.029 422.726 372.152 422.153 372.152ZM422.317 371.254C422.722 371.254 423.067 371.149 423.354 370.938C423.648 370.728 423.872 370.454 424.023 370.117C424.175 369.78 424.251 369.426 424.251 369.055V369.042H422.646C422.022 369.042 421.58 369.152 421.319 369.371C421.066 369.582 420.939 369.847 420.939 370.167C420.939 370.496 421.057 370.761 421.293 370.964C421.538 371.157 421.879 371.254 422.317 371.254ZM426.906 372V365.731H427.866L427.942 366.641C428.144 366.304 428.414 366.042 428.751 365.857C429.088 365.672 429.467 365.579 429.889 365.579C430.386 365.579 430.811 365.68 431.165 365.882C431.528 366.084 431.806 366.392 432 366.805C432.219 366.426 432.518 366.127 432.897 365.908C433.285 365.688 433.702 365.579 434.148 365.579C434.898 365.579 435.497 365.806 435.943 366.261C436.39 366.708 436.613 367.399 436.613 368.334V372H435.564V368.448C435.564 367.799 435.433 367.311 435.172 366.982C434.911 366.653 434.536 366.489 434.047 366.489C433.542 366.489 433.12 366.687 432.783 367.083C432.455 367.471 432.29 368.027 432.29 368.752V372H431.228V368.448C431.228 367.799 431.098 367.311 430.837 366.982C430.575 366.653 430.2 366.489 429.712 366.489C429.215 366.489 428.797 366.687 428.46 367.083C428.132 367.471 427.967 368.027 427.967 368.752V372H426.906Z" fill="white"/>
<path opacity="0.7" d="M475.386 372.152C474.602 372.152 473.924 371.962 473.351 371.583C472.786 371.195 472.352 370.66 472.049 369.978C471.746 369.287 471.594 368.486 471.594 367.576C471.594 366.666 471.746 365.87 472.049 365.187C472.352 364.496 472.786 363.961 473.351 363.582C473.924 363.194 474.602 363 475.386 363C476.17 363 476.844 363.194 477.408 363.582C477.973 363.961 478.407 364.496 478.71 365.187C479.014 365.87 479.165 366.666 479.165 367.576C479.165 368.486 479.014 369.287 478.71 369.978C478.407 370.66 477.973 371.195 477.408 371.583C476.844 371.962 476.17 372.152 475.386 372.152ZM475.386 371.216C475.9 371.216 476.359 371.073 476.764 370.787C477.177 370.492 477.497 370.075 477.724 369.535C477.96 368.987 478.078 368.334 478.078 367.576C478.078 366.818 477.96 366.169 477.724 365.629C477.497 365.09 477.177 364.677 476.764 364.391C476.359 364.096 475.9 363.948 475.386 363.948C474.864 363.948 474.4 364.096 473.996 364.391C473.591 364.677 473.271 365.09 473.035 365.629C472.799 366.169 472.681 366.818 472.681 367.576C472.681 368.334 472.799 368.987 473.035 369.535C473.271 370.075 473.591 370.492 473.996 370.787C474.4 371.073 474.864 371.216 475.386 371.216ZM484.706 372V370.104H480.219V369.282L484.517 363.152H485.755V369.169H487.07V370.104H485.755V372H484.706ZM481.395 369.169H484.757V364.328L481.395 369.169ZM490.375 372.152C489.852 372.152 489.419 372.063 489.073 371.886C488.728 371.709 488.471 371.473 488.302 371.178C488.133 370.883 488.049 370.563 488.049 370.218C488.049 369.577 488.294 369.084 488.782 368.739C489.271 368.393 489.937 368.221 490.779 368.221H492.473V368.145C492.473 367.597 492.33 367.184 492.043 366.906C491.757 366.62 491.374 366.476 490.893 366.476C490.48 366.476 490.122 366.582 489.819 366.792C489.524 366.995 489.338 367.294 489.263 367.69H488.176C488.218 367.235 488.369 366.851 488.631 366.54C488.9 366.228 489.233 365.992 489.629 365.832C490.025 365.663 490.447 365.579 490.893 365.579C491.77 365.579 492.427 365.815 492.865 366.287C493.312 366.75 493.535 367.37 493.535 368.145V372H492.587L492.524 370.875C492.347 371.229 492.086 371.532 491.74 371.785C491.403 372.029 490.948 372.152 490.375 372.152ZM490.539 371.254C490.944 371.254 491.289 371.149 491.576 370.938C491.871 370.728 492.094 370.454 492.246 370.117C492.397 369.78 492.473 369.426 492.473 369.055V369.042H490.868C490.244 369.042 489.802 369.152 489.541 369.371C489.288 369.582 489.162 369.847 489.162 370.167C489.162 370.496 489.279 370.761 489.515 370.964C489.76 371.157 490.101 371.254 490.539 371.254ZM495.128 372V365.731H496.088L496.164 366.641C496.367 366.304 496.636 366.042 496.973 365.857C497.31 365.672 497.689 365.579 498.111 365.579C498.608 365.579 499.034 365.68 499.387 365.882C499.75 366.084 500.028 366.392 500.222 366.805C500.441 366.426 500.74 366.127 501.119 365.908C501.507 365.688 501.924 365.579 502.371 365.579C503.12 365.579 503.719 365.806 504.165 366.261C504.612 366.708 504.835 367.399 504.835 368.334V372H503.786V368.448C503.786 367.799 503.656 367.311 503.394 366.982C503.133 366.653 502.758 366.489 502.269 366.489C501.764 366.489 501.342 366.687 501.005 367.083C500.677 367.471 500.512 368.027 500.512 368.752V372H499.451V368.448C499.451 367.799 499.32 367.311 499.059 366.982C498.798 366.653 498.423 366.489 497.934 366.489C497.437 366.489 497.02 366.687 496.683 367.083C496.354 367.471 496.19 368.027 496.19 368.752V372H495.128Z" fill="white"/>
<path opacity="0.7" d="M543.386 372.152C542.602 372.152 541.924 371.962 541.351 371.583C540.786 371.195 540.352 370.66 540.049 369.978C539.746 369.287 539.594 368.486 539.594 367.576C539.594 366.666 539.746 365.87 540.049 365.187C540.352 364.496 540.786 363.961 541.351 363.582C541.924 363.194 542.602 363 543.386 363C544.17 363 544.844 363.194 545.408 363.582C545.973 363.961 546.407 364.496 546.71 365.187C547.014 365.87 547.165 366.666 547.165 367.576C547.165 368.486 547.014 369.287 546.71 369.978C546.407 370.66 545.973 371.195 545.408 371.583C544.844 371.962 544.17 372.152 543.386 372.152ZM543.386 371.216C543.9 371.216 544.359 371.073 544.764 370.787C545.177 370.492 545.497 370.075 545.724 369.535C545.96 368.987 546.078 368.334 546.078 367.576C546.078 366.818 545.96 366.169 545.724 365.629C545.497 365.09 545.177 364.677 544.764 364.391C544.359 364.096 543.9 363.948 543.386 363.948C542.864 363.948 542.4 364.096 541.996 364.391C541.591 364.677 541.271 365.09 541.035 365.629C540.799 366.169 540.681 366.818 540.681 367.576C540.681 368.334 540.799 368.987 541.035 369.535C541.271 370.075 541.591 370.492 541.996 370.787C542.4 371.073 542.864 371.216 543.386 371.216ZM551.708 372.152C551.101 372.152 550.574 372.042 550.128 371.823C549.681 371.604 549.323 371.305 549.053 370.926C548.792 370.538 548.632 370.1 548.573 369.611H549.61C549.711 370.1 549.947 370.496 550.317 370.799C550.688 371.094 551.156 371.242 551.72 371.242C552.142 371.242 552.504 371.145 552.807 370.951C553.111 370.749 553.343 370.479 553.503 370.142C553.671 369.805 553.755 369.43 553.755 369.017C553.755 368.36 553.57 367.829 553.199 367.424C552.828 367.02 552.348 366.818 551.758 366.818C551.27 366.818 550.852 366.927 550.507 367.146C550.161 367.365 549.909 367.652 549.749 368.006H548.737L549.496 363.152H554.135V364.075H550.317L549.799 366.767C550.001 366.523 550.279 366.32 550.633 366.16C550.996 366 551.409 365.92 551.872 365.92C552.454 365.92 552.959 366.055 553.389 366.325C553.827 366.594 554.168 366.961 554.413 367.424C554.657 367.888 554.779 368.414 554.779 369.004C554.779 369.569 554.657 370.091 554.413 370.572C554.177 371.052 553.827 371.435 553.364 371.722C552.909 372.008 552.357 372.152 551.708 372.152ZM558.461 372.152C557.939 372.152 557.505 372.063 557.159 371.886C556.814 371.709 556.557 371.473 556.388 371.178C556.22 370.883 556.136 370.563 556.136 370.218C556.136 369.577 556.38 369.084 556.869 368.739C557.357 368.393 558.023 368.221 558.866 368.221H560.56V368.145C560.56 367.597 560.416 367.184 560.13 366.906C559.843 366.62 559.46 366.476 558.98 366.476C558.567 366.476 558.209 366.582 557.905 366.792C557.61 366.995 557.425 367.294 557.349 367.69H556.262C556.304 367.235 556.456 366.851 556.717 366.54C556.987 366.228 557.32 365.992 557.716 365.832C558.112 365.663 558.533 365.579 558.98 365.579C559.856 365.579 560.513 365.815 560.951 366.287C561.398 366.75 561.621 367.37 561.621 368.145V372H560.673L560.61 370.875C560.433 371.229 560.172 371.532 559.826 371.785C559.489 372.029 559.034 372.152 558.461 372.152ZM558.626 371.254C559.03 371.254 559.376 371.149 559.662 370.938C559.957 370.728 560.18 370.454 560.332 370.117C560.484 369.78 560.56 369.426 560.56 369.055V369.042H558.954C558.331 369.042 557.888 369.152 557.627 369.371C557.374 369.582 557.248 369.847 557.248 370.167C557.248 370.496 557.366 370.761 557.602 370.964C557.846 371.157 558.187 371.254 558.626 371.254ZM563.214 372V365.731H564.175L564.251 366.641C564.453 366.304 564.723 366.042 565.06 365.857C565.397 365.672 565.776 365.579 566.197 365.579C566.694 365.579 567.12 365.68 567.474 365.882C567.836 366.084 568.114 366.392 568.308 366.805C568.527 366.426 568.826 366.127 569.206 365.908C569.593 365.688 570.01 365.579 570.457 365.579C571.207 365.579 571.805 365.806 572.252 366.261C572.698 366.708 572.922 367.399 572.922 368.334V372H571.873V368.448C571.873 367.799 571.742 367.311 571.481 366.982C571.22 366.653 570.845 366.489 570.356 366.489C569.85 366.489 569.429 366.687 569.092 367.083C568.763 367.471 568.599 368.027 568.599 368.752V372H567.537V368.448C567.537 367.799 567.406 367.311 567.145 366.982C566.884 366.653 566.509 366.489 566.02 366.489C565.523 366.489 565.106 366.687 564.769 367.083C564.44 367.471 564.276 368.027 564.276 368.752V372H563.214Z" fill="white"/>
<path opacity="0.7" d="M611.386 372.152C610.602 372.152 609.924 371.962 609.351 371.583C608.786 371.195 608.352 370.66 608.049 369.978C607.746 369.287 607.594 368.486 607.594 367.576C607.594 366.666 607.746 365.87 608.049 365.187C608.352 364.496 608.786 363.961 609.351 363.582C609.924 363.194 610.602 363 611.386 363C612.17 363 612.844 363.194 613.408 363.582C613.973 363.961 614.407 364.496 614.71 365.187C615.014 365.87 615.165 366.666 615.165 367.576C615.165 368.486 615.014 369.287 614.71 369.978C614.407 370.66 613.973 371.195 613.408 371.583C612.844 371.962 612.17 372.152 611.386 372.152ZM611.386 371.216C611.9 371.216 612.359 371.073 612.764 370.787C613.177 370.492 613.497 370.075 613.724 369.535C613.96 368.987 614.078 368.334 614.078 367.576C614.078 366.818 613.96 366.169 613.724 365.629C613.497 365.09 613.177 364.677 612.764 364.391C612.359 364.096 611.9 363.948 611.386 363.948C610.864 363.948 610.4 364.096 609.996 364.391C609.591 364.677 609.271 365.09 609.035 365.629C608.799 366.169 608.681 366.818 608.681 367.576C608.681 368.334 608.799 368.987 609.035 369.535C609.271 370.075 609.591 370.492 609.996 370.787C610.4 371.073 610.864 371.216 611.386 371.216ZM619.885 372.152C619.244 372.152 618.705 372.034 618.267 371.798C617.829 371.553 617.475 371.229 617.205 370.824C616.944 370.42 616.75 369.969 616.624 369.472C616.506 368.966 616.447 368.452 616.447 367.93C616.447 366.952 616.581 366.097 616.851 365.364C617.121 364.622 617.508 364.045 618.014 363.632C618.528 363.211 619.147 363 619.872 363C620.428 363 620.904 363.11 621.3 363.329C621.696 363.548 622.008 363.843 622.236 364.214C622.472 364.576 622.619 364.981 622.678 365.427H621.692C621.6 364.947 621.393 364.576 621.073 364.315C620.753 364.054 620.348 363.923 619.859 363.923C619.194 363.923 618.633 364.239 618.178 364.871C617.732 365.495 617.492 366.472 617.458 367.804C617.66 367.407 617.98 367.066 618.418 366.78C618.865 366.485 619.4 366.337 620.024 366.337C620.529 366.337 621.001 366.455 621.439 366.691C621.886 366.927 622.248 367.26 622.526 367.69C622.805 368.111 622.944 368.608 622.944 369.181C622.944 369.678 622.821 370.155 622.577 370.61C622.333 371.065 621.979 371.435 621.515 371.722C621.06 372.008 620.517 372.152 619.885 372.152ZM619.809 371.216C620.205 371.216 620.559 371.132 620.871 370.964C621.182 370.795 621.427 370.563 621.604 370.268C621.781 369.965 621.869 369.619 621.869 369.232C621.869 368.634 621.671 368.157 621.275 367.804C620.887 367.441 620.399 367.26 619.809 367.26C619.413 367.26 619.059 367.353 618.747 367.538C618.435 367.715 618.187 367.955 618.001 368.259C617.824 368.562 617.736 368.891 617.736 369.244C617.736 369.624 617.824 369.965 618.001 370.268C618.187 370.563 618.435 370.795 618.747 370.964C619.059 371.132 619.413 371.216 619.809 371.216ZM626.684 372.152C626.161 372.152 625.727 372.063 625.382 371.886C625.036 371.709 624.779 371.473 624.611 371.178C624.442 370.883 624.358 370.563 624.358 370.218C624.358 369.577 624.602 369.084 625.091 368.739C625.58 368.393 626.245 368.221 627.088 368.221H628.782V368.145C628.782 367.597 628.639 367.184 628.352 366.906C628.066 366.62 627.682 366.476 627.202 366.476C626.789 366.476 626.431 366.582 626.127 366.792C625.832 366.995 625.647 367.294 625.571 367.69H624.484C624.526 367.235 624.678 366.851 624.939 366.54C625.209 366.228 625.542 365.992 625.938 365.832C626.334 365.663 626.755 365.579 627.202 365.579C628.078 365.579 628.735 365.815 629.174 366.287C629.62 366.75 629.844 367.37 629.844 368.145V372H628.896L628.832 370.875C628.655 371.229 628.394 371.532 628.049 371.785C627.712 372.029 627.257 372.152 626.684 372.152ZM626.848 371.254C627.252 371.254 627.598 371.149 627.884 370.938C628.179 370.728 628.403 370.454 628.554 370.117C628.706 369.78 628.782 369.426 628.782 369.055V369.042H627.177C626.553 369.042 626.111 369.152 625.849 369.371C625.597 369.582 625.47 369.847 625.47 370.167C625.47 370.496 625.588 370.761 625.824 370.964C626.068 371.157 626.41 371.254 626.848 371.254ZM631.436 372V365.731H632.397L632.473 366.641C632.675 366.304 632.945 366.042 633.282 365.857C633.619 365.672 633.998 365.579 634.419 365.579C634.917 365.579 635.342 365.68 635.696 365.882C636.058 366.084 636.336 366.392 636.53 366.805C636.749 366.426 637.049 366.127 637.428 365.908C637.815 365.688 638.232 365.579 638.679 365.579C639.429 365.579 640.027 365.806 640.474 366.261C640.921 366.708 641.144 367.399 641.144 368.334V372H640.095V368.448C640.095 367.799 639.964 367.311 639.703 366.982C639.442 366.653 639.067 366.489 638.578 366.489C638.072 366.489 637.651 366.687 637.314 367.083C636.985 367.471 636.821 368.027 636.821 368.752V372H635.759V368.448C635.759 367.799 635.629 367.311 635.367 366.982C635.106 366.653 634.731 366.489 634.242 366.489C633.745 366.489 633.328 366.687 632.991 367.083C632.662 367.471 632.498 368.027 632.498 368.752V372H631.436Z" fill="white"/>
<path opacity="0.7" d="M679.386 372.152C678.602 372.152 677.924 371.962 677.351 371.583C676.786 371.195 676.352 370.66 676.049 369.978C675.746 369.287 675.594 368.486 675.594 367.576C675.594 366.666 675.746 365.87 676.049 365.187C676.352 364.496 676.786 363.961 677.351 363.582C677.924 363.194 678.602 363 679.386 363C680.17 363 680.844 363.194 681.408 363.582C681.973 363.961 682.407 364.496 682.71 365.187C683.014 365.87 683.165 366.666 683.165 367.576C683.165 368.486 683.014 369.287 682.71 369.978C682.407 370.66 681.973 371.195 681.408 371.583C680.844 371.962 680.17 372.152 679.386 372.152ZM679.386 371.216C679.9 371.216 680.359 371.073 680.764 370.787C681.177 370.492 681.497 370.075 681.724 369.535C681.96 368.987 682.078 368.334 682.078 367.576C682.078 366.818 681.96 366.169 681.724 365.629C681.497 365.09 681.177 364.677 680.764 364.391C680.359 364.096 679.9 363.948 679.386 363.948C678.864 363.948 678.4 364.096 677.996 364.391C677.591 364.677 677.271 365.09 677.035 365.629C676.799 366.169 676.681 366.818 676.681 367.576C676.681 368.334 676.799 368.987 677.035 369.535C677.271 370.075 677.591 370.492 677.996 370.787C678.4 371.073 678.864 371.216 679.386 371.216ZM685.26 372L688.774 364.062H683.92V363.152H689.861V363.948L686.385 372H685.26ZM692.857 372.152C692.334 372.152 691.9 372.063 691.555 371.886C691.209 371.709 690.952 371.473 690.784 371.178C690.615 370.883 690.531 370.563 690.531 370.218C690.531 369.577 690.775 369.084 691.264 368.739C691.753 368.393 692.418 368.221 693.261 368.221H694.955V368.145C694.955 367.597 694.812 367.184 694.525 366.906C694.239 366.62 693.855 366.476 693.375 366.476C692.962 366.476 692.604 366.582 692.301 366.792C692.006 366.995 691.82 367.294 691.744 367.69H690.657C690.699 367.235 690.851 366.851 691.112 366.54C691.382 366.228 691.715 365.992 692.111 365.832C692.507 365.663 692.928 365.579 693.375 365.579C694.251 365.579 694.909 365.815 695.347 366.287C695.793 366.75 696.017 367.37 696.017 368.145V372H695.069L695.005 370.875C694.829 371.229 694.567 371.532 694.222 371.785C693.885 372.029 693.43 372.152 692.857 372.152ZM693.021 371.254C693.425 371.254 693.771 371.149 694.057 370.938C694.352 370.728 694.576 370.454 694.727 370.117C694.879 369.78 694.955 369.426 694.955 369.055V369.042H693.35C692.726 369.042 692.284 369.152 692.022 369.371C691.77 369.582 691.643 369.847 691.643 370.167C691.643 370.496 691.761 370.761 691.997 370.964C692.242 371.157 692.583 371.254 693.021 371.254ZM697.61 372V365.731H698.57L698.646 366.641C698.848 366.304 699.118 366.042 699.455 365.857C699.792 365.672 700.171 365.579 700.593 365.579C701.09 365.579 701.515 365.68 701.869 365.882C702.232 366.084 702.51 366.392 702.703 366.805C702.923 366.426 703.222 366.127 703.601 365.908C703.988 365.688 704.406 365.579 704.852 365.579C705.602 365.579 706.2 365.806 706.647 366.261C707.094 366.708 707.317 367.399 707.317 368.334V372H706.268V368.448C706.268 367.799 706.137 367.311 705.876 366.982C705.615 366.653 705.24 366.489 704.751 366.489C704.246 366.489 703.824 366.687 703.487 367.083C703.158 367.471 702.994 368.027 702.994 368.752V372H701.932V368.448C701.932 367.799 701.802 367.311 701.541 366.982C701.279 366.653 700.904 366.489 700.416 366.489C699.918 366.489 699.501 366.687 699.164 367.083C698.836 367.471 698.671 368.027 698.671 368.752V372H697.61Z" fill="white"/>
</g>
<path d="M63 205.5L70.79 213.274C78.6256 220.758 94.4333 236.742 109.922 248.149C125.457 259.992 140.9 267.258 156.844 252C172.333 236.742 187.822 197.508 203.767 197.726C219.21 197.508 234.744 236.742 250.233 248.149C266.041 259.992 281.667 244.008 297.156 252C312.918 259.992 328.589 290.508 344.078 279.101C359.749 267.258 375.511 213.492 391 217.125C406.626 220.758 422.433 249.114 437.922 279.847C453.457 310.872 468.9 310.872 484.844 291.472C502.498 272.904 511.118 265.64 530.102 255.413C550.129 246.028 562.744 259.992 578.233 244.226C594.041 228.75 609.667 182.25 625.155 174.476C640.918 166.992 656.589 197.508 672.078 201.649C687.749 205.5 703.511 182.25 711.255 170.625L719 159V345H711.21C703.374 345 687.567 345 672.078 345C656.543 345 641.1 345 625.155 345C609.667 345 594.178 345 578.233 345C562.79 345 547.255 345 531.767 345C515.959 345 500.333 345 484.844 345C469.082 345 453.411 345 437.922 345C422.251 345 406.489 345 391 345C375.374 345 359.567 345 344.078 345C328.543 345 313.1 345 297.156 345C281.667 345 266.178 345 250.233 345C234.79 345 219.256 345 203.767 345C187.959 345 172.333 345 156.844 345C141.082 345 125.411 345 109.922 345C94.2511 345 78.4889 345 70.7444 345H63V205.5Z" fill="url(#paint0_linear_2214_5267)"/>
<g filter="url(#filter0_d_2214_5267)">
<circle cx="202" cy="200" r="7" fill="#364153"/>
<circle cx="202" cy="200" r="5.5" stroke="#FF69B4" stroke-width="3"/>
</g>
<g filter="url(#filter1_d_2214_5267)">
<circle cx="284" cy="254" r="7" fill="#364153"/>
<circle cx="284" cy="254" r="5.5" stroke="#FF69B4" stroke-width="3"/>
</g>
<g filter="url(#filter2_d_2214_5267)">
<circle cx="390" cy="220" r="7" fill="#364153"/>
<circle cx="390" cy="220" r="5.5" stroke="#FF69B4" stroke-width="3"/>
</g>
<g filter="url(#filter3_d_2214_5267)">
<circle cx="543" cy="257" r="7" fill="#364153"/>
<circle cx="543" cy="257" r="5.5" stroke="#FF69B4" stroke-width="3"/>
</g>
<g filter="url(#filter4_d_2214_5267)">
<circle cx="630" cy="174" r="7" fill="#364153"/>
<circle cx="630" cy="174" r="5.5" stroke="#FF69B4" stroke-width="3"/>
</g>
<path opacity="0.7" d="M26.278 43V30.4H30.616C31.612 30.4 32.428 30.568 33.064 30.904C33.712 31.24 34.192 31.696 34.504 32.272C34.816 32.836 34.972 33.466 34.972 34.162C34.972 34.942 34.762 35.65 34.342 36.286C33.934 36.922 33.292 37.378 32.416 37.654L35.098 43H32.884L30.436 37.924H28.186V43H26.278ZM28.186 36.484H30.508C31.372 36.484 32.002 36.274 32.398 35.854C32.806 35.434 33.01 34.888 33.01 34.216C33.01 33.544 32.812 33.01 32.416 32.614C32.02 32.206 31.378 32.002 30.49 32.002H28.186V36.484ZM40.7883 43.216C39.9123 43.216 39.1323 43.024 38.4483 42.64C37.7763 42.244 37.2483 41.698 36.8643 41.002C36.4803 40.306 36.2883 39.496 36.2883 38.572C36.2883 37.636 36.4743 36.814 36.8463 36.106C37.2303 35.398 37.7583 34.846 38.4303 34.45C39.1143 34.054 39.9063 33.856 40.8063 33.856C41.6823 33.856 42.4443 34.054 43.0923 34.45C43.7403 34.834 44.2443 35.35 44.6043 35.998C44.9643 36.646 45.1443 37.36 45.1443 38.14C45.1443 38.26 45.1383 38.392 45.1263 38.536C45.1263 38.668 45.1203 38.818 45.1083 38.986H38.1603C38.2203 39.85 38.5023 40.51 39.0063 40.966C39.5223 41.41 40.1163 41.632 40.7883 41.632C41.3283 41.632 41.7783 41.512 42.1383 41.272C42.5103 41.02 42.7863 40.684 42.9663 40.264H44.8743C44.6343 41.104 44.1543 41.806 43.4343 42.37C42.7263 42.934 41.8443 43.216 40.7883 43.216ZM40.7883 35.422C40.1523 35.422 39.5883 35.614 39.0963 35.998C38.6043 36.37 38.3043 36.934 38.1963 37.69H43.2363C43.2003 36.994 42.9543 36.442 42.4983 36.034C42.0423 35.626 41.4723 35.422 40.7883 35.422ZM47.124 46.96V34.072H48.834L49.032 35.458C49.32 35.038 49.716 34.666 50.22 34.342C50.724 34.018 51.372 33.856 52.164 33.856C53.028 33.856 53.79 34.06 54.45 34.468C55.11 34.876 55.626 35.434 55.998 36.142C56.382 36.85 56.574 37.654 56.574 38.554C56.574 39.454 56.382 40.258 55.998 40.966C55.626 41.662 55.11 42.214 54.45 42.622C53.79 43.018 53.022 43.216 52.146 43.216C51.45 43.216 50.832 43.078 50.292 42.802C49.764 42.526 49.344 42.136 49.032 41.632V46.96H47.124ZM51.822 41.56C52.638 41.56 53.31 41.284 53.838 40.732C54.366 40.168 54.63 39.436 54.63 38.536C54.63 37.948 54.51 37.426 54.27 36.97C54.03 36.514 53.7 36.16 53.28 35.908C52.86 35.644 52.374 35.512 51.822 35.512C51.006 35.512 50.334 35.794 49.806 36.358C49.29 36.922 49.032 37.648 49.032 38.536C49.032 39.436 49.29 40.168 49.806 40.732C50.334 41.284 51.006 41.56 51.822 41.56ZM62.8136 43.216C61.9616 43.216 61.1936 43.024 60.5096 42.64C59.8376 42.244 59.3036 41.698 58.9076 41.002C58.5116 40.294 58.3136 39.472 58.3136 38.536C58.3136 37.6 58.5116 36.784 58.9076 36.088C59.3156 35.38 59.8616 34.834 60.5456 34.45C61.2296 34.054 61.9916 33.856 62.8316 33.856C63.6836 33.856 64.4456 34.054 65.1176 34.45C65.8016 34.834 66.3416 35.38 66.7376 36.088C67.1456 36.784 67.3496 37.6 67.3496 38.536C67.3496 39.472 67.1456 40.294 66.7376 41.002C66.3416 41.698 65.8016 42.244 65.1176 42.64C64.4336 43.024 63.6656 43.216 62.8136 43.216ZM62.8136 41.578C63.2696 41.578 63.6896 41.464 64.0736 41.236C64.4696 41.008 64.7876 40.672 65.0276 40.228C65.2676 39.772 65.3876 39.208 65.3876 38.536C65.3876 37.864 65.2676 37.306 65.0276 36.862C64.7996 36.406 64.4876 36.064 64.0916 35.836C63.7076 35.608 63.2876 35.494 62.8316 35.494C62.3756 35.494 61.9496 35.608 61.5536 35.836C61.1696 36.064 60.8576 36.406 60.6176 36.862C60.3776 37.306 60.2576 37.864 60.2576 38.536C60.2576 39.208 60.3776 39.772 60.6176 40.228C60.8576 40.672 61.1696 41.008 61.5536 41.236C61.9376 41.464 62.3576 41.578 62.8136 41.578ZM69.413 43V34.072H71.123L71.285 35.764C71.597 35.176 72.029 34.714 72.581 34.378C73.145 34.03 73.823 33.856 74.615 33.856V35.854H74.093C73.565 35.854 73.091 35.944 72.671 36.124C72.263 36.292 71.933 36.586 71.681 37.006C71.441 37.414 71.321 37.984 71.321 38.716V43H69.413ZM79.9949 43C79.1189 43 78.4229 42.79 77.9069 42.37C77.3909 41.938 77.1329 41.176 77.1329 40.084V35.674H75.6029V34.072H77.1329L77.3669 31.804H79.0409V34.072H81.5609V35.674H79.0409V40.084C79.0409 40.576 79.1429 40.918 79.3469 41.11C79.5629 41.29 79.9289 41.38 80.4449 41.38H81.4709V43H79.9949ZM87.0923 43.216C85.9643 43.216 85.0343 42.94 84.3023 42.388C83.5703 41.836 83.1503 41.104 83.0423 40.192H84.9683C85.0643 40.6 85.2923 40.954 85.6523 41.254C86.0123 41.542 86.4863 41.686 87.0743 41.686C87.6503 41.686 88.0703 41.566 88.3343 41.326C88.5983 41.086 88.7303 40.81 88.7303 40.498C88.7303 40.042 88.5443 39.736 88.1723 39.58C87.8123 39.412 87.3083 39.262 86.6603 39.13C86.1563 39.022 85.6523 38.878 85.1483 38.698C84.6563 38.518 84.2423 38.266 83.9063 37.942C83.5823 37.606 83.4203 37.156 83.4203 36.592C83.4203 35.812 83.7203 35.164 84.3203 34.648C84.9203 34.12 85.7603 33.856 86.8403 33.856C87.8363 33.856 88.6403 34.096 89.2523 34.576C89.8763 35.056 90.2423 35.734 90.3503 36.61H88.5143C88.4543 36.226 88.2743 35.926 87.9743 35.71C87.6863 35.494 87.2963 35.386 86.8043 35.386C86.3243 35.386 85.9523 35.488 85.6883 35.692C85.4243 35.884 85.2923 36.136 85.2923 36.448C85.2923 36.76 85.4723 37.006 85.8323 37.186C86.2043 37.366 86.6903 37.528 87.2903 37.672C87.8903 37.804 88.4423 37.96 88.9463 38.14C89.4623 38.308 89.8763 38.56 90.1883 38.896C90.5003 39.232 90.6563 39.724 90.6563 40.372C90.6683 41.188 90.3503 41.866 89.7023 42.406C89.0663 42.946 88.1963 43.216 87.0923 43.216Z" fill="white"/>
<g filter="url(#filter5_d_2214_5267)">
<path fill-rule="evenodd" clip-rule="evenodd" d="M356 144C350.477 144 346 148.477 346 154V190C346 195.523 350.477 200 356 200H384.804L389.134 207.5C389.519 208.167 390.481 208.167 390.866 207.5L395.196 200H425C430.523 200 435 195.523 435 190V154C435 148.477 430.523 144 425 144H356Z" fill="white"/>
</g>
<path d="M378.754 164.152C378.105 164.152 377.541 164.034 377.06 163.798C376.58 163.562 376.209 163.233 375.948 162.812C375.687 162.391 375.556 161.902 375.556 161.346H376.668C376.668 161.691 376.749 162.011 376.909 162.306C377.069 162.593 377.3 162.824 377.604 163.001C377.916 163.17 378.299 163.254 378.754 163.254C379.352 163.254 379.816 163.111 380.144 162.824C380.473 162.538 380.637 162.18 380.637 161.75C380.637 161.396 380.562 161.114 380.41 160.903C380.258 160.684 380.052 160.507 379.791 160.372C379.538 160.237 379.243 160.12 378.906 160.018C378.577 159.917 378.232 159.804 377.869 159.677C377.187 159.441 376.681 159.15 376.352 158.805C376.024 158.451 375.86 157.992 375.86 157.427C375.851 156.955 375.961 156.538 376.188 156.176C376.416 155.805 376.736 155.519 377.149 155.316C377.57 155.106 378.067 155 378.64 155C379.205 155 379.694 155.106 380.107 155.316C380.528 155.527 380.852 155.818 381.08 156.188C381.316 156.559 381.438 156.981 381.446 157.452H380.334C380.334 157.208 380.271 156.968 380.144 156.732C380.018 156.488 379.824 156.29 379.563 156.138C379.31 155.986 378.99 155.91 378.602 155.91C378.122 155.902 377.726 156.024 377.414 156.277C377.111 156.53 376.959 156.879 376.959 157.326C376.959 157.705 377.065 157.996 377.275 158.198C377.494 158.4 377.798 158.569 378.185 158.704C378.573 158.83 379.02 158.978 379.525 159.146C379.946 159.298 380.326 159.475 380.663 159.677C381 159.879 381.261 160.141 381.446 160.461C381.64 160.781 381.737 161.19 381.737 161.687C381.737 162.108 381.628 162.508 381.408 162.888C381.189 163.258 380.857 163.562 380.41 163.798C379.972 164.034 379.42 164.152 378.754 164.152ZM385.265 164.152C384.743 164.152 384.309 164.063 383.963 163.886C383.618 163.709 383.361 163.473 383.192 163.178C383.024 162.883 382.94 162.563 382.94 162.218C382.94 161.577 383.184 161.084 383.673 160.739C384.161 160.393 384.827 160.221 385.67 160.221H387.364V160.145C387.364 159.597 387.22 159.184 386.934 158.906C386.647 158.62 386.264 158.476 385.784 158.476C385.371 158.476 385.012 158.582 384.709 158.792C384.414 158.995 384.229 159.294 384.153 159.69H383.066C383.108 159.235 383.26 158.851 383.521 158.54C383.791 158.228 384.123 157.992 384.52 157.832C384.916 157.663 385.337 157.579 385.784 157.579C386.66 157.579 387.317 157.815 387.755 158.287C388.202 158.75 388.425 159.37 388.425 160.145V164H387.477L387.414 162.875C387.237 163.229 386.976 163.532 386.63 163.785C386.293 164.029 385.838 164.152 385.265 164.152ZM385.43 163.254C385.834 163.254 386.18 163.149 386.466 162.938C386.761 162.728 386.984 162.454 387.136 162.117C387.288 161.78 387.364 161.426 387.364 161.055V161.042H385.758C385.135 161.042 384.692 161.152 384.431 161.371C384.178 161.582 384.052 161.847 384.052 162.167C384.052 162.496 384.17 162.761 384.406 162.964C384.65 163.157 384.991 163.254 385.43 163.254ZM390.018 164V154.899H391.08V164H390.018ZM395.639 164.152C395.041 164.152 394.51 164.017 394.046 163.747C393.583 163.469 393.216 163.086 392.947 162.597C392.685 162.108 392.555 161.531 392.555 160.865C392.555 160.208 392.685 159.635 392.947 159.146C393.208 158.649 393.57 158.266 394.034 157.996C394.505 157.718 395.049 157.579 395.664 157.579C396.271 157.579 396.793 157.718 397.231 157.996C397.678 158.266 398.019 158.624 398.255 159.07C398.491 159.517 398.609 159.997 398.609 160.511C398.609 160.604 398.605 160.697 398.597 160.789C398.597 160.882 398.597 160.987 398.597 161.105H393.604C393.629 161.586 393.739 161.986 393.932 162.306C394.135 162.618 394.383 162.854 394.678 163.014C394.982 163.174 395.302 163.254 395.639 163.254C396.077 163.254 396.444 163.153 396.739 162.951C397.033 162.749 397.248 162.475 397.383 162.129H398.432C398.264 162.711 397.939 163.195 397.459 163.583C396.987 163.962 396.38 164.152 395.639 164.152ZM395.639 158.476C395.133 158.476 394.682 158.632 394.286 158.944C393.899 159.247 393.675 159.694 393.616 160.284H397.56C397.535 159.719 397.341 159.277 396.979 158.957C396.616 158.636 396.17 158.476 395.639 158.476ZM402.418 164.152C401.668 164.152 401.045 163.962 400.547 163.583C400.05 163.204 399.76 162.69 399.675 162.041H400.762C400.83 162.369 401.002 162.656 401.281 162.9C401.567 163.136 401.95 163.254 402.431 163.254C402.877 163.254 403.206 163.162 403.417 162.976C403.627 162.782 403.733 162.555 403.733 162.294C403.733 161.914 403.594 161.662 403.316 161.535C403.046 161.409 402.663 161.295 402.165 161.194C401.828 161.127 401.491 161.03 401.154 160.903C400.817 160.777 400.535 160.6 400.307 160.372C400.08 160.136 399.966 159.829 399.966 159.45C399.966 158.902 400.168 158.455 400.573 158.11C400.986 157.756 401.542 157.579 402.241 157.579C402.907 157.579 403.45 157.747 403.872 158.084C404.301 158.413 404.55 158.885 404.617 159.5H403.568C403.526 159.18 403.387 158.931 403.151 158.754C402.924 158.569 402.616 158.476 402.229 158.476C401.849 158.476 401.554 158.556 401.344 158.716C401.141 158.877 401.04 159.087 401.04 159.348C401.04 159.601 401.171 159.799 401.432 159.943C401.702 160.086 402.064 160.208 402.519 160.309C402.907 160.393 403.273 160.499 403.619 160.625C403.973 160.743 404.259 160.924 404.478 161.169C404.706 161.405 404.82 161.75 404.82 162.205C404.828 162.77 404.613 163.237 404.175 163.608C403.745 163.971 403.16 164.152 402.418 164.152Z" fill="#364153"/>
<path d="M369.912 186V184.784C370.637 184.208 371.331 183.627 371.992 183.04C372.653 182.453 373.24 181.877 373.752 181.312C374.275 180.736 374.685 180.176 374.984 179.632C375.283 179.077 375.432 178.544 375.432 178.032C375.432 177.691 375.373 177.371 375.256 177.072C375.139 176.763 374.947 176.517 374.68 176.336C374.413 176.144 374.056 176.048 373.608 176.048C372.936 176.048 372.429 176.261 372.088 176.688C371.757 177.115 371.597 177.627 371.608 178.224H369.96C369.971 177.435 370.136 176.773 370.456 176.24C370.787 175.707 371.224 175.301 371.768 175.024C372.323 174.747 372.947 174.608 373.64 174.608C374.696 174.608 375.539 174.907 376.168 175.504C376.808 176.091 377.128 176.912 377.128 177.968C377.128 178.597 376.973 179.221 376.664 179.84C376.365 180.459 375.971 181.056 375.48 181.632C375 182.197 374.483 182.731 373.928 183.232C373.373 183.733 372.845 184.187 372.344 184.592H377.464V186H369.912ZM378.284 187.888L379.212 184.112H380.892L379.42 187.888H378.284ZM386.67 186.192C385.849 186.192 385.155 186.037 384.59 185.728C384.025 185.419 383.566 185.008 383.214 184.496C382.873 183.984 382.627 183.408 382.478 182.768C382.329 182.128 382.254 181.472 382.254 180.8C382.254 179.563 382.425 178.48 382.766 177.552C383.118 176.624 383.619 175.904 384.27 175.392C384.921 174.869 385.71 174.608 386.638 174.608C387.374 174.608 388.003 174.752 388.526 175.04C389.049 175.328 389.454 175.712 389.742 176.192C390.041 176.672 390.222 177.195 390.286 177.76H388.702C388.606 177.205 388.377 176.779 388.014 176.48C387.651 176.181 387.187 176.032 386.622 176.032C385.843 176.032 385.198 176.4 384.686 177.136C384.185 177.861 383.918 178.981 383.886 180.496C384.142 180.027 384.537 179.627 385.07 179.296C385.614 178.965 386.238 178.8 386.942 178.8C387.571 178.8 388.158 178.949 388.702 179.248C389.257 179.547 389.705 179.968 390.046 180.512C390.398 181.045 390.574 181.68 390.574 182.416C390.574 183.067 390.414 183.68 390.094 184.256C389.774 184.832 389.321 185.301 388.734 185.664C388.158 186.016 387.47 186.192 386.67 186.192ZM386.574 184.72C387.022 184.72 387.422 184.624 387.774 184.432C388.126 184.24 388.403 183.979 388.606 183.648C388.809 183.307 388.91 182.923 388.91 182.496C388.91 181.813 388.686 181.269 388.238 180.864C387.801 180.459 387.241 180.256 386.558 180.256C386.11 180.256 385.705 180.357 385.342 180.56C384.99 180.763 384.713 181.035 384.51 181.376C384.307 181.707 384.206 182.075 384.206 182.48C384.206 182.917 384.307 183.307 384.51 183.648C384.723 183.979 385.006 184.24 385.358 184.432C385.721 184.624 386.126 184.72 386.574 184.72ZM393.154 186L397.49 176.256H391.666V174.8H399.234V176.032L394.93 186H393.154ZM404.538 186.192C403.791 186.192 403.114 186.059 402.506 185.792C401.909 185.515 401.429 185.131 401.066 184.64C400.714 184.149 400.538 183.573 400.538 182.912C400.538 182.24 400.725 181.637 401.098 181.104C401.482 180.571 401.989 180.208 402.618 180.016C402.053 179.792 401.615 179.467 401.306 179.04C400.997 178.603 400.842 178.123 400.842 177.6C400.842 177.056 400.986 176.56 401.274 176.112C401.562 175.653 401.978 175.291 402.522 175.024C403.077 174.747 403.749 174.608 404.538 174.608C405.327 174.608 405.994 174.747 406.538 175.024C407.093 175.291 407.514 175.653 407.802 176.112C408.09 176.56 408.234 177.056 408.234 177.6C408.234 178.112 408.074 178.592 407.754 179.04C407.445 179.477 407.007 179.803 406.442 180.016C407.071 180.219 407.573 180.587 407.946 181.12C408.33 181.643 408.522 182.24 408.522 182.912C408.522 183.573 408.346 184.149 407.994 184.64C407.642 185.131 407.162 185.515 406.554 185.792C405.957 186.059 405.285 186.192 404.538 186.192ZM404.538 179.472C405.157 179.472 405.642 179.312 405.994 178.992C406.357 178.672 406.538 178.261 406.538 177.76C406.538 177.195 406.362 176.763 406.01 176.464C405.658 176.165 405.167 176.016 404.538 176.016C403.909 176.016 403.418 176.165 403.066 176.464C402.714 176.763 402.538 177.195 402.538 177.76C402.538 178.261 402.714 178.672 403.066 178.992C403.418 179.312 403.909 179.472 404.538 179.472ZM404.538 184.752C405.306 184.752 405.882 184.571 406.266 184.208C406.65 183.835 406.842 183.36 406.842 182.784C406.842 182.144 406.634 181.653 406.218 181.312C405.813 180.96 405.253 180.784 404.538 180.784C403.823 180.784 403.258 180.96 402.842 181.312C402.426 181.653 402.218 182.144 402.218 182.784C402.218 183.36 402.41 183.835 402.794 184.208C403.189 184.571 403.77 184.752 404.538 184.752Z" fill="#364153"/>
<line x1="389.5" y1="344" x2="389.5" y2="227" stroke="#605CFF" stroke-dasharray="2 7"/>
<defs>
<filter id="filter0_d_2214_5267" x="191" y="193" width="22" height="22" filterUnits="userSpaceOnUse" color-interpolation-filters="sRGB">
<feFlood flood-opacity="0" result="BackgroundImageFix"/>
<feColorMatrix in="SourceAlpha" type="matrix" values="0 0 0 0 0 0 0 0 0 0 0 0 0 0 0 0 0 0 127 0" result="hardAlpha"/>
<feOffset dy="4"/>
<feGaussianBlur stdDeviation="2"/>
<feColorMatrix type="matrix" values="0 0 0 0 0.376471 0 0 0 0 0.356863 0 0 0 0 1 0 0 0 0.17 0"/>
<feBlend mode="normal" in2="BackgroundImageFix" result="effect1_dropShadow_2214_5267"/>
<feBlend mode="normal" in="SourceGraphic" in2="effect1_dropShadow_2214_5267" result="shape"/>
</filter>
<filter id="filter1_d_2214_5267" x="273" y="247" width="22" height="22" filterUnits="userSpaceOnUse" color-interpolation-filters="sRGB">
<feFlood flood-opacity="0" result="BackgroundImageFix"/>
<feColorMatrix in="SourceAlpha" type="matrix" values="0 0 0 0 0 0 0 0 0 0 0 0 0 0 0 0 0 0 127 0" result="hardAlpha"/>
<feOffset dy="4"/>
<feGaussianBlur stdDeviation="2"/>
<feColorMatrix type="matrix" values="0 0 0 0 0.376471 0 0 0 0 0.356863 0 0 0 0 1 0 0 0 0.17 0"/>
<feBlend mode="normal" in2="BackgroundImageFix" result="effect1_dropShadow_2214_5267"/>
<feBlend mode="normal" in="SourceGraphic" in2="effect1_dropShadow_2214_5267" result="shape"/>
</filter>
<filter id="filter2_d_2214_5267" x="379" y="213" width="22" height="22" filterUnits="userSpaceOnUse" color-interpolation-filters="sRGB">
<feFlood flood-opacity="0" result="BackgroundImageFix"/>
<feColorMatrix in="SourceAlpha" type="matrix" values="0 0 0 0 0 0 0 0 0 0 0 0 0 0 0 0 0 0 127 0" result="hardAlpha"/>
<feOffset dy="4"/>
<feGaussianBlur stdDeviation="2"/>
<feColorMatrix type="matrix" values="0 0 0 0 0.376471 0 0 0 0 0.356863 0 0 0 0 1 0 0 0 0.17 0"/>
<feBlend mode="normal" in2="BackgroundImageFix" result="effect1_dropShadow_2214_5267"/>
<feBlend mode="normal" in="SourceGraphic" in2="effect1_dropShadow_2214_5267" result="shape"/>
</filter>
<filter id="filter3_d_2214_5267" x="532" y="250" width="22" height="22" filterUnits="userSpaceOnUse" color-interpolation-filters="sRGB">
<feFlood flood-opacity="0" result="BackgroundImageFix"/>
<feColorMatrix in="SourceAlpha" type="matrix" values="0 0 0 0 0 0 0 0 0 0 0 0 0 0 0 0 0 0 127 0" result="hardAlpha"/>
<feOffset dy="4"/>
<feGaussianBlur stdDeviation="2"/>
<feColorMatrix type="matrix" values="0 0 0 0 0.376471 0 0 0 0 0.356863 0 0 0 0 1 0 0 0 0.17 0"/>
<feBlend mode="normal" in2="BackgroundImageFix" result="effect1_dropShadow_2214_5267"/>
<feBlend mode="normal" in="SourceGraphic" in2="effect1_dropShadow_2214_5267" result="shape"/>
</filter>
<filter id="filter4_d_2214_5267" x="619" y="167" width="22" height="22" filterUnits="userSpaceOnUse" color-interpolation-filters="sRGB">
<feFlood flood-opacity="0" result="BackgroundImageFix"/>
<feColorMatrix in="SourceAlpha" type="matrix" values="0 0 0 0 0 0 0 0 0 0 0 0 0 0 0 0 0 0 127 0" result="hardAlpha"/>
<feOffset dy="4"/>
<feGaussianBlur stdDeviation="2"/>
<feColorMatrix type="matrix" values="0 0 0 0 0.376471 0 0 0 0 0.356863 0 0 0 0 1 0 0 0 0.17 0"/>
<feBlend mode="normal" in2="BackgroundImageFix" result="effect1_dropShadow_2214_5267"/>
<feBlend mode="normal" in="SourceGraphic" in2="effect1_dropShadow_2214_5267" result="shape"/>
</filter>
<filter id="filter5_d_2214_5267" x="339" y="141" width="103" height="78" filterUnits="userSpaceOnUse" color-interpolation-filters="sRGB">
<feFlood flood-opacity="0" result="BackgroundImageFix"/>
<feColorMatrix in="SourceAlpha" type="matrix" values="0 0 0 0 0 0 0 0 0 0 0 0 0 0 0 0 0 0 127 0" result="hardAlpha"/>
<feOffset dy="4"/>
<feGaussianBlur stdDeviation="3.5"/>
<feColorMatrix type="matrix" values="0 0 0 0 0.0117647 0 0 0 0 0.00784314 0 0 0 0 0.160784 0 0 0 0.07 0"/>
<feBlend mode="normal" in2="BackgroundImageFix" result="effect1_dropShadow_2214_5267"/>
<feBlend mode="normal" in="SourceGraphic" in2="effect1_dropShadow_2214_5267" result="shape"/>
</filter>
<linearGradient id="paint0_linear_2214_5267" x1="56.1226" y1="168" x2="719" y2="166.321" gradientUnits="userSpaceOnUse">
<stop stop-color="#3A36DB" stop-opacity="0.5"/>
<stop offset="1" stop-color="#FF69B4" stop-opacity="0.35"/>
</linearGradient>
</defs>
</svg>
