<svg width="23" height="25" viewBox="0 0 23 25" fill="none" xmlns="http://www.w3.org/2000/svg">
<path fill-rule="evenodd" clip-rule="evenodd" d="M11.7534 0.750336C14.694 0.750336 17.1232 2.99095 17.4228 5.85662L17.5063 5.85761C19.1376 5.85761 21.121 6.94098 21.7903 9.97961L22.678 16.85C22.9963 19.0674 22.5981 20.846 21.4922 22.1217C20.392 23.3907 18.6505 24.0624 16.4556 24.0624H7.0641C4.65322 24.0624 2.9736 23.4717 1.92847 22.2579C0.878847 21.0406 0.527847 19.2147 0.885597 16.832L1.7586 10.0527C2.33235 6.94436 4.43047 5.85761 6.05497 5.85761C6.19522 4.5644 6.77834 3.33412 7.70343 2.41196C8.76656 1.35559 10.2324 0.750336 11.7298 0.750336H11.7534ZM17.5063 7.54511H6.05497C5.55885 7.54511 3.9006 7.74536 3.42472 10.3149L2.55622 17.0649C2.27385 18.9582 2.4921 20.3285 3.20647 21.1576C3.91185 21.9766 5.1741 22.3749 7.0641 22.3749H16.4556C17.6346 22.3749 19.2445 22.1397 20.2165 21.017C20.9882 20.1271 21.2537 18.8019 21.0062 17.0772L20.1298 10.2687C19.7563 8.59136 18.7708 7.54511 17.5063 7.54511ZM15.0345 10.6772C15.5002 10.6772 15.9041 11.0552 15.9041 11.521C15.9041 11.9867 15.552 12.3647 15.0862 12.3647H15.0345C14.5687 12.3647 14.1907 11.9867 14.1907 11.521C14.1907 11.0552 14.5687 10.6772 15.0345 10.6772ZM8.47563 10.6772C8.94138 10.6772 9.34526 11.0552 9.34526 11.521C9.34526 11.9867 8.99201 12.3647 8.52626 12.3647H8.47563C8.00988 12.3647 7.63188 11.9867 7.63188 11.521C7.63188 11.0552 8.00988 10.6772 8.47563 10.6772ZM11.7501 2.43784H11.7332C10.6746 2.43784 9.64293 2.86421 8.89481 3.60784C8.2854 4.21451 7.88683 5.01205 7.7579 5.85709L15.7221 5.8574C15.433 3.92439 13.7614 2.43784 11.7501 2.43784Z" fill="#969BAB"/>
</svg>
