<svg width="33" height="33" viewBox="0 0 33 33" fill="none" xmlns="http://www.w3.org/2000/svg">
<path d="M27.6556 10.3923L27.6621 10.4035L27.6688 10.4146C27.772 10.5866 27.8309 10.7815 27.8405 10.9818C27.8499 11.1784 27.8113 11.3743 27.7283 11.5526L23.272 20.4651H11.0753L8.20222 9.7849H9.0475H26.6327C26.8392 9.7899 27.0411 9.8475 27.2193 9.95231C27.4003 10.0588 27.5507 10.2104 27.6556 10.3923ZM11.1073 20.5843L11.1072 20.5838L11.1073 20.5843Z" stroke="white" stroke-width="3.06977"/>
<path d="M10.8401 26.8125C10.8401 27.1039 10.6039 27.3401 10.3125 27.3401C10.0211 27.3401 9.78488 27.1039 9.78488 26.8125C9.78488 26.5211 10.0211 26.2849 10.3125 26.2849C10.6039 26.2849 10.8401 26.5211 10.8401 26.8125Z" stroke="white" stroke-width="3.06977"/>
<path d="M24.5901 26.8125C24.5901 27.1039 24.3539 27.3401 24.0625 27.3401C23.7711 27.3401 23.5349 27.1039 23.5349 26.8125C23.5349 26.5211 23.7711 26.2849 24.0625 26.2849C24.3539 26.2849 24.5901 26.5211 24.5901 26.8125Z" stroke="white" stroke-width="3.06977"/>
</svg>
