<svg width="23" height="21" viewBox="0 0 23 21" fill="none" xmlns="http://www.w3.org/2000/svg">
<path d="M20.1374 3.00942L20.1366 3.00864C19.5903 2.47316 18.9463 2.04762 18.2395 1.75517L18.2382 1.75463C17.5048 1.44999 16.7182 1.29406 15.9241 1.29588L15.9218 1.29589C14.8048 1.29589 13.7168 1.60165 12.7723 2.17789L12.7722 2.17791C12.5462 2.31578 12.3322 2.46674 12.1299 2.63083L11.5 3.14178L10.8701 2.63083C10.6678 2.46674 10.4538 2.31578 10.2278 2.17791L10.2277 2.17789C9.28317 1.60165 8.19522 1.29589 7.07822 1.29589C6.2721 1.29589 5.49557 1.44985 4.76183 1.75464L4.76075 1.75509C4.05112 2.04888 3.41257 2.47077 2.8631 3.00894L2.86174 3.01027L2.86174 3.01027C2.3173 3.54147 1.88239 4.17434 1.58164 4.87301L20.1374 3.00942ZM20.1374 3.00942C20.6814 3.5415 21.1165 4.1745 21.4184 4.87301L20.1374 3.00942ZM6.12443 15.5502C4.68903 14.225 3.55646 12.9389 2.74608 11.7307L21.4184 4.87314C21.7313 5.60025 21.8902 6.3692 21.888 7.16171V7.16454C21.888 7.90565 21.7367 8.69963 21.4187 9.53106L21.4178 9.53333C21.1545 10.2269 20.7633 10.9664 20.251 11.7311C19.4407 12.9391 18.3082 14.2252 16.8729 15.5502C14.4861 17.752 12.1218 19.2737 12.0388 19.327L12.0386 19.3271L11.4987 19.6733L10.9588 19.3271L10.951 19.3221L10.943 19.3172L10.9424 19.3167C10.9368 19.3132 10.8985 19.2889 10.8253 19.2408C10.749 19.1906 10.6408 19.1186 10.5054 19.0264C10.2346 18.842 9.8557 18.5775 9.40439 18.2452C8.50025 17.5796 7.31334 16.6481 6.12454 15.5503L6.12443 15.5502ZM1.10938 7.16454C1.10938 6.3701 1.26872 5.6002 1.58161 4.87309L2.74601 11.7306C2.23504 10.9678 1.84541 10.2275 1.57846 9.53056C1.26063 8.69932 1.10938 7.9055 1.10938 7.16454Z" fill="white" stroke="white" stroke-width="2"/>
</svg>
