<svg width="20" height="21" viewBox="0 0 20 21" fill="none" xmlns="http://www.w3.org/2000/svg">
<path fill-rule="evenodd" clip-rule="evenodd" d="M9.74971 0.916656C14.896 0.916656 19.082 5.10266 19.082 10.2489C19.082 12.6769 18.1502 14.8913 16.6254 16.5533L19.6257 19.5473C19.9065 19.8281 19.9075 20.2824 19.6267 20.5632C19.4868 20.705 19.3018 20.775 19.1178 20.775C18.9348 20.775 18.7508 20.705 18.6099 20.5651L15.5734 17.537C13.976 18.8163 11.9507 19.5821 9.74971 19.5821C4.60346 19.5821 0.416504 15.3952 0.416504 10.2489C0.416504 5.10266 4.60346 0.916656 9.74971 0.916656ZM9.74971 2.35416C5.396 2.35416 1.854 5.8952 1.854 10.2489C1.854 14.6026 5.396 18.1446 9.74971 18.1446C14.1025 18.1446 17.6445 14.6026 17.6445 10.2489C17.6445 5.8952 14.1025 2.35416 9.74971 2.35416Z" fill="#969BAB"/>
</svg>
